<svg width="1440" height="709" fill="none" xmlns="http://www.w3.org/2000/svg"><path d="M714.5 659a9.5 9.5 0 11-19 0 9.5 9.5 0 0119 0z" stroke="#fff" stroke-width="5"/><path d="M-157.2 528.369c23.317-15.624 79.127-23.226 64.757-57.354-17.963-42.659 6.214-139.228 72.877-90.123 66.663 49.105 135.702-66.647 165.181 8.261 33.519 85.177 213.135-40.713 200.904 104.342-7.099 84.192 260.442-115.749 284.013 85.43 28.839 123.158 199.446 120.682 437.158-82.48 297.15-253.953 631.98-168.268 380.6-200.283-288.5-36.742 20.82-199.482 72.74-196.808" stroke="#2F3341" stroke-width="2"/></svg>