<svg width="704" height="683" fill="none" xmlns="http://www.w3.org/2000/svg"><path d="M325.374 15.353l-26.959 14.682L26.375 178.19-.583 192.872a32.806 32.806 0 00-15.752 19.519 32.736 32.736 0 002.662 24.921L195.16 619.344a32.843 32.843 0 0019.556 15.722 32.909 32.909 0 0024.971-2.657h0m85.688-617.056l-85.21 617.934-.478-.878m85.688-617.056a32.91 32.91 0 0124.971-2.657A32.84 32.84 0 01369.9 28.417l-44.526-13.064zm-85.688 617.056l.058-.032m-.058.032l.058-.032m0 0h.001l325.84-177.456.478.878-.478-.878.058-.032-325.899 177.488zM369.901 28.418l208.832 382.031a32.736 32.736 0 012.661 24.921 32.804 32.804 0 01-15.749 19.519L369.901 28.418z" fill="#1E1F2A" stroke="#333746" stroke-width="2"/><path d="M327.966 134.339L208.379 199.55a7.785 7.785 0 01-10.558-3.102 7.77 7.77 0 01-.635-5.918 7.78 7.78 0 013.738-4.634l119.588-65.211a7.785 7.785 0 0110.558 3.102 7.77 7.77 0 01-3.104 10.552zm40.757 7.675l-147.766 80.577a7.786 7.786 0 01-10.558-3.102 7.777 7.777 0 013.104-10.552l147.766-80.576a7.787 7.787 0 018.611.773 7.774 7.774 0 01-1.157 12.88zm-209.508 30.391L48.962 232.526a3.726 3.726 0 00-1.487 5.056l46.948 85.995a3.731 3.731 0 005.06 1.486l110.252-60.121a3.726 3.726 0 001.487-5.056l-46.948-85.995a3.732 3.732 0 00-5.059-1.486zm228.088 71.048l-162.206 88.45a7.792 7.792 0 01-5.922.635 7.77 7.77 0 01-5.271-9.655 7.776 7.776 0 013.739-4.634l162.206-88.45a7.786 7.786 0 0110.558 3.102 7.774 7.774 0 01-3.104 10.552zm40.756 7.675L237.676 354.944a7.785 7.785 0 01-10.558-3.102 7.77 7.77 0 013.104-10.552l190.383-103.816a7.785 7.785 0 0110.558 3.102 7.773 7.773 0 01-3.103 10.552h-.001zM163.321 404.341c18.233 0 33.014-14.772 33.014-32.994s-14.781-32.993-33.014-32.993c-18.233 0-33.013 14.771-33.013 32.993s14.78 32.994 33.013 32.994z" fill="#2C303D"/><path d="M266.658 181.572a32.673 32.673 0 0123.06-9.563h369.249a32.674 32.674 0 0123.061 9.563 32.64 32.64 0 019.567 23.049v433.366a32.639 32.639 0 01-9.567 23.049 32.67 32.67 0 01-23.061 9.563H289.719a32.669 32.669 0 01-23.061-9.562 32.636 32.636 0 01-9.567-23.049V204.621a32.636 32.636 0 019.567-23.049z" fill="#1E1F2A" stroke="#333746" stroke-width="2"/><path d="M605.16 278.926H468.929a7.784 7.784 0 01-7.782-7.777 7.78 7.78 0 017.782-7.777H605.16a7.793 7.793 0 015.508 2.275 7.778 7.778 0 011.689 8.48 7.789 7.789 0 01-4.217 4.209 7.794 7.794 0 01-2.98.59zm32.099 26.247h-168.33a7.78 7.78 0 01-7.782-7.777 7.78 7.78 0 017.782-7.777h168.33a7.782 7.782 0 017.781 7.777 7.782 7.782 0 01-7.781 7.777z" fill="#1965E8"/><path d="M438.781 231.563H313.184a3.728 3.728 0 00-3.729 3.727v97.962a3.728 3.728 0 003.729 3.727h125.597a3.727 3.727 0 003.728-3.727V235.29a3.725 3.725 0 00-3.728-3.727z" fill="#94A0CE"/><path d="M376.08 310.226c28.7 0 51.966-23.252 51.966-51.935 0-28.683-23.266-51.936-51.966-51.936-28.7 0-51.966 23.253-51.966 51.936s23.266 51.935 51.966 51.935z" fill="#1965E8"/><path d="M347.294 336.979a51.497 51.497 0 0112.517-5.755 8.306 8.306 0 01.019-4.571 9.153 9.153 0 018.865-6.433h12.662a9.19 9.19 0 015.511 1.749 9.175 9.175 0 013.373 4.694 8.27 8.27 0 01.019 4.561 51.645 51.645 0 0112.517 5.755h-55.483zm88.312-97.963a11.224 11.224 0 00-3.428-2.785 8.123 8.123 0 00-3.738-.922 8.524 8.524 0 00-4.962 1.669c-3.952 2.795-6.69 8.821-6.69 15.798 0 8.753 4.311 16.012 9.914 17.274.57.127 1.153.193 1.738.194 6.418 0 11.652-7.831 11.652-17.468 0-5.589-1.758-10.567-4.486-13.76zm-106.731-2.455h-.009a8.328 8.328 0 00-4.321-1.252 8.14 8.14 0 00-3.739.922 11.247 11.247 0 00-3.427 2.785l-.01.01c-2.719 3.192-4.476 8.171-4.476 13.75 0 7.531 3.184 13.955 7.651 16.41a8.295 8.295 0 004.001 1.058c.311 0 .623-.02.932-.059h.009c5.982-.718 10.71-8.248 10.71-17.409 0-7.336-3.039-13.634-7.321-16.215z" fill="#333746"/><path d="M321.272 267.516a1.45 1.45 0 001.183-.607c.135-.188.223-.405.258-.633a1.47 1.47 0 00-.06-.681 56.73 56.73 0 016.769-49.869 56.82 56.82 0 0169.238-20.49 56.79 56.79 0 0120.884 15.235 56.751 56.751 0 0112.526 48.744 1.454 1.454 0 001.125 1.724 1.456 1.456 0 001.725-1.124 59.645 59.645 0 00-13.165-51.25 59.743 59.743 0 00-94.753 5.528 59.656 59.656 0 00-7.11 52.432 1.46 1.46 0 001.38.991zm283.682 135.597H420.175a7.782 7.782 0 01-7.782-7.777 7.768 7.768 0 012.279-5.499 7.78 7.78 0 015.503-2.278h184.779a7.778 7.778 0 010 15.554zm32.099 26.247H420.175a7.776 7.776 0 01-5.508-2.275 7.776 7.776 0 01-1.69-8.48 7.776 7.776 0 014.217-4.21 7.794 7.794 0 012.981-.589h216.878a7.777 7.777 0 017.197 4.799 7.765 7.765 0 01-1.689 8.48 7.774 7.774 0 01-5.508 2.275zm-32.098 68.089h-184.78a7.784 7.784 0 01-5.503-2.278 7.774 7.774 0 010-10.998 7.788 7.788 0 015.503-2.278h184.78a7.777 7.777 0 015.502 13.276 7.782 7.782 0 01-5.502 2.278zm32.099 26.248H420.175a7.777 7.777 0 01-5.503-13.277 7.787 7.787 0 015.503-2.277h216.879a7.778 7.778 0 015.502 13.276 7.786 7.786 0 01-5.502 2.278zm-290.012-82.536c18.233 0 33.014-14.772 33.014-32.994s-14.781-32.994-33.014-32.994c-18.233 0-33.013 14.772-33.013 32.994s14.78 32.994 33.013 32.994zm0 95.1c18.233 0 33.014-14.772 33.014-32.994s-14.781-32.994-33.014-32.994c-18.233 0-33.013 14.772-33.013 32.994s14.78 32.994 33.013 32.994zm257.913 56.288h-184.78a7.784 7.784 0 01-5.503-2.278 7.774 7.774 0 010-10.998 7.788 7.788 0 015.503-2.278h184.78a7.777 7.777 0 015.502 13.276 7.782 7.782 0 01-5.502 2.278zm32.099 26.247H420.175a7.778 7.778 0 01-5.503-13.276 7.788 7.788 0 015.503-2.278h216.879a7.777 7.777 0 110 15.554zm-290.012 12.565c18.233 0 33.014-14.772 33.014-32.994s-14.781-32.994-33.014-32.994c-18.233 0-33.013 14.772-33.013 32.994s14.78 32.994 33.013 32.994z" fill="#333746"/></svg>