<svg width="1056" height="551" fill="none" xmlns="http://www.w3.org/2000/svg"><path d="M85 349l3-2.5 2 2.5 1 1v3l1.5 2.5c.167-.5 1.2-1.9 4-3.5 1-1 4 0 4.5 0s1 1 2.5-.5c0-1.2 1.333-4.5 2-6 .5.333 1.6 1 2 1 .5 0 3 2.5 3.5 3.5.4.8.833 1.333 1 1.5l2.5-2.5c.8-.8 1.667.333 2 1l3 2 2-2-2-2c-1.5-.667-4.2-2.8-3-6l1.5-1.5c1.333.5 4.2 1.5 5 1.5.8 0 3 .667 4 1 .5.833 1.6 2.5 2 2.5.5 0 2.5 2 3.5 2s2.5-.5 3.5-2 1-1 1-2.5 2-1 4.5-2.5 1-1 1-1.5 2.5-1 3.5-1.5 2-2 2-4V326c0-3.5 0-1.5-1.5-2.5s-1.5-2.5-1.5-3-1-2.5-2.5-4.5 0-2 0-3.5c0-1.2-.667-2.167-1-2.5-.5-1-1.5-3.1-1.5-3.5 0-.5-3-.5-4-1s1-3.5 0-4-2-.5-3.5-1 1-3.5 3.5-9c0-1 1-3 1-6.5l-2-3.5 3-3.5c.333-.5 1.2-1.7 2-2.5 1-1 1.5-1 2.5-1.5s1.5-1.5 2.5-2c.8-.4 1.333-2.167 1.5-3l-1.5-2h-1c-1.333-.5-4.4-2.1-6-4.5-.8-1.2-1-1.833-1-2-1.333-.167-4.1-1.3-4.5-4.5-.5-4 2.5-1 3.5-2s2.5-1 3-2l1-2c-.333-.333-.5-1.6 1.5-4s2.5.333 2.5 2c-.167.667-.4 2.2 0 3 .5 1 1 1 2 2 .8.8 1.667.333 2 0 .5.167 1.9.4 3.5 0 2-.5.5-1.5 2-3s1-1.5 0-2 0-3 0-5.5.5-1.5 1-3 1.5-2.5 2-4 1.5-2 4-4 2-2.5 4.5-4 2-2.5 1.5-4.5.5-2.5 0-3.5c-.4-.8-1.833-1-2.5-1-.5-1-1.5-3.5-1.5-5.5s1-2.5 1.5-2.5c-.833-.833-2.6-2.8-3-4-.5-1.5 1.5-3 1.5-5s3.5-1.5 4-2.5c.4-.8 1.5-.333 2 0-.167-1-.4-3.4 0-5 .5-2 2.5 0 3.5 0 .8 0 1.333-1.667 1.5-2.5l3.5-3.5h4c.667-.833 2.4-2.8 4-4 2-1.5 3.5-4.5 4.5-4.5s7-1 7.5-1 3-2.5 4.5-2.5c1.2 0 1.833.667 2 1 1.333.833 4.2 2.8 5 4 .8 1.2 2.667 1.833 3.5 2-.167-.5-.4-2.6 0-7s1.5-3.5 2-2.5c.833-.667 2.8-2 4-2h22.5c1.2 0 3.5.667 4.5 1 1.333.333 4.5 1 6.5 1s.833-1.333 0-2l4-13.5c2.333-.167 6.9-.7 6.5-1.5-.4-.8-.167-2 0-2.5l3.5-3.5 2-5.5h3.5l2.5-2 5-1.5c2.333-2.833 7.2-8.7 8-9.5.8-.8 2.667-2.333 3.5-3 2.167 0 6.7-.2 7.5-1 1-1 1.5-1 4.5-3.5s0-2.5 0-4.5c0-1.6 1.667-3 2.5-3.5 1.167-1.333 3.8-4 5-4h6c2-.167 6.1-.4 6.5 0 .5.5 3.5 2 4.5 2.5s4.5 4 7 5 0 3 0 4.5-1.5-1.5-2.5-2.5c-.8-.8-2.333-.333-3 0v6c1 1.5 3.2 4.6 4 5 1 .5 1.5 4 2.5 5 .8.8.333 5 0 7v10.5c0 .4 1.333 5.167 2 7.5l-1 8.5c-1.5 2.333-4.5 7.2-4.5 8 0 .8-3 2.333-4.5 3l-6.5.5-6-4.5-4.5-2.5-1.5-5.5c-.833-1.167-2.7-3.8-3.5-5-1-1.5-1-1-1-2.5s-1.5-4-1.5-5v-4c-.5-1.333-1.5-4.3-1.5-5.5V143c0-1.2-1-.5-1.5 0v4c0 .5-1.5 4.5-1.5 6s-1 4.5 0 5c.8.4-1 2.833-2 4-1.833 1-5.7 3.1-6.5 3.5-.8.4-2 1.833-2.5 2.5-1.167 1.5-3.8 4.7-5 5.5-1.5 1-1 1.5-1 2.5s1 2.5 2.5 3.5.5 7.5 0 10.5 1.5 1.5 2.5 3 2 .5 3.5 0c1.2-.4 1.5-1.167 1.5-1.5-.167-1.167-.7-3.7-1.5-4.5-1-1 0-1.5 0-3s.5-3 1-4.5 2-1 3.5-1c1.2 0 3.167.667 4 1-.667 2-1.8 6.3-1 7.5 1 1.5 1.5 3 2.5 4s1 3 1.5 4c.4.8 2.167 2.667 3 3.5l2-3.5 2.5-7 7.5-1h3.5c.4 0 2.833 2 4 3 .833-.5 3-1.6 5-2 2.5-.5 2 1.5 3 2 .8.4 1 3.5 1 5l-1 1c0 1.167.2 3.7 1 4.5 1 1 2-2 3.5-3.5s6.5-5 7.5-6 .5-4.5 1.5-5.5 4-3 6-3 4-3.5 5-4c.8-.4.333-4.167 0-6 1.5 1.833 4.7 5.6 5.5 6 .8.4.333 2.833 0 4 .667 2.5 1.6 7.7 0 8.5-1.6.8-2.333.333-2.5 0-1-1-3.3-3-4.5-3-1.5 0-3.5 2.5-4.5 3s0 2 1 4c.8 1.6-1 2-2 2 .667 1.167 2.3 3.8 3.5 5 1.2 1.2 2.833.5 3.5 0 2.167-1.167 6.7-3.5 7.5-3.5 1 0 1 1 1.5 2 .4.8 1.5-.333 2-1h5l10 2.5 6 2.5h2l5-2.5 4 1.5c0 .833-.1 2.7-.5 3.5-.4.8-2.5 1.667-3.5 2l-3 1 1.5 3.5h12l3 3c3.667 0 11.2.2 12 1 .8.8.333 2.333 0 3l-2 3.5 1 2 3-1 6.5-2v-2.5l1-7 8 1.5 10 13.5 6 10 4 9.5 6.5-5.5-2.5-4 1-3.5-2.5-5-1-5 4.5-1 4-7.5-2.5-4.5 2.5-3 7.5-1.5 14.5-16.5h2.5l2-6h4.5l1.5 4-6 3 4.5 7.5v8l-7.463 7.5.963 4.5-1.5 6.5-8.5 19.5-1 6-1 8-7 9-9.5 5.5-12-4-1 4 15.5 9.5 7-5.5 4.5-1 9.5-8.5.5-9 3-4h8l2.5 7-5 8.5 2.5 8 5.5-1c-.333 0-1-.2-1-1s-2-2.333-3-3l5-6-1-8.5-6.5-8h-8l1-10 7-10.5v-14.5l3.5-4.5 5.5-3 2.5-6 3-1.5-1.5 9-4 4.5v6l10 10v-5l-4.5-6.5 1.5-4.5 5 3.5 2.5-5h6.5L534 224h7l-7-10.5v-12l3.5-4 22 2 4.5-1c-.833-1.167-2.5-3.9-2.5-5.5v-4l2.5-3.5 3-3.5 6-1.5 8-5.5 9-1 1-5 7.5-1 2 3.5c2 .5 6.5.9 8.5-1.5 2.5-3 4 0 5.5 0 1.2 0-.5-.667-1.5-1v-4c2.333 0 7-.2 7-1 0-1-1.5-6.5-1.5-8s7-9.5 8-9.5h4c.8 0 2.333 1.333 3 2L632 153l7 1.5v7c.667.333 2 .8 2 0 0-1 3.5-3 5-3s5.5-1 6.5-1c.8 0 2.333.667 3 1 1.833 2.167 5.8 6.8 7 8 1.5 1.5 2.5 3 2.5 3.5v4c0 2.5-1.5 3.5-2.5 5.5s-3.5 7.5-4.5 9-1 2-2.5 4-2 2.5-4 4.5-1.5 2.5-2.5 4-1.5 2-3 3.5c-1.2 1.2-3.833 3.5-5 4.5v5c.5-.5 1.9-1.8 3.5-3 2-1.5 3-1 4.5-2s3-1.5 5-2.5 2-1 5-2 5-1.5 6-2.5c.8-.8 2.333-2 3-2.5.833 1.167 2.6 3.8 3 5 .5 1.5 1.5-1.5 2-2.5.4-.8 1.833-2.667 2.5-3.5 1.167-.5 4.3-1.5 7.5-1.5h7.5c2 0 2.167 1 2 1.5.5 1.167 1.6 3.5 2 3.5.5 0 2 1 4 0s6.5-1.5 7.5-2.5c.8-.8 3.667-1 5-1v-4c0-1.5.5-7.5 0-10s3 1 5 2.5c1.6 1.2 3.667 1.5 4.5 1.5l6-3c.8-.4 3.667.833 5 1.5l8 10v2.5l-3 3.5 3 1.5c1.5 2.5 4.7 7.6 5.5 8 .8.4 3.667 1.167 5 1.5 1.833.333 5.5.8 5.5 0s1-10.667 1.5-15.5l8.5 1 2-1c.8-.4 2.333-3.5 3-5h10c-.333-.833-1-2.8-1-4 0-1.2 2.333-2.5 3.5-3l3.5-1-1-2c-.5-.833-1.5-2.6-1.5-3 0-.5-.5-3.5-2-3.5s-2.5-.5-4.5-1c-1.6-.4.667-2.5 2-3.5l2.5-2.5c-.667-1.5-2.1-4.5-2.5-4.5-.4 0 10.167-5 15.5-7.5h4.5c-.667 1-2.1 3.3-2.5 4.5-.5 1.5 0 2 4.5 0 3.6-1.6 2.5.667 1.5 2 .5 1.667 1.6 4.9 2 4.5.5-.5 2-2 4-3.5s0-2 0-4.5-1.5-4-2-5 2-2.5 3-4.5c.8-1.6 2.333-.667 3 0l7 2c-.333.333-1.2 1.3-2 2.5-1 1.5 0 1 0 2 0 .8 3 .333 4.5 0l3-3.5h7.5c1.5 0 2.5 1 4 1.5s3.5-.5 3.5-1.5 2-4 2.5-5 1-5 1.5-5.5c.4-.4 4.5-4.167 6.5-6l7.5-4.5h6.5c2 1.5 6.2 4.5 7 4.5h2.5l6-2.5 4.5-5.5c.667-1.333 2.2-4.3 3-5.5.8-1.2.333-2.167 0-2.5 2-1 6.4-3.3 8-4.5 1.6-1.2.667-2.167 0-2.5v-7.5c0-2 1 1 2.5 2 1.2.8 3.833 1.333 5 1.5.833.167 2.5.4 2.5 0s2.333-.833 3.5-1l3-.5 2-1v-5c0-1.5-.5-.5-1.5-1.5s-1.5-1-2.5-1.5c-.8-.4-2-.5-2.5-.5h-4.5l-3-2.5-1-2.5 6.5-6.5 5-.5-1.5-4 2-3.5 3-2.5 2-4.5 5-3 20.5-12L962 46c2 .667 6.2 2.1 7 2.5 1 .5 3.5.5 5 1 1.2.4 2.5.5 3 .5.833-.333 2.9-1.1 4.5-1.5 1.6-.4 1-1.167.5-1.5-1.333-.5-4.2-1.5-5-1.5-1 0-1.5-1-3.5-1.5-1.6-.4-.667-1.833 0-2.5l3-4 .5-6 14.5-7.5 4 5v2.5l-3 2 4 2c.8.4-.333 1.833-1 2.5v3.5h7.5c1.6 0 .67 2.667 0 4 .67.167 2.2.3 3-.5.8-.8 3.67-.334 5 0l-1 5h-4v3l-5 5-5.5 3.5H989l-3.5 2.5-.5 3v6.5c-1 .167-3.4-.1-5-2.5s-1-.667-.5.5L977 73c-.667-.333-2.3-1.2-3.5-2-1.2-.8-1.5-.334-1.5 0v4.5c0 1.5 1 2.5 1.5 2.5.4 0 1.833.666 2.5 1 1.167-.334 3.6-1 4-1 .5 0 1 4 4 2.5 2.4-1.2 2 1.5 1.5 3l.5 5V93l-4 5-4 2v3.5l4 2.5c.167-.5.6-1.7 1-2.5.5-1 1.5-2 2.5-2.5.8-.4 2.667.5 3.5 1 .5-.5 1.7-1.8 2.5-3 1-1.5 3-1 4-1 .8 0 3.667.667 5 1h14l2 6.5c-1 .667-3 2.1-3 2.5 0 .4-2.67 1.5-4 2-1 .667-3.1 2.2-3.5 3-.4.8.17 1.667.5 2l3 1.5 4 43 3 12.5h-7c-.4 0-1.5 1.667-2 2.5l-3 3.5-1 17-6.5-5.5 2.5 10.5-4 2v9.5c3.167 6 9.7 18.4 10.5 20 1 2 2 0 2.5 1.5.4 1.2.83-.5 1-1.5.5-.667 1.8-2 3-2 1.5 0 2-.5 3 0s.5 2 1 3.5 2.5 2.5 3.5 3.5 2.5 1 3 2 4-1 4.5-1 2.5 2 4 3c1.2.8 1.17 2.667 1 3.5-.83.167-2.8.5-4 .5-1.2 0-1.17-1-1-1.5l-1.5 1.5c.33.833 1.1 2.7 1.5 3.5.4.8 1.83 3.333 2.5 4.5l3 4.5 3 1.5c1.33.167 4.3.7 5.5 1.5 1.5 1 0 3.5 0 4.5 0 .8-1.33 1.667-2 2-.5 1.167-1.5 3.7-1.5 4.5 0 .8-.67 2.667-1 3.5.5.667 1.7 2.2 2.5 3 .8.8 6 6.667 8.5 9.5l-2 1-2 3v6c0 1.5 1 1 2 1.5s3.5 3.5 4 4.5 1.5 4 1.5 5v6.5c0 1 1 5 1 6v6.5l-4.5-2.5-15-10-15.5-10.5-11.5-8.5-8.5-9-5.5-6.5-1-10-2-2c-.833-.5-2.6-1.8-3-3-.4-1.2.167-2.5.5-3l.5-2c-.167-.667-.5-2.2-.5-3 0-1 1-1 1.5-1.5s2-2.5 2-3c0-.4-.667-2.167-1-3l-2.5-8-3-16V219c0-.5-1-2.5-2.5-4-1.2-1.2-.5-2.167 0-2.5V208l1.5-4.5V200l-1.5-1v-3c0-.8-1-1.333-1.5-1.5l-3-1-3.5-3.5-1.5-3 .5-3.5c.667-1.333 2-4.1 2-4.5 0-.4-1-.167-1.5 0l-3.5.5-3.5 4c-.333 1-1 3.1-1 3.5 0 .4.667 1.833 1 2.5l3.5 3.5 3 3v4l-1.5 2 1.5 6.5v6.5c0 1.2-1 2.167-1.5 2.5H967c-.4 0-1.167-.667-1.5-1l-4-3-1-3.5-3.5 3.5-3 1.5-3.5 4.5-3 3.5v11.5c0 .8 2 3 3 4v3l1 15.5 1.5 2 1.5 1 2.5-1 2.5-2 1 1 1 2.5-1 2.5-2 1.5-2.5 2h-2v2.5l-1 6.5-1.5 2.5-2.5 2.5c-.833 0-2.7-.1-3.5-.5-.8-.4-.667-.833-.5-1 0-.833.5-3.2 2.5-6 2.5-3.5-3-.5-3.5 0-.4.4-2.167 1.5-3 2-1 .833-3.1 2.5-3.5 2.5-.5 0-2.5 1-3.5 1.5l-3 1.5c-.333 3-1.2 9.1-2 9.5-.8.4-1.333.833-1.5 1-1.5.833-5 2.8-7 4-2 1.2-2.167 2.167-2 2.5L917 302h-6c-1.5 1.167-4.6 3.7-5 4.5-.4.8-2.833 3-4 4-1.167 1.167-3.6 3.7-4 4.5-.4.8-2.5 2-3.5 2.5l1.5 1.5c.5.5 0 2 0 2.5s0 1.5-1.5 8 0 2.5-.5 4.5.5 5 .5 7v5c0 .8-1.667 7.333-2.5 10.5v8.5c0 1.5-1 6-1 7s-.5 2-1.5 4-1.5 2-3.5 4 0 2.5-1 4-2 3-2 4.5v4c0 .8.667 2.333 1 3l2 1 3.5-.5 6.5-3.5c.5.833 1.5 2.6 1.5 3 0 .4 1 3.833 1.5 5.5-1-3.5 1.4-1.9 3-3.5s2.667-.667 3 0c.5.833 1.7 2.7 2.5 3.5.8.8.333-.667 0-1.5.333-1.5 1-4.7 1-5.5 0-.8.667-3.333 1-4.5.667-.833 2.3-2.9 3.5-4.5 1.5-2 4.5-1 6-1h3c1 0 4.5.5 6 1s3.5 1.5 5 2c1.2.4 1.833 1.167 2 1.5 0 .667-.1 2.2-.5 3-.5 1 0 2.5.5 3.5s4 2.5 6.5 2.5c2 0 2.833 1.333 3 2l1.5 3.5c.333 2.5 1 7.7 1 8.5 0 .8 1.333 3.667 2 5l2 5c1 1.667 3.2 5.2 4 6 1 1 3.5 5.5 4 7s2.5 4.5 3 6l2 6v3.5l-1 11.5 1 7.5v16c-.333 1.833-1 6-1 8s-.667 5.5-1 7c-.333 3.333-1 10.2-1 11 0 1-2 14.5-2.5 15.5-.4.8-.167 2.333 0 3-.667 1.167-2.1 3.7-2.5 4.5-.5 1-3 4-3.5 5-.4.8-2.167 2-3 2.5l-3 2.5c-2.167.333-6.8 1-8 1H933c-1.6 0-1.333 1.667-1 2.5l-1.5 2-5.5 1c0-.5-.1-1.8-.5-3-.5-1.5-1-1.5-2-2.5s-8.5-6.5-9.5-9 1-2.5 1-4.5 0-2 1-3.5 2.5-4.5 4.5-4.5 4 0 5.5.5c1.2.4 4.167-.167 5.5-.5l-3-6c-1.5-3 0-1.5 0-9V502l-1.5-5c0-1.667-.3-5.5-1.5-7.5-1.5-2.5 1.5-2.5 1.5-3.5v-2.5l-2.5-3.5-2.5-2h-1.5l-2 2-3.5 3.5c-1.5 1.5-2 1.5-2.5 2.5-.4.8-.833 2.333-1 3l-4 4c-.8.8-1.667 1-2 1-.5.333-1.6 1.2-2 2-.5 1-4.5 1-5.5 1s-1.5.5-2.5 0-1.5-1.5-3.5-3-3-3-4-4.5 0-2.5 0-3.5c0-.8-2.333-.333-3.5 0-.667 0-2.4-.2-4-1-2-1-3-.5-4-1.5s-1.5 1.5-4 1.5c-2 0-1.833-1-1.5-1.5h-3.5l-5 2.5c-.8.4-1.667.167-2 0L826 452h-1.5c-.833 0-2.7.2-3.5 1-1 1-4.5 0-5.5 0s-3.5-1-5-1c-1.2 0-3.833-1-5-1.5-.667.167-2.4.7-4 1.5-2 1-3 1.5-5 2s-2 1.5-5.5 4-2 2-4.5 3.5-1 1.5-2.5 3-2 4.5-2 5.5 2 0 4.5 1c2 .8 2.5.333 2.5 0l2 4v4.5c-1 1.167-3.3 3.8-4.5 5-1.5 1.5 0 2-1 4s0 4 0 5.5-.5 3-1.5 4c-.8.8.667 3.333 1.5 4.5l1 4.5-2.5 1.5-3 1.5-1 3-1 3.5c-1 0-3.5-.2-5.5-1s-4.5-1-5.5-1h-6.5c-1.333 1-4.2 3-5 3-1 0-3-2-3.5-2h-9l-2 2-6 5.5-1.5 4c-1.333.333-4.3 1-5.5 1-1.2 0-3.833 2-5 3-1.5 1-4.7 3-5.5 3-.8 0-2.333 1.333-3 2l-22-2-1-2-1-3h-5c-3 0-3-1-4.5-1-1.2 0-1.167-1.333-1-2-1.5 0-4.8-.2-6-1-1.5-1-3.5 1-4.5 1s-2.5-1-3.5-2c-.8-.8-2.667.333-3.5 1-1 .667-3.2 2.2-4 3-1 1-2.5 0-3.5 0s-3.5 1-5 1c-1.2 0-2.5-.667-3-1-1-.333-3.2-1.2-4-2-1-1-2-1-3-2s-1.5-1-2.5-1.5.5-3.5 0-5c-.4-1.2-.833-2.833-1-3.5-.667-.333-2.2-1-3-1-.8 0-4.333-1-6-1.5l-5.5-2-5.5-2-4-2-4.5-2v5h-3v3c-.5.5-1.8 1.5-3 1.5-1.5 0 0 2.5 0 4.5 0 1.6-.667 3-1 3.5l2.5 3 1.5 2v3l-1.5 3c-.5.667-1.7 2.1-2.5 2.5-1 .5-2 1-3.5 1.5-1.2.4-1.833.5-2 .5-.833-.667-2.6-2-3-2-.4 0-2.167-.333-3-.5-1.5-.333-4.8-1-6-1h-5c-1 0-2-1-4.5-1s-1.5-1.5-2-3-1-3-1-4-3.5-1-5-1c-1.2 0-3.5-1.333-4.5-2l-6-1c-1.167-.167-3.8-.4-5 0-1.2.4-2.833 1.5-3.5 2-1.5.333-4.7 1.2-5.5 2-1 1-2.5 1-3.5 1s-2 1-4.5 3c-.5 1-3.5 0-5 0-1.2 0-1.833 1.333-2 2l-3.5 2-7.5 1.5c-.167.333-.6 1.4-1 3-.5 2-1 0-2 0s-1.5 0-7-3c-.5-.5-1.5-2.5-1.5-4V528h-2c-.5 0-1.7.2-2.5 1-1 1-1.5 1-2.5 1.5s-2-1.5-2.5-2.5-1.5 0-2.5 0-1-.5-2.5-1-1.5-1.5-1.5-3v-3.5l-2.5-1-3-2v-3c0-1.2-.667-2.5-1-3l-2.5-5c-.4-.8-1.833-1.333-2.5-1.5l-3 1H467c-1 0-3-2.5-4.5-3s-1.5-1-2.5-2 .5-1 0-2.5c-.4-1.2-.833-1.5-1-1.5l-3 1.5-2 2.5c-.667.167-2.3.6-3.5 1-1.5.5-1-3.5-1.5-5s-1.5-4.5-2-6.5-1-6.5-1.5-7.5-.5-4-1-5.5-1-3.5-1.5-5.5-1-4.5-1-5.5v-4l-3.5-5-2-4-1-3.5c.833-.833 2.6-2.5 3-2.5H426c-.5 0-3 1-4 1s-3 1.5-5.5 1.5h-3l-4.5-1.5c.5-.5 1.7-1.8 2.5-3 1-1.5-1-3-1.5-4-.4-.8-1.5-.333-2 0-1.333-.167-4-1.1-4-3.5s-1.333-2.667-2-2.5h-4c-1.6 0-2.333-.667-2.5-1 0-.833.2-2.7 1-3.5 1-1 1.5-1.5 1.5-2.5s1-3.5 1-4 .5-4.5 0-5-2.5-.5-3.5-1-2-.5-4-1.5c-1.6-.8-.667-2.667 0-3.5-1.667-.667-5.1-2-5.5-2-.4 0-2.5.667-3.5 1H368l-5-2-5-1-2 1-2 1-3-2-4.5-2c-1.167-.333-3.7-1.1-4.5-1.5-.8-.4-2.667-.5-3.5-.5-1.333-.167-4.2-.5-5-.5h-3l-3.5-3-2.5-1-2.5 2.5-1 4c.167.5.6 1.6 1 2 .5.5 1 2 2 4s-1 2-1.5 2H320c-1.5 0 0-1.5 0-2s-3.5-1-5.5-1c-1.6 0-2.667 2-3 3l-.5 3.5h-7.5c-2 0-.5 1.5-.5 3.5s.5 1 1 2.5 1.5 2.5 2.5 4 .5 2.5 1 3.5c.4.8-.167 2-.5 2.5-.833.833-2.7 2.6-3.5 3-1 .5-1.5 0-2 0h-2c-.5 0-2.5-1-3.5-1.5-.8-.4-1.333-1.833-1.5-2.5l-3 .5c-.667.167-2.2.5-3 .5-.8 0-1-.333-1-.5-.667-1-2.2-3.1-3-3.5-.8-.4-.333-2.167 0-3-.167-1.333-.5-4.1-.5-4.5 0-.5-2-2-2.5-3-.4-.8-1.833-.667-2.5-.5-.167.5-.7 1.5-1.5 1.5H276c-.667-.667-2-2.1-2-2.5 0-.4-1.333-2.5-2-3.5-1.5-.333-4.6-1-5-1h-2.5c-.5 0-2 2-2.5 2.5-.4.4-1.5-1.5-2-2.5l-1-4v-2c0-.4-1.333-.833-2-1-.833.333-2.6 1-3 1h-2.5c-1 0-1-2 0-3s1-2.5 1-4-.5-2.5-1-4.5c-.4-1.6-.833-3-1-3.5-.667-.667-2.1-2-2.5-2-.4 0-2.167-1-3-1.5.333-.5 1.1-1.6 1.5-2 .4-.4-.833-2.167-1.5-3l-2-.5c-.5 0-1.6.1-2 .5-.4.4-1.5-.167-2-.5-.333-.833-1.2-2.7-2-3.5-1-1 0-2 0-3 0-.8-1-1.333-1.5-1.5-2 .5-6.2 1.5-7 1.5-.8 0-2.333.667-3 1-.667-.5-2.1-1.7-2.5-2.5-.5-1-2.5 2.5-3 2.5-.4 0-3.5.667-5 1h-1l-1 1c-.667.833-2.1 2.7-2.5 3.5-.5 1-2.5 2-3 2s-2-2-3.5-3 1-1.5 1.5-3.5.5-2 1-2c.4 0-1.833-2.667-3-4H198c-2 0-1.5.5-4.5 2.5s-2 1-2.5 1.5c-.4.4-1.167 1.5-1.5 2l-.5 3.5h-3c-.5 0-4.5 2.5-6.5 3s0 1.5 0 2 2 2 3.5 3-.5 1.5-1 2-1.5 2-3 2.5c-1.2.4-1.167 2.167-1 3l3.5 1.5c.667 1 1.9 3.2 1.5 4-.5 1 0 4 0 4.5s-1.5 4.5-1.5 5c0 .4-.667 2.833-1 4H177c-1 0 1 4 1.5 4 .4 0-.167 1.667-.5 2.5h-14c-1-.333-3.1-1.1-3.5-1.5-.4-.4-1.833-.5-2.5-.5-.5.333-1.6 1.1-2 1.5-.5.5-3.5 0-6 0-2 0-3.167.667-3.5 1-.667 1.833-2 5.6-2 6v9c-1 .833-3.4 2.8-5 4-2 1.5-2.5 2.5-3 3.5-.4.8-.5 1.667-.5 2-.167 1.5-.5 4.8-.5 6 0 1.5-.5 4.5-.5 5v5c0 1.5-1.5 2.5-2 3.5s-1.5 1.5-3 1.5-2.5-1.5-3-2.5-4.5 2.5-5 2.5-2.5-1.5-3.5-3-1-3.5-.5-4.5 1-4 1.5-5.5-1-3-1-4c0-.8-1.333-2-2-2.5-.833-1.667-2.5-5.1-2.5-5.5 0-.5 1-2 1.5-3s.5-2 0-2.5-.5-2.5-1-3.5-2-3-3-4l-3-3c-1-1-3.5-1-3.5-1.5v-5.5c0-1-.5-3-.5-3.5v-4c0-1-1.5-1.5-2-2s-2-1.5-2.5-2-2-2.5-2.5-3c-.4-.4-1.167-2.5-1.5-3.5l.5-2c-1.667-2.833-5-8.6-5-9 0-.5-1.5-1-2-1s-3-.5-3.5-1 0-2.5 0-3.5.5-4 .5-5 1-3.5 1-5v-4.5c0-.8-.667-3-1-4v-5c0-1-2.5-2-3-2-.4 0-.5-2.667-.5-4l1-1.5v-4c0-.8.667-3 1-4z" fill="#333746"/><path d="M233.5 175.5l-7.5-1v4.5c0 1-1.5 1.5-1.5 3.5v2.5c0 .5-2 1-3.5 3s-1.5 1.5-2.5 2-.5 1.5-1 2.5c-.4.8.167 1.333.5 1.5h3c.5 0 2 .5 2.5.5.4 0 2.167 1.333 3 2 1 .167 3.1.6 3.5 1 .4.4 1.167-.833 1.5-1.5l2-1.5 1.5-1.5v-7c0-1.2 1.333-1.5 2-1.5l.5-2V179l-.5-1-2-2.5h-1.5z" fill="#1E1F2A"/><path d="M226 172v2.5m0 0l7.5 1h1.5l2 2.5.5 1v3.5l-.5 2c-.667 0-2 .3-2 1.5v7l-1.5 1.5-2 1.5c-.333.667-1.1 1.9-1.5 1.5-.4-.4-2.5-.833-3.5-1-.833-.667-2.6-2-3-2-.5 0-2-.5-2.5-.5h-3c-.333-.167-.9-.7-.5-1.5.5-1 0-2 1-2.5s1 0 2.5-2 3.5-2.5 3.5-3v-2.5c0-2 1.5-2.5 1.5-3.5v-4.5z" stroke="#444A62"/><path d="M906 38c0-2.4 1.667-1 2.5 0h3l2 3v3.5l-2 2.5-3 3v4.5H906l-2.5-4.5-3-3 3-2.5c.833-1.167 2.5-4.1 2.5-6.5zM664.5 188.5c.4-.8 1.167 0 1.5.5h1.5c.4 0 1.167.333 1.5.5l.5 1.5c-.167.5-.6 1.6-1 2-.5.5-1 .5-1.5.5s-1 0-3-1c-1.6-.8-1-1.333-.5-1.5.167-.5.6-1.7 1-2.5zm-67.5-90V94h1c.667-.833 2.1-2.5 2.5-2.5.4 0 2.167-1.667 3-2.5l2 2.5c.333.833 1.5 3.5 3.5 7.5s1.167 3 .5 2H608c-.5.5-1.5 1.7-1.5 2.5v2c0 1-2 1-3 2.5-.8 1.2-1.333.5-1.5 0-1.333.167-4.2.4-5 0-1-.5-1.5-.5-2-1.5s-1-2-1-3 1-2.5 1.5-3.5c.4-.8 1.167-1.333 1.5-1.5zm-179 77V171c0-.5-2.5-.5-2.5-1.5v-4c.333-.833 1.3-2.4 2.5-2 1.5.5 3 1 5 0s4.5-2 4.5-2.5c0-.4.666-2.5 1-3.5.833-1 2.6-3 3-3 .5 0-.5 1.5 0 2 .4.4 1.5-1.167 2-2-1.334-1.667-3.2-4.5 0-2.5s6 .833 7 0c1 0 2.7-.3 1.5-1.5-1.2-1.2-1.5-2.5-1.5-3l9.5-2 4-1.5v-1.5h3.5l1-4.5 3.5 1.5 4.5-2.5h3c1.6 0 3-1 3.5-1.5.333-1 1.2-2.9 2-2.5.8.4 3 1.833 4 2.5l2.5-1.5c.666-.5 2.3-1.2 3.5 0 1.5 1.5 2 3 3 3h13l2-1.5 4-1.5c.666.5 2.1 1.5 2.5 1.5.5 0 2 0 1 2.5s.5 3-2.5 4.5-3 3-5 3h-7.5c-7.5 0-9-1-11.5 0s-4.5 0-6 1-4 0-5 1 1 3-2 3h-4.5c-.167.5-.7 1.5-1.5 1.5s-2.334-1-3-1.5c-1.5 1.5-1.5 4-2 4-.4 0-1.167.667-1.5 1l-1-1-2.5 1c0-.333-.2-.8-1 0-.416.416-1.887 1.481-2.711 2.126.27-.056.512-.098.711-.126-1.68.96-1.471.722-.711.126-1.312.273-3.294.879-4.289 1.874-1.5 1.5-3.5 2.499-4 1.5-.5-1-1.5-4.5-2-3-.4 1.2-.5 3.167-.5 4 .5.5 1.2 1.6 0 2-4 1.5-5 2-6 2.5s-3 1.5-4 3-2 1-2 3.5-1 3-1 5.5-1 8-1 9v4c0 2-1.5 3-2.5 2s-2-2-2.5-2-1.5-1-2.5-2.5-1.5-2.5-2-3l-1.5-1.5V182c-.834.167-2 .1 0-1.5s2.5-4 2.5-5zm-40.5 7c1.5-.333 4.6-1 5-1h1l1.5 2.5c.667.833 2 2.7 2 3.5 0 .8-.667 2.667-1 3.5h-3.5c-1 0-2.5-.5-3.5-1.5s-1.5-1-1.5-3v-4zm51.5 19c.167-.333.8-1 2-1l2.5 1v8c0 1.2-1 1.167-1.5 1-1 0-3.2-.2-4-1-1-1-1-2-1-3v-4c0-1.2 1.333-1.167 2-1z" fill="#333746"/><path d="M250.5 202.5l-.5 2v2l-4 2v1.5l1 1c.333 0 1.2.1 2 .5 1 .5 1.5 0 2.5-.5l1-.5 1-1 1.5-1c-.333-.333-.9-1.1-.5-1.5.5-.5.5-2 1-3s1-1.5 1.5-2 .5-1 1.5-1.5 1-1 2-2 1.5-1.5 2.5-2 1.5-1.5 1.5-2 1-1.5 1-2.5c0-.8-.667-1.667-1-2-.5-.333-1.6-1.1-2-1.5-.4-.4-1.167-.833-1.5-1h-2l-1.5 1.5c-.5.5-1 1.5-1.5 1.5s-1.5 2.5-2.5 3-1 1-1 1.5-.5 1-.5 1.5-1 2-1 2.5c0 .4-.333 1.167-.5 1.5v2z" fill="#1E1F2A" stroke="#444A62"/><path d="M114 165c-.8-1.2-3.667-5.833-5-8l1-2h2c.5 0 4.5-.5 6 0s1 3 1 4 2 3.5 5 3.5c1.5-1 .5-2.5 1-3.5.4-.8 1.833 2 2.5 3.5v7.5c0 3 .5 5 0 6-.4.8-1.167 1-1.5 1-.833.833-2.7 2.8-3.5 4-1 1.5-2-1-3.5-3s-1.5-3.5-2.5-6.5-1.5-5-2.5-6.5z" fill="#333746"/><path d="M661.5 505.5l-5.5 1-2 1v3h8.5c2.5 0 3.5-1 3.5-1.5s3-1 5-2.5 1-1 1-2.5 0-2 .5-2.5 2-2.5 4-3 1.5-1.5 2-2.5 2-1.5 2.5-3 1 0 2.5 0c1.2 0 1.833-1.333 2-2 .667-.667 2.1-2.2 2.5-3 .4-.8.5-1.667.5-2l3-2 1-2c.167-.667.5-2.2.5-3v-2c.333-.167 1.2-.7 2-1.5 1-1 1-1.5 2-3.5s0-1.5 0-3 .5-2.5 0-3-1-4.5-1-6.5V448l-2-1-3.5 3c-.5 1.5-1.6 4.7-2 5.5-.5 1-.5 3-1 4-.4.8-.167 2.333 0 3v3.5c0 1-1 2.5-1.5 4.5s-2 3.5-2.5 5L682 480c-.5 1.5-2 2-2.5 3s-2 3-3 4.5-1.5 3.5-2 4c-.4.4-1.833 2.167-2.5 3l-6 6c-1 1-1.5 2-3 3.5l-1.5 1.5z" fill="#1E1F2A" stroke="#444A62"/><path d="M938.5 370a212.7 212.7 0 00-3.5-4.5v-1l-4 1v2.5l1.5 2c.833.667 2.5 2.1 2.5 2.5 0 .5 1.5 1.5 1.5 2.5s0 1.5-1.5 3-1 1 0 5c1 1.5 1 1 1.5 2s2 1.5 3 3.5 1 1 1.5 2.5 1 2.5 1.5 4 1.5 1.5 6 5c1.5 1 2.5 2.5 6 4.5s0 2 2 6 2 3.5 4 6 3 4 4.5 7 2 3 3.5 6 1 2.5 2 4 1 2.5 2 2.5 1.5 2 4 3.5 1.5 3 2.5 4.5c.8 1.2 2 2.167 2.5 2.5.667.667 2.4 2.6 4 5 0 1-.5 3 0 5.5s4 5 7 6 0-2.5 0-4 1-2 0-7.5 10.5 0 8-5c-2-2.8-2.5-1.833-2.5-1-1.833-.333-6.1-1.4-8.5-3-3-2-4.5-4.5-8-6.5s-2.5-3-2.5-4v-6.5c0-3.5-3.5-2.5-5-5s4-.5 5-1.5 2.5-1.5 4.5-1.5 5-.5 5-1V414l-7-3.5c-1-.5-13.5-11-14.5-11.5s-6-2.5-8.5-5.5-2.5-2.5-4-5-2.5-4-3.5-5.5-2.5-5.5-4-6.5c-1.2-.8-2.5-1.333-3-1.5-1.333-1-4.3-3.4-5.5-5z" fill="#333746"/><path d="M742.5 501l-2.5-2h-1c-.167.667-.5 2.1-.5 2.5 0 .5-.5 1-.5 2 0 .8-1 1.333-1.5 1.5H730c-.667.333-2 1.1-2 1.5 0 .5-1 1.5-1.5 2s.5 1 .5 2 1.5 1 2.5 1.5 4.5 2.5 5 2.5 2 1.5 2.5 1.5h2c1.167-.833 3.8-2.6 5-3 1.5-.5 3-1 3-1.5s3-.5 4-1l2-1c.5-.333 1.6-1.2 2-2 .4-.8.167-1.333 0-1.5-.333-.167-1.3-.8-2.5-2-1.5-1.5-.5-1-.5-1.5 0-.4.334-.167.5 0h1c.334-.333 1-1.2 1-2V499c0-.5-1-1-1.5-1.5l-2.5-2.5c-1 .167-3.1.5-3.5.5-.4 0-1.833.667-2.5 1-.333.5-1.1 1.7-1.5 2.5-.4.8-.5 1.667-.5 2zM642 480l-.06.239m0 0L641.5 482v2l-1.5 1c-.333.167-1 .7-1 1.5 0 1-.5 2 1 2.5 1.2.4 2.833.833 3.5 1 .5-.167 1.7-.3 2.5.5 1 1 2 2.5 2.5 2.5s-.5.5 1 1 3.5.5 4 .5h3.598c.468.167 1.502.6 1.902 1 .5.5 1.5.5 2 0s.5-1 1.5-2 1.5-2 2-2.5c.4-.4 1.833-2.833 2.5-4l-2-2c-.5-.5-2.5 0-4 0s-3.303.5-3.902 0c-.598-.5-2.098-2-2.098-2.5s0-1.5-1-1.5-2 1-3 1.5c-.8.4-2.667 1.167-3.5 1.5-.333.167-1.2.1-2-1.5s-1.667-2.667-2-3c.167-.333.3-.9-.5-.5s-1.04.992-1.06 1.239zM755 402h-6l-2 .5c-.667.167-2 .7-2 1.5 0 1-.5 4-.5 4.5v3c0 .4 1 1.167 1.5 1.5l3 1.5c0 .167.1.7.5 1.5.5 1 .5 4 .5 4.5v2c-.667.5-2.2 1.6-3 2-.8.4-3 1.167-4 1.5l-5-.5c-.5-.333-1.6-1.2-2-2m0 0c-.4-.8-.834-2.333-1-3l-5 4.5c-.5.5-1.5 1.6-1.5 2v3l-9.5 2h-4l-3-2-7-1-3 4-5 1h-3.5l-1 3H687c-.834.667-2.4 2.2-2 3 .5 1 0 2.5 1 2.5.8 0 2.333 1.667 3 2.5l-2 4c-.333 1.167-1 3.7-1 4.5 0 .8.667 3.333 1 4.5v1.5m49-36l-1 3.5v2c.5.5 1.6 1.8 2 3 .5 1.5 1 4 1.5 5.5s1.5 3 1.5 4c0 .8 3 1.667 4.5 2 .5.667 1.7 2.1 2.5 2.5 1 .5 2.499 2.5 3 3 .4.4.5 2.833.5 4l-3.5 2.5-2.5 1c-.833 1.5-2.6 4.5-3 4.5-.5 0-1.5 1.5-3 3s-4.5 3.5-5 4-2 1-2 2.5 2 3 2 5c0 1.6 1 3 1.5 3.5v3c0 1-2 2-3.5 3.5s-4 4-5.5 4-7 2-7 2.5-2.5 2.5-2.5 3.5-4.5 4.5-4.5 5.5c0 .8-2.667 2-4 2.5h-3l-5 3.5h-5.5c-.5-.333-1.5-.6-1.5 1v7l-2.5 1.5 2.5 3c.5.833 1.2 2.7 0 3.5-1.2.8-3.833 3-5 4l1 2m-2-69.5v1.5h1l-1-1.5z" stroke="#444A62"/><path d="M848 401l-10 5.5v4c-1 .333-3.1 1-3.5 1h-5l-12 6-4.5-2.5h-1c-1.5.5-4.6 1.5-5 1.5-.4 0-3.5.666-5 1l-4-2.5-2.5-.5H791l-4.5 2.5-4.5-2.5-2.5 1-5.5-3c-2.666 1.5-8.1 4.6-8.5 5-.4.4-1.166.833-1.5 1m0 0l3 2 3.5 2.5-2 5 2 1h1.5l4.5-1 1.5-1.5 2.5 3.5 1.5 1.5h2.5l1 1v6l3.5 2.5h1l-2.5 5c1.167.666 3.5 2.3 3.5 3.5 0 1.2 2.334 4.166 3.5 5.5l.5.5m-31-37L748.5 387l-2.5-2h-1.5l-2-.5c-.333.166-1.1.6-1.5 1-.4.4-1.5.833-2 1-.333.166-1.1.4-1.5 0-.5-.5-1-1.5-1.5-2.5l-2-4-3-2c-.833-.167-2.6-.5-3-.5-.4 0-1.833-.334-2.5-.5h-4l-2.5 3c-.166.5-.6 1.7-1 2.5s-1.5 3.666-2 5l-8 12-5-3.5-1.5 4c-.666.333-2.2.9-3 .5-.8-.4-3-.5-4-.5l-1.5 1-3 2h-2.5l-2-2.5-.5-1v-13l1.5-5 2.5-3-1.5-3-4-1.5-.5-4c-.333-.167-1-.8-1-2s.334-3.5.5-4.5c.167-1 .4-3 0-3s-1.5-1-2-1.5c-.5-.667-1.5-2.1-1.5-2.5 0-.4-1-3.167-1.5-4.5v-3.5l-1-3c.167-.834.2-2.3-1-1.5l-3 2c-.5 0-1.5-.1-1.5-.5 0-.5-3 0-3-2 0-1.6 1.334-2.667 2-3l1.5-1.5-2-3.5m0 0l-2-2.5c-.4.8-2.833 1.667-4 2l-3-2.5-8-.5v-4l5.5-8v-2c0-.8-1.333-1.667-2-2 0-.5-.1-1.7-.5-2.5-.5-1 0-2-.5-2.5s-2-1.5-2-2v-3c0-.8.334-3.333.5-4.5l-2.5-1 2.5-3c.5-1 1.5-3.1 1.5-3.5 0-.5.5-5 .5-5.5 0-.4-.666-3.833-1-5.5v-5c-.166-.833-.5-2.7-.5-3.5 0-1 0-4-1-4-.8 0-3-4-4-6 .667-1 2.1-3.1 2.5-3.5.5-.5 1.5-2 3-2.5 1.2-.4 4.834-1.167 6.5-1.5.667-.667 2-2.1 2-2.5 0-.5 0-1 .5-4 .4-2.4.834-3.667 1-4l2.5-4.5 5-3c.834-.667 2.4-2.1 2-2.5-.5-.5-2-2-2.5-3s-1.5-4-1.5-5v-3l-2-1.5c-.5-.833-1.6-2.7-2-3.5-.5-1-2.5-4-2.5-4.5s0-2-.5-2.5c-.4-.4-1.5-3.167-2-4.5l-1-2.5-.5-2m10 131l-8.5 4-3 1.5v7.5l-2 6c.667.833 2 2.7 2 3.5v7.5c0 .833-.2 2.7-1 3.5-1 1-1.5 3.5-3 5-1.2 1.2-2.5 1.5-3 1.5l-2 1.5c.667.167 1.8.9 1 2.5s-1 4.333-1 5.5l1 2c1 2 3 2.5 4 3.5s2 .5 2 3c0 2-2.333 3.167-3.5 3.5l1 4c.5 0 1.5.4 1.5 2s-.333 5-.5 6.5L651 414c-.833-.167-2.7-.9-3.5-2.5-.8-1.6-4.333-5-6-6.5l-3 2v4.5c-.166-.167-1 .1-3 2.5-2.5 3-4 4.5-5 6s-3 2.5-3.5 4c-.4 1.2-.166 3.833 0 5l-2.5 3-1-.5-2.5-7.5c0 .167-.2.3-1-.5-1-1-1 1.5-2.5 2-1.2.4-8.5.833-12 1L603 428l-1.5 4-2 3c.667 1.833 2 5.6 2 6 0 .4 1 2.167 1.5 3 .667.167 1.8.7 1 1.5s-4 2-5.5 2.5l-1 2.5c-.667.5-2 1.7-2 2.5v3.5c0 1-1 3.5-1 5.5 0 5.6-1 8.333-1.5 9h-5.5l-3 1.5 2 4.5c.167-.167.8-.1 2 1.5s3.5 3.333 4.5 4m0 0v.5m0-.5v.5m0-.5l8 5 4 3.5 3 1 3.5-.5 1 .5m-70.5 8.5c0 1.5 2 1 3 1.5.8.4 2.667 1.167 3.5 1.5 1.333.667 4.5 2 6.5 2h6.5c.833-.333 2.8-1.2 4-2 1.2-.8 2.5-2.333 3-3 .5-.5 1.7-1.8 2.5-3s2-2.167 2.5-2.5l1-1c.5-1.333 1.7-4.4 2.5-6 .8-1.6 1.667-.667 2 0l2.5-1H593v-4m-51 17.5c0-1.2.667-2.5 1-3-.167-.833 0-2.5 2-2.5 2.5 0 3.5.5 3.5-1s1-3 1.5-4c.4-.8.833-2.333 1-3l4-3.5V481c-.667-.5-2.2-2.2-3-5-.8-2.8-1.667-5.5-2-6.5.5-.667 1.2-2.4 0-4s-1.5-3-1.5-3.5c-.167-.5-.8-1.7-2-2.5s-6.167.667-8.5 1.5c-.5-.5-1.5-1.8-1.5-3s-1.333-3.833-2-5m7.5 47.5h-3l-1.5 2-.5 2-1 1h-6.5l-1.5.5v1.5m6.5-54.5l3.5-5v-2.5c-.5-.5-1.5-1.8-1.5-3s-1.333-4.167-2-5.5m0 16l-3.5 1c0 .667-.1 2.1-.5 2.5-.5.5 1 2.5 1.5 3 .4.4.833 1.167 1 1.5l-1 2.5c-.5.667-1.6 2.1-2 2.5-.4.4-.167 1.833 0 2.5.5.333 1.6 1.1 2 1.5.5.5 2.5.5 2.5 1v1.5l-3.5 7v1.5c0 .5-.5 4.5-.5 5s.5 4 .5 4.5-1 2-1 2.5-2 2-2.5 2c-.4 0-.834.667-1 1l-7 3.5m15-62.5v-5c0-.4.667-2.167 1-3l4-3.5 2.5-3.5-4-2-3.5-2.5c.333-1.167.8-3.5 0-3.5-1 0-3-1.5-1-3 1.6-1.2 3.667-3.167 4.5-4l1.5-3c0-.333-.3-1.1-1.5-1.5-1.2-.4-2.833-1.167-3.5-1.5 0-1.667-.2-5.1-1-5.5-.8-.4-2.334-2.167-3-3L527 391c-1.667-.333-5.2-1-6-1h-5l-3-4 1.5-2.5 1.5-1.5-1.5-5-1.5-2.5m21.5 62.5l-5 .5-2.5-.5-2-2.5h-6c-1.2 0-2.5.667-3 1h-1.5c-.167.667-.7 2.2-1.5 3-1 1-1 1-2.5 1H503m10-65l8-2.5c1.333.333 4 .8 4 0v-5l-4-2-1-3v-6.5m-7 19l-4.5-2.5-4.5 2.5c-1.167.667-3.6 1.9-4 1.5-.4-.4-3.5-2.833-5-4-.833-.5-2.8-1.5-4-1.5h-13c0-.667-.3-2.1-1.5-2.5-1.2-.4-4.833-1.5-6.5-2h-1.5c-1 0-3.5 2-4 3-.4.8-2.167 5-3 7l-1 3-6 1-1.5 2-1 2.5-4 2-4 3-2.5 1.5c-.333.5-1.2 1.5-2 1.5h-4L433 390c.333-.167.5-.5-1.5-.5h-4c-1.6 0-4.334-2-5.5-3l-2.5-1V382l-3-2-2.5 1-2 2.5-.5 5.5-1 .5-1.5 3 2.5 1.5.5 2c.333.333 1 1.4 1 3v4h-5.5c-.5-.167-1.7-.1-2.5 1.5s-1 3.333-1 4c0 .5-.1 1.6-.5 2-.5.5-1.5 2-2 2.5s-.5-.5-2 1.5c-1.2 1.6-1.833 3.333-2 4m122.5-63l2-2.75 2-2.75 4.5-5v-7.5c0-1 2.999-4 4-5 .8-.8.333-4.333 0-6L527 321l1.5-8.5-3.5-5v-13c-.667-.667-2.2-2.3-3-3.5-1-1.5-1-3.5-1-6 0-2 .666-4.167 1-5v-3.5c1.666-.5 5-1.6 5-2 0-.4 2-3.5 3-5l-1.5-9-6.5-1.5-3.5-4.5-3-3v-3c0-.8 1.333-3.667 2-5l4.5-1.5 5-3.5c-.667-1-2-3.2-2-4 0-1-1.5-4-1.5-5V225l2.5-2.5 2.5-1-5-8.5M520 355.5l-4-2.75-3-2.25-3-4.5c-.5 0-1.7-.1-2.5-.5-1-.5-3-.5-3.5-.5s-3.5-2.5-4-3-.5-2-1.5-1c-.8.8-2.667 2-3.5 2.5l-2 1.5h-5c-.167-.167-.8-.6-2-1s-4.833-2.167-6.5-3c-.333-.5-1.1-1.7-1.5-2.5-.5-1-1-3-2-4-.8-.8-3-1.667-4-2l-5-1-4.5-2.5c-.333-.833-1.3-2.8-2.5-4-1.5-1.5-1.5-2.5-3.5-2.5h-5l-2.5-.5c-.5-1-1.5-3.2-1.5-4 0-1-.5-1.5-1-3s-2-2-1-4.5 2-1 1-3.5-2.5-5-3.5-5.5.5-2-3.5-1.5-6 1-8 .5-3.5 0-4-1l-2-4-2-4.5c.333-.167.5-.7-1.5-1.5s-5.167-1.333-6.5-1.5h-6v-4l-2-1.5c-.667-1-1.6-3.2 0-4 1.6-.8 3-1.667 3.5-2 .333-.833 1-2.7 1-3.5v-5.5l-1-3.5m117 243.5c0 .4-.334 2.167-.5 3-.334.5-.8 1.7 0 2.5 1 1 2 1.407 2 1.703 0 .297 1 1.297 1.5 1.797s.5 1.5 1 2c.4.4.5 1.5.5 2l-.5 1c-.4.8-1.167 1.667-1.5 2l-.5 1-.5 2.5.5 2m-2-21.5l-1.5-.5-2 1.5-1.5 1-2.5-1.5c-.334-.5-1-1.7-1-2.5v-6m0 0v-2l-2-2.5H511m101.5-3l-.5 1-.5 2-.5 3.5-1 1-1 2v1l.5 1h.5m2.5-11.5l3.5.5 2-1.5 2.5-1.5 1-.5 7.5 6.5c1.166 1 3.6 3.1 4 3.5.4.4 1.833 1.5 2.5 2 .666.5 2.1 1.5 2.5 1.5h2l2.5.5 1 1c.166.5.6 1.6 1 2 .4.4 1.5 1.833 2 2.5 0 .833.1 2.6.5 3 .4.4 1.833 1.167 2.5 1.5h2l2 1c-.167.5-.4 1.6 0 2 .5.5 1.5 1.5 2.5 1s3.5-2.5 4-3c.4-.4.5-1.5.5-2l.5-1m-150-16v-4.5c.333.167 1.2.1 2-1.5 1-2 1-1.5 1.5-3s0-2.5 0-3-2-1-1.5-2.5c.4-1.2 1.166-2.5 1.5-3 .333.333.9.7.5-.5-.5-1.5-6-5.5-6.5-7-.4-1.2-2.5-4.167-3.5-5.5l-.5-3H503m8 33.5l-2 1.5h-2.5l-1.5-.5-2.5-2.5-.5 3.5-1 1.5-1.5 2.5c-.334.333-1.1 1-1.5 1h-4l-2-.5c-1 .167-3.1.6-3.5 1-.4.4-1.834 2.167-2.5 3l1 1 2 1.5c.084.5.301 1.6.5 2 .248.5.5 1 0 1.5-.4.4-2.167.833-3 1h-3m19.5-51l-3.5 3H494c-1-.167-3.1-.4-3.5 0L489 466l-1.5-1.5-4 3.5c-.834.667-2.6 2-3 2-.5 0-1-.5-2-1s-2-1.5-2.5-3-1-2.5-1.5-3.5-2-2.5-2-3c0-.4-1.667-1.5-2.5-2l-4.5 1.5c-1.834.667-5.6 2-6 2-.4 0-2.5.333-3.5.5h-4c-.8 0-2.667-.333-3.5-.5H445l-3 1.5m61-1v-22m0 0h-3.5L498 441l-2.5 1.5-1.5-1.5v-7.5c0-.833-.2-2.5-1-2.5h-6.5c-1.5 0-4.5.5-5 0-.4-.4-1.5-2.167-2-3h-5l-1.5-.5-3-4.5-1.5-4.5-3-2c-2-1.167-6.2-3.5-7-3.5-1 0-5-1-6.5-2-1.2-.8-4.167-2-5.5-2.5m0 0l-.5-11-2-1.5 2.5-5-.5-2.5c-.667-.333-2.2-1.4-3-3-1-2-2-4-3.5-4.5-1.2-.4-3.167-1.5-4-2-.667-1-2.1-3.2-2.5-4-.5-1-1-3-1.5-3.5s-1.5-3.5-2.5-5c-.8-1.2-1.334-2.167-1.5-2.5l-2-2-3.5-1-4-2-2.5-2.5-3.5 1.5-4.5 1-3.5 2c-.667-.333-2.1-.8-2.5 0-.4.8-1.5 1-2 1l-3.5-1c-1.167 0-3.6.2-4 1-.4.8-1.5 1.667-2 2h-2m58.5 44.5l-1 7.5-2.5.5-1 2 1 2v1.5h-5l-2.5 1-2.5 1-1 2v10.5c0 1-.5 1.5-.5 3s-.5 2-1 3c-.4.8-.5 2-.5 2.5v2m-42-83l-3.5 4.5-1.5 3h-9l-2 3.5c-.667.5-1.8 1.7-1 2.5 1 1 1 2.5 1 3 0 .4-1.667.833-2.5 1H368m20-17.5l-2.5-2h-1l1-3c.167-1.167.4-3.7 0-4.5-.5-1 .5-2.5 0-3.5-.4-.8-1.167-1-1.5-1l-2.5-1-2.5-1.5c-.333-.667-1-2.2-1-3 0-.8.667-.667 1-.5l2.5-3v-2l-.5-5c0-.5-1-2.5-.5-4s0-1 .5-2 2-1.5 2-2 .5-1 .5-2.5V321c0-1-.5-1-.5-2s-1-1.5-1.5-2-.5-1.5-1-3-.5-1.5-.5-2c0-.4-.667-1.167-1-1.5-.5-.167-1.6-.6-2-1-.5-.5-1.5 0-2-.5s-1-.5-1.5-1-.5-1-.5-1.5-.5-1-.5-1.5v-1.5L371 302m-3 79.5l-2.5-1h-3l-2.5 1-3-2.5c-.833-1-2.6-3-3-3h-4l-4 1.5m22 4v.5l.5 3.5v2.5l1 1.5v1.5c0 .4.333 2.167.5 3l1 1 1 1h3l1.5 1.5c.5.5 1 1 1.5 2s.5 1.5 1 2 0 2 .5 2.5.5 1 1.5 1.5 1.5 1 2 2 1.5.5 1.5 1.5c0 .8.667 2 1 2.5m-39.5-34l-3-2.5-1-1h-3c.333 1 .4 2.4-2 0l-4.5-4.5-1.5-2.5c-.667-.167-2.3-.5-3.5-.5m18.5 11v8c0 1-1 .5-1.5 1.5s-1.5 0-2 1-1 0-2 1.5-1.5 1.5-2.5 2-2 0-2 1-.5 1.5-.5 2.5-.5.5.5 1.5c3.2 2 5.667 4.167 6.5 5 .333-.5.9-1.2.5 0s-1.5 2.5-2 3v.5m-13.5-38.5h-4c-.833-.833-2.6-2.5-3-2.5-.5 0-4.5-1-4.5-2s0-3-1-3c-.8 0-2.667-.667-3.5-1v-3l-2.5-1.5-1-2.5c.333-.333.8-1.1 0-1.5-.8-.4-4-.167-5.5 0l-1.5-4c.5-.667 1.2-1.9 0-1.5-1.2.4-2.833 1.167-3.5 1.5m30 21l-1.5 3v2c0 .833-.2 2.5-1 2.5s.333 2.333 1 3.5c-.167 1-.6 3.2-1 4-.4.8-1.167.333-1.5 0-.5 0-1.8-.2-3-1s-1.5-1.333-1.5-1.5c-.667 0-2.9-.3-6.5-1.5-1.5-1.5 0-1.5-1-3.5-.8-1.6-1.333-2.333-1.5-2.5l-1-2-4.5 2c-.667 1.167-2 3.7-2 4.5 0 .8.667 2.333 1 3 1.167.833 3.7 2.5 4.5 2.5 1 0 1 1.5 2 1.5h7c2.4 0 3.333.667 3.5 1v4c0 2.5-2.5 1.5-3.5 3-.8 1.2-1.667 1.5-2 1.5l-3.5-1.5-2.5 1.5-2 2-2.5 2-1 2-1 4-1.5 2h-2.5v3m-1-62l-2 1-3 .5-2 4-1.5 1h-7l-1.5 3v1l1.5 3v3l-4-1-2 2-2 3.5m23.5-21l1-3.5v-4.5h3l1-1 1-1 1.5-2 .5-1.5 1-2c.167-.5.6-1.6 1-2 .5-.5 1-1.5 1.5-2s.5-1.5 1-2c.4-.4.833-1.5 1-2l.5-2.5.5-1m-38 48h-1.5l-1-4.5v-6c-.833-.333-2.6-1.3-3-2.5-.5-1.5-2-3-2.5-4s0-2.5-1.5-2.5c-1.2 0-3.833 1.667-5 2.5l-1.5-4c-.167-.667-.6-2.2-1-3-.5-1-1-2.5-1-3.5v-2.5l-4.5-1-3.5-3c-.333.333-1.1.8-1.5 0-.4-.8-2.5-2-3.5-2.5v-2.5l-4-3-2.5-2-1 3v2H232l-4.5-1m46.5 40l-2.5 9.5h1l1.5 1.5v8l2 1.5v2.5l-3.5 1.5 1.5 3.5h5.5v4l-1.5 1v3c-.8 2-.333 4.833 0 6 .333.333 1.3 1.1 2.5 1.5 1.2.4 2.833.167 3.5 0-.667 0-1.6.2 0 1s3.333 2 4 2.5c.167-.333.9-.8 2.5 0 2 1 2.5.5 2.5-2 1.6-4 5.5-2.667 5.5-4m-71-81H226l-1.5-2-1.5-2h-2c-2 0-3.167-.667-3.5-1H216l-1.5-3v-5H210l-1-4.5c-.333-.667-1.4-1.9-3-1.5-1.6.4-4-1.5-5-2.5.333-.667.6-1.8-1-1l-4 2v-1l-3.5-4h-4l-2 1.5-2.5 2.5h-1.5c-.5.167-1.5.7-1.5 1.5s-.333 3-.5 4c.333.667.8 2.2 0 3-.8.8-1.667 1-2 1 .167 1 0 2.4-2 0s-3.5-3.667-4-4l-2.5-3-1.5-3.5-1.5-1.5h-2c-.8 0-2.667 1-3.5 1.5H158l-3-1.5-1.5-1.5-2-1.5H148l-2.5-2-1.5-3.5-2-1h-3l-3-1m91.5 34.5l1 3v3h-1v6.5l-1 .5c-.667.167-2 .6-2 1s-1 1.5-1.5 2v1.5l-1.5.5M411 264h7c.833-1.333 2.8-4 4-4h3.5c3.5 0 3.5 1 6 0s4-1 4-2-1-2 1.5-2.5c4.5-2 6-2.5 6-3.5v-8c-.833-.833-2-2.7 0-3.5M411 264l-6 3.5-3.5 2h-4l-1.5-2h-1.5c-.833 0-2.5.4-2.5 2 0 2-4 1-4 3.5 0 2-.333 3.833-.5 4.5l-1 1.5c-1 1.5-2 2-3.5 3.5s-4.5 3.5-4 4.5-2 4-3.5 4-1.5 1-2.5 3.5-.5 6.5-2 7.5m72-61.5c2.5-1 4.5-3 3.5-5-.8-1.6-1-4.333-1-5.5l3.5-1.5m-6 12l-5 1.5-3.5 1.5c-.167.667-.7 1.9-1.5 1.5-.8-.4-2.333-.833-3-1l-4.5 2.5c-.167.333-.8 1-2 1h-10c-.5 0-3-2.5-5-4-1.6-1.2-17.333-13.5-25-19.5l-8-3.5-4.5-2h-17c-3.2 1.6-6.667 4.333-8 5.5-.833-.667-2-1.2 0 2s.833 7.333 0 9c2 .167 5.1.8 1.5 2-4.5 1.5-6.5 0-8.5 0-1.6 0-4-1.333-5-2l-1.5-5-5-2-4-4h-3v6c-1-.333-2.4-.4 0 2s1 4.333 0 5v3.5c.167 0 0 .3-2 1.5s-3.167 2.5-3.5 3l-3.5 3.5v3.5l3.5 2h3.5l5-5.5v7c1 .833 2.4 2.7 0 3.5-3 1-6.5 3.5-7.5 6-2.4 4-6.333 4.667-8 4.5l-5 .75M371 302l-.5.073m.5-.073l-.5.073m-7.5.427c-1 0-3-.2-3-1 0-1-1-1.5-2-2.5-.8-.8-4.667-2.667-6.5-3.5-.167.167-1 .6-3 1-2.5.5-4.5 0-5.5 0s-2 0-4-1c-1.6-.8-4-1-5-1l-3-5-4-3.5h-3.5c-.5-.667-1.8-1.6-3 0s-3.5 4-4.5 5c.833.5 1.8 1.5-1 1.5-3.5 0-3.5 1.5-6 0-2-1.2-5.167-2.5-6.5-3-.667.5-2.3 1.5-3.5 1.5-1.2 0-3.5 2-4.5 3l-2-8c.667-1.167 2-3.7 2-4.5 0-1 1.5-3.5 3-5 1.2-1.2 3.833-3.5 5-4.5l.5-1.75m60 32.25l5 1v1.5l-1 1-1 1-1 1.5c0 .5-.1 1.6-.5 2l-2 2c-.5.5-.5 0-1 1s-.5 2-1.5 2.5-1.5 1-3.5 2.5-4 3.5-5 3.5-1 0-2 1-1.5.5-2 1.5-1 2.5-1 3.5c0 .8 1.333 3 2 4 .333 0 .8.3 0 1.5-1 1.5-1.5 1.5-2 2.5s-1 1-1 2 1.5-.5 0 2c-2.5 3.5-4.5 4-5 4H337l-1 3.5c-.167.333-.6 1.1-1 1.5-.4.4-1.167.5-1.5.5-.833 0-2.5-.3-2.5-1.5s-.333-1.5-.5-1.5c-1 .667-3 2.1-3 2.5 0 .4-.667 1.5-1 2 0 .333-.2 1-1 1-1 0-1 0-2.5.5s-1.5 1-2.5 1 0 0-2 1.5c-1.6 1.2-3 2.5-3.5 3v.5m48-56c.81.162 1.896.379 7.5-.427M297.5 264l4.5 1 1.5 3.5-.5 1.75m-5.5-6.25c-.8-.8-1-2.667-1-3.5L293 259v-3.5l-2.5-1.5-1.5 1.5-3-4v-3h-8c-.333-.833-1.3-2.8-2.5-4-1.2-1.2-5.167-4.5-7-6-1.333-.833-4-2.7-4-3.5 0-.8-3.333-3.667-5-5-.833-1-2.5-3.2-2.5-4 0-1 1-4 1-5.5 0-1.2 1-3.5 1.5-4.5.333-.667 1.4-2.2 3-3l6-3c-1-1.5-2.4-4.6 0-5 2.4-.4 2-5.833 1.5-8.5l1.5-3.5 4-5v-1.5l2.5 1.5 2-1.5h2l2-5m13.5 82.5l-2.5 2-3 1.5-2 1h-4c.333.167 1 .75 1 1.75s1 2.917 1.5 3.75c-.5.167-1.5.7-1.5 1.5s-2.667 1-4 1c0-.333-.3-1-1.5-1H274c-.4 0-4.167-2.667-6-4-.333-.833-1.1-2.8-1.5-4-.5-1.5-.5-3-3.5-4.5-2.4-1.2-5-3.167-6-4h-3.5c-3.5 0-7 .5-8-.5s-.5 0-1.5-1.5-1.5-2.5-1.5-3-.5-2.5 0-4c.4-1.2-.167-3.5-.5-4.5.167-.167-.1-.7-2.5-1.5-3-1-4.5-1-5-1.5-.4-.4-3.5-1.833-5-2.5l-.5-7h-5m0 0c-.167-.333-.9-1.2-2.5-2-2-1-3-2.5-3.5-2.5h-3.5c.833 1.667 1.7 3.9-1.5-.5s-4.667-6.833-5-7.5c-1-.667-3.1-1.5-3.5.5-3.6 1.6-8.167 1.333-10 1-.333-.5-1.2-1.6-2-2-1-.5-6-.5-6.5-1.5-.4-.8-1.5-2.333-2-3-.333-.333-1.1-1-1.5-1M224 233v-4.5l-2.5-3.5-.5-1 1-1.5 2-2m-41.5-6c-.5 0-2 1.5-2.5 2s-1 2-1 3-1 1.5-1 2.5c0 .8-1.667 2-2.5 2.5-.5 0-1.7.1-2.5.5s-2.333.167-3 0h-2.5m15-10.5l1.5-2.5 2-3.5 3.5-2h1.5l1-2V202l-1-2.5 1-2v-1l.5-1.5h2m29.5 25.5l2.5-1h4.5c.333 0 1.1-.3 1.5-1.5.4-1.2 1.5-2.833 2-3.5l2-2.5 3-2c1.2-.8 3.5-2 4.5-2.5l1.5 1 4.5-2V205l-1.5-1.5-1-1c0-.333-.1-1.1-.5-1.5-.5-.5-3-1-3-1.5-1.5-1-1.5-1-2-2-.4-.8-.5-2-.5-2.5-1-.5-3-1.2-3 0v2.5c.333.333.7.9-.5.5-1.5-.5 0-2-1.5-1.5-1.2.4-2.167 2.5-2.5 3.5l-1.5-.5-1.5-2m-7 23l-1.5-4c.167.5.3 1-.5-1s-1-3.167-1-3.5v-2c-.333-.5-1.2-1.5-2-1.5s-1.333-.667-1.5-1H213v-1l1.5-2.5v-3c-.167.333-.7.8-1.5 0-1-1-2.5-3-2.5-1.5 0 1.2-1 2.167-1.5 2.5l-2.5-2c0-.167-.2-.5-1-.5s-3.333-2-4.5-3c.333-.333.7-.9-.5-.5s-3.5.5-4.5.5l-1.5-1.5m0 0v-1c0-.8 1-3 1.5-4v-2l-1-2c-.4-.8-.5-2-.5-2.5l-1-3V179m105 228.5v3l3.5 1h1.5c.333.167 1.1.6 1.5 1 .5.5 1 1.5 1 2s0 1.5-.5 2 0 0-.5 1c-.4.8-.833 1.333-1 1.5m622.5 78.5l4-.5 2-1 .5-2v-2l1-3.5h6l4.5-.5 3-1.5c.833-.667 2.5-2.1 2.5-2.5 0-.4.333-3.833.5-5.5.333-.333 1.1-1 1.5-1 .4 0 1.5-.333 2-.5.333-.333 1-1.2 1-2s.333-4 .5-5.5c-.167-.667-.6-2-1-2s-2.833-.333-4-.5l-1.5-1-1.5-2.5-.5-2.5 3-2.5 1.5-.5c.5-.167 1.6-.4 2 0 .4.4 2.167 1.5 3 2l1 2.5 1.5 2.5c.5.667 1.6 2 2 2 .4 0 1.5.667 2 1h1.5" stroke="#444A62"/><path d="M58 312l-3-6.5c.333-.333 1.1-1 1.5-1h6c.667.333 2 1.1 2 1.5 0 .5 2 1 4 2 1.6.8 2 .333 2 0 1.167-.333 3.8-1 5-1 1.2 0 1.5 1 1.5 1.5l.5 3.5c.333.833 1.1 2.7 1.5 3.5.5 1 1 3 1 4 0 .8-.667 2.333-1 3l-.5 4c-1.167.833-3.6 2.6-4 3-.5.5 1 2.5 1 3s2 1.5 3 2 2.5 1 3 1S85 337 86 337s1.5 5.5 1.5 6-.5 2-1 2.5-4 1-5 1-3-2-3-2.5c0-.4-1.333-1.833-2-2.5-.333-1-1-3.1-1-3.5 0-.4-1.667-1.5-2.5-2h-4.5l-2.5-3-3.5-1.5h-7c-.4 0-1.833-1.333-2.5-2l-2-5.5.5-2.5c1.167.167 3.7.5 4.5.5 1 0 2-2 2.5-2.5L60 318l-1.5-2-.5-4z" fill="#333746"/><path d="M885 131l12.5 11 2 5.5c-.667 1-2 3.1-2 3.5 0 .5-6.5 4.5-7 5.5s-4 5-4 6 6 7 6 7.5c0 .4 6.333 1.5 9.5 2l3 1 1.5 5m0 0h3.5l2.5 2.5c.167.5.7 1.5 1.5 1.5h3c.667-.5 2.1-1.5 2.5-1.5.5 0 1.5-.5 2.5 0 .8.4 3.667.5 5 .5l2.5-3.5 6.5-.5 5.5-4m-35 5l2 4-.5 1.5-1 2c-1.167.5-3.6 1.6-4 2-.4.4-6.5 5.5-9.5 8v2l1.5 2.5c.333 0 1 .2 1 1 0 1-2.5 2-2.5 2.5 0 .4.333 1.5.5 2l2 2.5v4l.5 2.5 2.5 1 1 1.5v6l-.5 3-3.5 3-5 .5h-2l-7 7.5 3 5-1 1-4.5 3-3.5 4.5v5c0 .5 1.5 2.5 1.5 3 0 .4 1 1.833 1.5 2.5l8.5 16.5m54-104.5v-3.5c-.333-.833-.7-2.6.5-3 1.2-.4 2.5-1.167 3-1.5l2-3 1-2 3.5-.5 1-3.5 6-1.5c.833-.333 2.5-1.1 2.5-1.5 0-.4 1-2.167 1.5-3l11-.5 4 7.5 3.5-1c1.833-.5 5.6-1.5 6-1.5.4 0 5.167-.333 7.5-.5l7-19.5 4.5 1.5 6-1.5M941.5 173l4.5 5.5 3 4.5 3.5-.5 1.5 3 1.5 5c.333.333 1.1 1 1.5 1h5l2 1.5 1 3.5v2l1.5 1 4.5 2.5m-83.5 75.5l1.5-.5 3-2.5h2.5c1 .5 3.1 1.5 3.5 1.5.4 0 3.5 1 5 1.5l1.5.5c.167 1 .5 3.1.5 3.5 0 .5.5 1 .5 2s0 3-.5 3.5-1 2-1.5 2.5 0 3 .5 3.5l2 2c1-.667 3.1-2.1 3.5-2.5.5-.5 2.5-2 3-2s2.5 1 3 1.5 3 1 3 1.5c0 .4.667 1.5 1 2m-32-18l-1 4-1.5 1c-.5.167-1.6.5-2 .5h-4l-1 1.5-1 2c-.333.167-1.1.6-1.5 1-.4.4-2.167.5-3 .5H869c-.833-.167-2.6-.6-3-1-.5-.5-2.5-1-3-1s-2.5-.5-2.5 0c0 .4-1 1.5-1.5 2v2.5l4.5 11-.5 2.5c-.5.667-1.5 2.2-1.5 3 0 1-1.5 4.5-1.5 5 0 .4.333 1.833.5 2.5l2.5 1.5 2 1.5c.333.5 1 1.6 1 2 0 .5 1 3 1 3.5 0 .4.333 1.833.5 2.5l-.5 2.5-2 1.5-1 6.5-1 2.5-2 .5-5 .5c-.5-.333-1.5-.8-1.5 0s.333 4.333.5 6l-8 3-5.5 2.5v14.5l-2.5 3 1 2.5 3.5 2.5 1.5 1c-.333.833-1.1 2.6-1.5 3-.4.4-1.5 2.167-2 3l2 2 2.5 2 2.5 2.5 1 2.5-3 4 2 7.5 3-1 3-1.5 1.5-1.5 2-1c.5-.167 1.5-.4 1.5 0s1 .833 1.5 1l1.5 1.5c.167.5.5 1.6.5 2 0 .4-.667 1.5-1 2l-2 4c-.5.667-1.5 2.1-1.5 2.5 0 .5 0 2.5-.5 3.5-.4.8-.5 3-.5 4L855 418v5.299l9.5.201 4.5 6 4-2 4-2c.667-.833 2-2.6 2-3 0-.4.667-3.167 1-4.5.667-.333 2.1-1 2.5-1h3l2.5-3 1.5-.5c.667.333 2 1.1 2 1.5 0 .5 1 3 1 3.5s1.5 3 1.5 3.5.5 2.5.5 3-1.5 2.5-2 2.5-3.5 0-4.5.5c-.8.4-3.333.833-4.5 1l1 2.5.5 2.5-2.5 3.5c-.167 1-.5 3.1-.5 3.5 0 .4-3.667 5.167-5.5 7.5l1.5 2c.167.5.4 1.6 0 2-.5.5-1.5 2-2 2.5s-1 2-1 2.5c0 .4.667 3.5 1 5l8 4 4.5 4.5 2.5 4.5.5 1.5m0 0l-4.5 7.5-.5 1m5-8.5l5.5-5 4.5-.5 5 1 3 1.5 1.5 1.5 9-3 3-1 1 1-1 3-1 3M115.5 436l2.5-2 1.5-1 3-1 .5-2v-6.5m0 0l4-1.5c.333 0 1.1.2 1.5 1m-5.5.5v-3c-.167-.166-.7-.4-1.5 0m7 2.5c.5 1 2.5 2 3 3.5s.5 1.5 1.5 2.5c.8.8 2 1 2.5 1l1.5 2 .5 2c-.167.334-.6 1.1-1 1.5-.4.4-2.5.167-3.5 0-.167.167-.6.7-1 1.5-.5 1-2 3-2.5 3.5s.5 2-1.5 1.5c-1.6-.4-3.333-.5-4-.5l-2 .5c-1.6.4-3.667.167-4.5 0H116m12.5-19h3c.167-.5.5-1.6.5-2 0-.5 2-1.5 2-2 0-.4.333-1.167.5-1.5l4.5 1.5 3-2m-20.5 3.5c-1 .5-2 .5-3 .5h-3c-.4 0-1.833-.333-2.5-.5-.667.167-2.1.5-2.5.5-.5 0-.5-1-2 0-1.2.8-2.833 1-3.5 1m16.5-1.5V417c.333-.333.8-1.2 0-2-1-1-1-1.5-2-1.5s-3 0-3.5-.5-3-2-3-2.5c0-.4-1.333-1.5-2-2-.167-.333-.7-1-1.5-1m0 0H106c-.5 0-1 .5-1.5 1-.4.4-2.5 1.5-3.5 2m8.5-3l1-2.5v-2.5l1-2V399c0-1.2-.333-2.833-.5-3.5-.167-.5-.6-1.5-1-1.5-.5 0 0-1.5-1-.5m0 0c-1 1-1 2-2 2-.8 0-3.333-.666-4.5-1l-1.5-1c-.5-.833-1.6-2.4-2-2-.4.4-2.833 1.5-4 2l-2.5.5m16.5-.5l.5-2c.5-.833 1.6-2.6 2-3 .5-.5 1.5-2.5 1.5-3V379c.167-.5.5-1.6.5-2 0-.4 1.667-1.167 2.5-1.5l3.5 2.5 3-1m0 0c.365.244.864.603 1.351 1m-1.351-1v-7c0-.5-1-1.5-1.5-2s-1-1.5-1.5-2 0-2 0-2.5.5-1.5 1-2 .5-1.5.5-2-.5-1.5-1.5-2-2-1.5-2.5-1.5-2-.5-2.5-1-1.5-1-1.5-1.5c0-.4-.333-1.833-.5-2.5v-.5M142 417c-.167-.666-.5-2.2-.5-3v-4.5c0-1-.5-2.5-1-3.5s-1.5-3-1.5-3.5-.5-2.5-.5-3.5v-2c0-.5.5-2.5 0-3.5-.4-.8-1.5-1.333-2-1.5-.667-1.333-2.1-4.3-2.5-5.5-.5-1.5-1.5-1.5-2.5-2.5-.8-.8-2-.667-2.5-.5-.5-.333-1.8-1-3-1-1.5 0-.5-1.5-.5-2.5 0-.508-.805-1.311-1.649-2M142 417l3 3c.5.5 1.5 1 2 2l1 2m-24.149-46H126l3-.5 1.5-.5 2-.5c.667 0 2 .3 2 1.5s.333 2.833.5 3.5c.333.167 1.1.6 1.5 1 1 1.5 1 3 1.5 3.5.4.4.833 1.833 1 2.5l.5 1c.333.333 1.1.9 1.5.5.4-.4 1.5-.5 2-.5l1-1c.167-.333.6-1 1-1h3.5l3-.5 1.5-1.5c.5-.5 2-1 2-2V381c.833 0 2-.2 0-1-3-1-4-3-3-3m0 0h6c.333.167 1.1.5 1.5.5.4 0 1.167-1.333 1.5-2l2-1 1 3c.4 1.2 2.833 2.167 4 2.5 0-.667.2-1.6 1 0m-17-3l-1-2.5c-.5-.333-1.5-1.1-1.5-1.5v-5c0-1 1-1.5.5-2.5-.4-.8-1.167-3-1.5-4 .167-.667.6-2 1-2 .5 0 .5-1 1.5-1s2 0 2.5.5 1 .5 2 1 3 .5 3.5 0 1.5-2 1.5-2.5V352c0-1 .1-3.1.5-3.5.4-.4 2.167-1.5 3-2 .167-.333.5-1.1.5-1.5v-4.5c0-.8-.333-2.333-.5-3m5 42.5c1 2 1.5 3 1.5 4.5s0 3.5-.5 4.5-1.5 1.5-1.5 3-.5 3.5.5 4 1.5 1 1.5 2-.5 1.5-.5 3-1 3-1 4.5c0 1.2-.333 1.833-.5 2 0 .167-.4.6-2 1-2 .5-2 0-3 0-.8 0-1.667-.666-2-1l-1 1 1 4c.333.167.8.7 0 1.5-1 1-1.5 1-2.5 2s-2 1-2 1.5v2.5c0 .4 1.333 1.5 2 2m10-42l2.5-2 3.5 1c.333 0 1.2.1 2 .5s2.667.833 3.5 1l1.5 1.5c.167.333.6 1.1 1 1.5l1 1m-20-47c.167 0 .2-.1-1-.5-1.5-.5-2.5-.5-3.5 0s-2 1-2.5 1.5c-1.5 0-3.5-.5-3.5-1s-1-1-1.5-1.5c-.4-.4-2.5-1.167-3.5-1.5m15.5 3l4-1.5 2-3v-1.5l4.5-.5 4 1.5 1 2 3.5 1.5m0 0l1.5 3v3l3.5 2.5h2l2.5 2 2 3c.167.833.6 2.5 1 2.5s.167 1.333 0 2c-.667.167-2 .7-2 1.5 0 1-2 2.5-1.5 3s.5 2 1.5 2c.8 0 2.333-.333 3-.5.5.5.5 2.5 1 3.5.4.8 1.167 2 1.5 2.5l1.5.5 1.5 1c.167.333.5 1.2.5 2v5M183 336l2.5-2v-2.5l.5-2m0 0l2-.5 4-1.5c.833-.333 2.6-1 3-1 .4 0 1.5-.667 2-1m-11 4l-2.5-.5-.5-.5c0-.833-.1-2.6-.5-3-.4-.4-.833-1.167-1-1.5l-2-2-1.5-1.5c.167-.667.4-2.5 0-4.5m19 9.5l2 2c.167 1 .6 3.1 1 3.5.4.4 1.167 1.5 1.5 2l4.5 1.5c.167 0 .6.2 1 1 .5 1 0 2.5 0 3 0 .4 1.333.833 2 1 .833.167 2.6.7 3 1.5.4.8 3.167 2.333 4.5 3 .667.167 2.1.5 2.5.5.4 0 2.167.333 3 .5-.333.833-.9 2.6-.5 3 .5.5 0 1.5.5 1.5.4 0 2.167.667 3 1 .833.333 2.6 1.1 3 1.5.4.4 1.833.833 2.5 1 .5.833 1.5 2.6 1.5 3 0 .5 0 2.5.5 3s1.5 2 1.5 2.5c0 .4 1 1.833 1.5 2.5.167.5.5 1.6.5 2 0 .5.5 4 1 4.5s.5 1.5.5 2.5v2M197 325.5l2-2.5v-9l2.5-4 2-2 7-1.5 2.5-3 2.5-2 1.5-2m20.5 75.5c0 .8-.333 1.667-.5 2m.5-2l1.5.5h4l4-1.5 4-2.5 3-1 3.5-1 1-1c.5-.5 2.5-1.5 3-2.5.4-.8 1.5-1.667 2-2l2.5-2 1.5-1 1-2 .5-2 1-1.5m-39.5-2l3-1.5v-6.5c.5-.333 1.6-1 2-1 .4 0 2.167-.333 3-.5h1.5l1.5.5 2.5 1 3 3.5 2 1.5c.5.333 1.6.8 2 0 .4-.8 2.167-2 3-2.5l1.5-1.5 1-1 1-1.5M149 324l3-2.5c.667-.5 2-1.6 2-2 0-.5 0-2 .5-2.5s.5-2 1-2.5c.4-.4.5-1.167.5-1.5l1-.5.5-.5v-2l.5-6m59-4.5V298l-.5-3v-2m.5 6.5l2 2 3.5 2 1 2v5.5l1.5 2v1.5l1 1.5 2 .5h2l2-1h2.5l.5-1c.5-.333 1.5-.8 1.5 0s.667 2 1 2.5l1 1m-22-25l-3-3c-.167-.5-.5-1.6-.5-2 0-.4-1.667-2.5-2.5-3.5v-.5c.333-.5.7-1.5-.5-1.5m6.5 10.5l1-.5 1-.5c.333-.167 1.2-.5 2-.5h3l3.5-1 1-.5 2-.5.5-.5 1.5-3.5m-22-3h-4c-.8 0-3.333.333-4.5.5h-8c-.833-.167-2.6-.4-3 0m19.5-.5l1.5-4-.5-2c-.167-.333-.6-1.1-1-1.5-.4-.4-1.167-1.833-1.5-2.5l-.5-2c-.167-.667-.4-2.1 0-2.5.5-.5 2-3 2-3.5 0-.4 1-1.833 1.5-2.5.5-.5 1.5-1.6 1.5-2 0-.5 1-2 1.5-2m-24 25l-2.5 2.5-2 2c-.333.167-1 .7-1 1.5m5.5-6l1-1.5.5-3v-2c0-.5-1-1-1.5-2-.4-.8-1.167-1.667-1.5-2V271m-4 18v3c0 1 .5 1.5 1 2l2.5 2.5.5 1.5-.5 2.5M185 289l-1.5 2-2.5 1c-.667.167-2.1.5-2.5.5-.5 0-1.5.5-2.5 0l-2.5-1.5c.167-.667.4-2.1 0-2.5M189 271c0-.5 1.5-1.5 1.5-2v-6c0-1.5 0-1.5-.5-2-.4-.4-2.833-2.167-4-3l-1-2.5v-1m4 16.5h-4.5c-.4 0-1.167 1-1.5 1.5h-3.5c-.8 0-2-2-2.5-3l-3.5 1.5c-.667.5-2.1 1.6-2.5 2m14-18.5l4.5-5 1-1m-5.5 6l-3 3.5c-1.167-.167-3.6-.6-4-1-.5-.5-2.5-1.5-4-1.5h-2.5c-.5-.833-1.6-2.6-2-3-.5-.5 0-1.5-1-1.5s-4.5.5-5 1.5c-.4.8-2.833 1.333-4 1.5h-3m34-5.5c0-.667-.1-2.1-.5-2.5-.5-.5-1.5-1-2-2-.4-.8-1.5-2.333-2-3 .5-.333 1-1-1-1-2.5 0-4 1-4.5 0s-3-2-3.5-2.5-.5-2.5-1-3-2-3-2.5-4c-.4-.8-1.167-2.667-1.5-3.5l-.5-2m19 23.5c.667-.333 2.1-1 2.5-1 .4 0 2.167-.667 3-1h2c0 .333.1 1.1.5 1.5.5.5.5 1 1 1.5s1 .5 1.5 1 1.5 1 2 1.5 1.5.5 2 1l1 1h6l2.5 4m-58-4H153l-1-1m4.5 1v5.5c.5.167 1.5.6 1.5 1 0 .5 1 .5 1.5.5h4c.167.333.4 1.1 0 1.5-.5.5-1 1.5-1.5 2s-2 .5-2 1.5-.5 2 0 2.5m0 0c.4.4 1.833.5 2.5.5 1 .667 3.1 2 3.5 2 .4 0 2.5 1 3.5 1.5.333.333 1.1.9 1.5.5m-11-4.5l-1 1-1.5 1.5-2 1.5-5 3.5m20.5-3l-1.5 5c.5.667 1.6 2.1 2 2.5.4.4 1.5 1.833 2 2.5v1.5c0 1-.5 3.5 0 4m0 0l-5 5.5c0 .333-.2 1.1-1 1.5l-2 1h-2l-1 .5m0 0v2.5l1 2 .5 1m-1.5-5.5l-2.5-1.5c-.5-.833-1.4-2.7-1-3.5.4-.8.167-2.333 0-3l-1-4-2-2.5c-.333-.833-1.2-2.6-2-3-.8-.4-2.667-2.5-3.5-3.5m0 0H140m74.5-18c.4 0 1.5-.667 2-1l1.5-1.5 2-2v-4c.167-.5.5-1.6.5-2v-2c.333-.333 1.1-1 1.5-1h3l1.5-.5c.333-.5 1.1-1.6 1.5-2 .4-.4 1.167-1.5 1.5-2m-15 18l.5 5c.167.667.5 2.1.5 2.5 0 .4.667 1.167 1 1.5h1c.4 0 1.5-1 2-1.5l1.5-.5h2.5m0 0c1 0 2-.5 2.5-.5s3.5 1.5 4 1.5 2 1 2 .5m-8.5-1.5l-1 1.5.5 2-2 2.5c-.333.5-.9 1.5-.5 1.5.5 0 2 2 2.5 2 .4 0 2.167 1 3 1.5.333.167 1.2.8 2 2 1 1.5 2 3 2.5 4s1 3 1.5 3.5m0-19c0-.5 1-1.5 1.5-2 .4-.4 2.167-1.5 3-2 .167-.333.7-1.1 1.5-1.5 1-.5 2-1 2.5-1h2.5c.5 0 1 0 1.5-.5.4-.4.833-1.167 1-1.5m-13.5 8.5l2.5 2h5l2.5 4.5 2 1.5c.333 0 1 .1 1 .5 0 .5-.5 1.5 0 2.5s1 2 .5 3-.5 2-.5 2.5m0 0c.5 1 3 1.5 3.5 1.5h7c.4 0 1.167-.667 1.5-1 1.333-.333 4-.9 4-.5s1 1.5 1.5 2c-.167.5-.4 1.5 0 1.5s1.5 1 2 1.5l3 2m-22.5-7c-.333.667-1.4 2.1-3 2.5-1.5 0-1-1-2-1.5s-3 .5-3.5 1-.5 1.5-.5 2c0 .4-1.667.167-2.5 0l-1.5-1.5m35.5 4.5l4 2.5v2.5l1.5 1.5v1l-3 1.5h-1.5l-2.5-1.5c-1.167-.667-3.5-1.8-3.5-1s-1 3-1.5 4v2.5m6.5-13l2.5-2 1.5-1.5 1-1 3 1h6.5v-.5l1-2v-5l1.5-1.5.5-1M261 303c0 .8.333 3 .5 4l3 1 4 1h1.5l3 2h2.5c-.333.333-.8 1.5 0 3.5s1 5.5 1 7v2M261 303l-2.5-1.5c-1.6-.8 1.5.333 2 .5l-5-2.5-1 .5-.5 1h-2.5l-2 .5h-1v7.5m28 14.5v4c0 3.6 1.667 3.833 2.5 3.5m-2.5-7.5l-3.5.5-.5-2-1-.5-3-1h-7c-.167-.333-.7-.8-1.5 0-.554.554-1.62.98-2.5 1.245M279 331v-2.5l2.5-1 2-1 2-2 1.5-3c.4-.8.167-2.333 0-3 .667-.5 2.2-1.2 3 0 .8 1.2 2.667 1.5 3.5 1.5.833-.667 2.5-2.2 2.5-3 0-.8.667-3.333 1-4.5h6c.333.667 1.1 2 1.5 2 .4 0 2.167 1 3 1.5h2.5l1.5 2.5h2.5l1.5-4v-2L314 310c-.833-.333-2-1.2 0-2s3.833-2 4.5-2.5c.167.167.8.2 2-1 2-1.5 2.5-1 2-4-.4-2.4-.833-3.667-1-4l-2-4-1-1.5H317m-38 40l-1 2c.167.667.6 2.1 1 2.5.5.5 1 1.5 1.5 2 .4.4.833 1.167 1 1.5 0 .167.1.5.5.5h1.5c.4 0 1.833-.333 2.5-.5l4-1c.5 0 1.5.2 1.5 1 0 1-1.5 2-1 2.5 1 1.5-.5 2.5-.5 3 0 .4.333 1.833.5 2.5h2m-54-29v1.5l-.5 1-.5 2.5m1-5l4.5-3.5V313l.5-1.5c-.333-.833-.8-2.5 0-2.5h5m0 0c.333.167 1.1.5 1.5.5h2.5c.4 0 .833.667 1 1h1l2 .5.5 1.5 1 1v3l-.5 5.245M243 328.5h7c.5 0 0-1.5 0-2s1-2 1-2.5 1-.5 2.5-1c1.2-.4.833-.167.5 0l2.5-1c.256-.051.61-.137 1-.255M95.5 366c.5.167 1.7.6 2.5 1 1 .5 2 1 2 2 .8 1.2 1.333 1.833 1.5 2l3.5 1c-.167.833-.4 2.6 0 3 .5.5.5 1.5 1 2 .4.4 1.167.833 1.5 1v5.5c0 .5-1 1.5-1.5 2l-2 2c-.5-.333-1.5-1.1-1.5-1.5v-2.5c-.167 0-.6.1-1 .5s-2.5 2.167-3.5 3c-.333.5-1.2 1.5-2 1.5h-2c-.8 0-2-.667-2.5-1-.333-.5-1-1.6-1-2v-2h3c.5 0 1.5 0 2-1s.5-2.5 1-3 1.5-2 2.5-2 3 0 2-1-1-1.5-2-2.5-3-2-3.5-2.5S94 370 94 369v-3h1.5z" stroke="#444A62"/><path d="M627 124h-2.5v2.5c-.5-.333-1.8-1-3-1-1.5 0 1-2.5 0-4.5l-4.5 3v9c-.667.667-2.2 2.3-3 3.5-.8 1.2-1.333 2.167-1.5 2.5.167 1 1.3 2.7 4.5 1.5 3-3 2.5-1 4.5-1.5s3-.5 3-1.5 2.5-.5 4.5-1 0-2 0-3.5 1.5-3 1.5-4c0-.8-1-2.667-1.5-3.5l-2-1.5zm-14.558-11.5l-2.5 2-1.001-2c-1-2-2.499-2.5-4-2.5-1.2 0-3.166 1.667-3.999 2.5l-2.001 2c-.333.833-1.199 2.5-1.999 2.5s-.334 2.667 0 4c.5 1 1.8 3 3 3s1.166 1.667 1 2.5c1.333.667 4.3 2.3 5.5 3.5 1.2 1.2 2.833 1.5 3.5 1.5.833 0 2.8-.3 4-1.5 1.5-1.5 0-2 0-3.5V123l1-2v-4c0-.8-.667-3.333-1-4.5h-1.5zm392.058 99l2-2h4.5V221c-1.5-1.667-4.9-5.4-6.5-7-1.6-1.6-.67-2.333 0-2.5zm46.5 132v-8l4.5 2.5v5.5h-4.5zm-276-189l2-4.5h6v7l-2.5 2.5H775c-.833-.833-2.5-3-2.5-5s1.667-.833 2.5 0z" fill="#333746"/><circle cx="918" cy="456" r="5" fill="#1965E8" fill-opacity=".21"/><g filter="url(#filter0_d)"><circle cx="918" cy="456" r="2.5" fill="#1965E8"/></g><g filter="url(#filter1_f)"><ellipse cx="186.423" cy="173.46" rx="17.577" ry="17.46" fill="url(#paint0_radial)" fill-opacity=".6"/></g><path d="M178.972 159.606h.622c9.428 0 14.142 0 17.071 2.929 2.929 2.929 2.929 7.643 2.929 17.071v7.357" stroke="url(#paint1_linear)" stroke-width="5.315" stroke-linecap="round"/><g filter="url(#filter2_dd)"><path d="M160 179.403c0-9.231 0-13.846 2.817-16.755.074-.076.149-.151.226-.225 2.908-2.817 7.523-2.817 16.754-2.817 9.231 0 13.846 0 16.754 2.817.077.074.152.149.226.225 2.817 2.909 2.817 7.524 2.817 16.755 0 9.23 0 13.846-2.817 16.754a9.632 9.632 0 01-.226.226c-2.908 2.817-7.523 2.817-16.754 2.817-9.231 0-13.846 0-16.754-2.817a9.632 9.632 0 01-.226-.226C160 193.249 160 188.633 160 179.403z" fill="#FCD704"/><path d="M160 179.403c0-9.231 0-13.846 2.817-16.755.074-.076.149-.151.226-.225 2.908-2.817 7.523-2.817 16.754-2.817 9.231 0 13.846 0 16.754 2.817.077.074.152.149.226.225 2.817 2.909 2.817 7.524 2.817 16.755 0 9.23 0 13.846-2.817 16.754a9.632 9.632 0 01-.226.226c-2.908 2.817-7.523 2.817-16.754 2.817-9.231 0-13.846 0-16.754-2.817a9.632 9.632 0 01-.226-.226C160 193.249 160 188.633 160 179.403z" fill="url(#paint2_linear)" fill-opacity=".4" style="mix-blend-mode:soft-light"/><path d="M160.5 179.403c0-4.629.001-8.052.348-10.683.345-2.617 1.024-4.377 2.328-5.724.07-.072.142-.144.214-.214 1.347-1.304 3.107-1.983 5.724-2.328 2.631-.347 6.054-.348 10.683-.348s8.052.001 10.683.348c2.617.345 4.377 1.024 5.723 2.328l.348-.359-.348.359c.073.07.144.142.215.214l.359-.348-.359.348c1.304 1.347 1.983 3.107 2.328 5.724.347 2.631.348 6.054.348 10.683s-.001 8.051-.348 10.682c-.345 2.617-1.024 4.378-2.328 5.724l.359.348-.359-.348a8.672 8.672 0 01-.215.214c-1.346 1.304-3.106 1.984-5.723 2.329-2.631.347-6.054.348-10.683.348s-8.052-.001-10.683-.348c-2.617-.345-4.377-1.025-5.724-2.329a8.636 8.636 0 01-.214-.214l-.359.348.359-.348c-1.304-1.346-1.983-3.107-2.328-5.724-.347-2.631-.348-6.053-.348-10.682z" stroke="url(#paint3_linear)"/></g><g filter="url(#filter3_d)"><path fill-rule="evenodd" clip-rule="evenodd" d="M184.504 173.884l-10.253 4.289c-.58.244-.566 1.068.014 1.292l3.729 1.445c.182.07.329.217.398.398l1.439 3.723c.224.587 1.055.601 1.299.021l4.295-10.246c.231-.579-.349-1.159-.921-.922z" fill="#000"/></g><circle cx="201" cy="266" r="4" fill="#1965E8" fill-opacity=".21"/><g filter="url(#filter4_d)"><circle cx="201" cy="266" r="2" fill="#1965E8"/></g><circle cx="173" cy="263" r="3" fill="#1965E8" fill-opacity=".21"/><g filter="url(#filter5_d)"><circle cx="173" cy="263" r="1.5" fill="#1965E8"/></g><circle cx="181" cy="281" r="3" fill="#1965E8" fill-opacity=".21"/><g filter="url(#filter6_d)"><circle cx="181" cy="281" r="1.5" fill="#1965E8"/></g><circle cx="163" cy="281" r="2" fill="#1965E8" fill-opacity=".21"/><g filter="url(#filter7_d)"><circle cx="163" cy="281" r="1" fill="#1965E8"/></g><circle cx="175.5" cy="300.5" r="2.5" fill="#1965E8" fill-opacity=".21"/><g filter="url(#filter8_d)"><circle cx="175.5" cy="300.5" r="1.25" fill="#1965E8"/></g><circle cx="190.5" cy="315.5" r="2.5" fill="#1965E8" fill-opacity=".21"/><g filter="url(#filter9_d)"><circle cx="190.5" cy="315.5" r="1.25" fill="#1965E8"/></g><circle cx="201.5" cy="291.5" r="2.5" fill="#1965E8" fill-opacity=".21"/><g filter="url(#filter10_d)"><circle cx="201.5" cy="291.5" r="1.25" fill="#1965E8"/></g><circle cx="217.5" cy="309.5" r="1.5" fill="#1965E8" fill-opacity=".21"/><g filter="url(#filter11_d)"><circle cx="217.5" cy="309.5" r=".75" fill="#1965E8"/></g><circle cx="237.5" cy="337.5" r="1.5" fill="#1965E8" fill-opacity=".21"/><g filter="url(#filter12_d)"><circle cx="237.5" cy="337.5" r=".75" fill="#1965E8"/></g><circle cx="248.5" cy="361.5" r="2.5" fill="#1965E8" fill-opacity=".21"/><g filter="url(#filter13_d)"><circle cx="248.5" cy="361.5" r="1.25" fill="#1965E8"/></g><circle cx="262" cy="395" r="4" fill="#1965E8" fill-opacity=".21"/><g filter="url(#filter14_d)"><circle cx="262" cy="395" r="2" fill="#1965E8"/></g><circle cx="291" cy="373" r="4" fill="#1965E8" fill-opacity=".21"/><g filter="url(#filter15_d)"><circle cx="291" cy="373" r="2" fill="#1965E8"/></g><circle cx="325" cy="392" r="2" fill="#1965E8" fill-opacity=".21"/><g filter="url(#filter16_d)"><circle cx="325" cy="392" r="1" fill="#1965E8"/></g><circle cx="355.5" cy="397.5" r="2.5" fill="#1965E8" fill-opacity=".21"/><g filter="url(#filter17_d)"><circle cx="355.5" cy="397.5" r="1.25" fill="#1965E8"/></g><circle cx="390.5" cy="382.5" r="2.5" fill="#1965E8" fill-opacity=".21"/><g filter="url(#filter18_d)"><circle cx="390.5" cy="382.5" r="1.25" fill="#1965E8"/></g><circle cx="268.5" cy="337.5" r="2.5" fill="#1965E8" fill-opacity=".21"/><g filter="url(#filter19_d)"><circle cx="268.5" cy="337.5" r="1.25" fill="#1965E8"/></g><circle cx="216.5" cy="331.5" r="2.5" fill="#1965E8" fill-opacity=".21"/><g filter="url(#filter20_d)"><circle cx="216.5" cy="331.5" r="1.25" fill="#1965E8"/></g><circle cx="212" cy="358" r="4" fill="#1965E8" fill-opacity=".21"/><g filter="url(#filter21_d)"><circle cx="212" cy="358" r="2" fill="#1965E8"/></g><circle cx="176" cy="362" r="4" fill="#1965E8" fill-opacity=".21"/><g filter="url(#filter22_d)"><circle cx="176" cy="362" r="2" fill="#1965E8"/></g><circle cx="136" cy="358" r="4" fill="#1965E8" fill-opacity=".21"/><g filter="url(#filter23_d)"><circle cx="136" cy="358" r="2" fill="#1965E8"/></g><circle cx="165" cy="323" r="3" fill="#1965E8" fill-opacity=".21"/><g filter="url(#filter24_d)"><circle cx="165" cy="323" r="1.5" fill="#1965E8"/></g><circle cx="152" cy="401" r="3" fill="#1965E8" fill-opacity=".21"/><g filter="url(#filter25_d)"><circle cx="152" cy="401" r="1.5" fill="#1965E8"/></g><circle cx="121" cy="391" r="3" fill="#1965E8" fill-opacity=".21"/><g filter="url(#filter26_d)"><circle cx="121" cy="391" r="1.5" fill="#1965E8"/></g><circle cx="127.5" cy="432.5" r="1.5" fill="#1965E8" fill-opacity=".21"/><g filter="url(#filter27_d)"><circle cx="127.5" cy="432.5" r=".75" fill="#1965E8"/></g><circle cx="116.5" cy="426.5" r="1.5" fill="#1965E8" fill-opacity=".21"/><g filter="url(#filter28_d)"><circle cx="116.5" cy="426.5" r=".75" fill="#1965E8"/></g><circle cx="108.5" cy="412.5" r="1.5" fill="#1965E8" fill-opacity=".21"/><g filter="url(#filter29_d)"><circle cx="108.5" cy="412.5" r=".75" fill="#1965E8"/></g><circle cx="101.5" cy="399.5" r="1.5" fill="#1965E8" fill-opacity=".21"/><g filter="url(#filter30_d)"><circle cx="101.5" cy="399.5" r=".75" fill="#1965E8"/></g><circle cx="106.5" cy="363.5" r="2.5" fill="#1965E8" fill-opacity=".21"/><g filter="url(#filter31_d)"><circle cx="106.5" cy="363.5" r="1.25" fill="#1965E8"/></g><circle cx="69.5" cy="321.5" r="2.5" fill="#1965E8" fill-opacity=".21"/><g filter="url(#filter32_d)"><circle cx="69.5" cy="321.5" r="1.25" fill="#1965E8"/></g><circle cx="128.5" cy="456.5" r="2.5" fill="#1965E8" fill-opacity=".21"/><g filter="url(#filter33_d)"><circle cx="128.5" cy="456.5" r="1.25" fill="#1965E8"/></g><circle cx="171" cy="416" r="2" fill="#1965E8" fill-opacity=".21"/><g filter="url(#filter34_d)"><circle cx="171" cy="416" r="1" fill="#1965E8"/></g><circle cx="147" cy="308" r="2" fill="#1965E8" fill-opacity=".21"/><g filter="url(#filter35_d)"><circle cx="147" cy="308" r="1" fill="#1965E8"/></g><circle cx="148" cy="287" r="2" fill="#1965E8" fill-opacity=".21"/><g filter="url(#filter36_d)"><circle cx="148" cy="287" r="1" fill="#1965E8"/></g><circle cx="150" cy="262" r="2" fill="#1965E8" fill-opacity=".21"/><g filter="url(#filter37_d)"><circle cx="150" cy="262" r="1" fill="#1965E8"/></g><circle cx="168.5" cy="241.5" r="2.5" fill="#1965E8" fill-opacity=".21"/><g filter="url(#filter38_d)"><circle cx="168.5" cy="241.5" r="1.25" fill="#1965E8"/></g><circle cx="200.5" cy="236.5" r="2.5" fill="#1965E8" fill-opacity=".21"/><g filter="url(#filter39_d)"><circle cx="200.5" cy="236.5" r="1.25" fill="#1965E8"/></g><circle cx="213.5" cy="216.5" r="2.5" fill="#1965E8" fill-opacity=".21"/><g filter="url(#filter40_d)"><circle cx="213.5" cy="216.5" r="1.25" fill="#1965E8"/></g><circle cx="230.5" cy="205.5" r="2.5" fill="#1965E8" fill-opacity=".21"/><g filter="url(#filter41_d)"><circle cx="230.5" cy="205.5" r="1.25" fill="#1965E8"/></g><circle cx="269" cy="172" r="4" fill="#1965E8" fill-opacity=".21"/><g filter="url(#filter42_d)"><circle cx="269" cy="172" r="2" fill="#1965E8"/></g><circle cx="220" cy="282" r="4" fill="#1965E8" fill-opacity=".21"/><g filter="url(#filter43_d)"><circle cx="220" cy="282" r="2" fill="#1965E8"/></g><circle cx="231" cy="253" r="4" fill="#1965E8" fill-opacity=".21"/><g filter="url(#filter44_d)"><circle cx="231" cy="253" r="2" fill="#1965E8"/></g><circle cx="240" cy="298" r="4" fill="#1965E8" fill-opacity=".21"/><g filter="url(#filter45_d)"><circle cx="240" cy="298" r="2" fill="#1965E8"/></g><circle cx="235.5" cy="276.5" r="2.5" fill="#1965E8" fill-opacity=".21"/><g filter="url(#filter46_d)"><circle cx="235.5" cy="276.5" r="1.25" fill="#1965E8"/></g><circle cx="256.5" cy="272.5" r="3.5" fill="#1965E8" fill-opacity=".21"/><g filter="url(#filter47_d)"><circle cx="256.5" cy="272.5" r="1.75" fill="#1965E8"/></g><circle cx="256" cy="244" r="3" fill="#1965E8" fill-opacity=".21"/><g filter="url(#filter48_d)"><circle cx="256" cy="244" r="1.5" fill="#1965E8"/></g><circle cx="296" cy="221" r="5" fill="#1965E8" fill-opacity=".21"/><g filter="url(#filter49_d)"><circle cx="296" cy="221" r="2.5" fill="#1965E8"/></g><circle cx="353" cy="262" r="5" fill="#1965E8" fill-opacity=".21"/><g filter="url(#filter50_d)"><circle cx="353" cy="262" r="2.5" fill="#1965E8"/></g><circle cx="328" cy="324" r="5" fill="#1965E8" fill-opacity=".21"/><g filter="url(#filter51_d)"><circle cx="328" cy="324" r="2.5" fill="#1965E8"/></g><circle cx="355" cy="362" r="5" fill="#1965E8" fill-opacity=".21"/><g filter="url(#filter52_d)"><circle cx="355" cy="362" r="2.5" fill="#1965E8"/></g><circle cx="419" cy="329" r="5" fill="#1965E8" fill-opacity=".21"/><g filter="url(#filter53_d)"><circle cx="419" cy="329" r="2.5" fill="#1965E8"/></g><circle cx="490" cy="401" r="5" fill="#1965E8" fill-opacity=".21"/><g filter="url(#filter54_d)"><circle cx="490" cy="401" r="2.5" fill="#1965E8"/></g><circle cx="458" cy="437" r="5" fill="#1965E8" fill-opacity=".21"/><g filter="url(#filter55_d)"><circle cx="458" cy="437" r="2.5" fill="#1965E8"/></g><circle cx="421" cy="418" r="5" fill="#1965E8" fill-opacity=".21"/><g filter="url(#filter56_d)"><circle cx="421" cy="418" r="2.5" fill="#1965E8"/></g><circle cx="473" cy="487" r="5" fill="#1965E8" fill-opacity=".21"/><g filter="url(#filter57_d)"><circle cx="473" cy="487" r="2.5" fill="#1965E8"/></g><circle cx="516" cy="454.5" r="3.5" fill="#1965E8" fill-opacity=".21"/><g filter="url(#filter58_d)"><circle cx="516" cy="454.5" r="1.75" fill="#1965E8"/></g><circle cx="541.5" cy="481.5" r="2.5" fill="#1965E8" fill-opacity=".21"/><g filter="url(#filter59_d)"><circle cx="541.5" cy="481.5" r="1.25" fill="#1965E8"/></g><circle cx="509.5" cy="515.5" r="3.5" fill="#1965E8" fill-opacity=".21"/><g filter="url(#filter60_d)"><circle cx="509.5" cy="515.5" r="1.75" fill="#1965E8"/></g><circle cx="584.5" cy="516.5" r="3.5" fill="#1965E8" fill-opacity=".21"/><g filter="url(#filter61_d)"><circle cx="584.5" cy="516.5" r="1.75" fill="#1965E8"/></g><circle cx="646.5" cy="447.5" r="7.5" fill="#1965E8" fill-opacity=".21"/><g filter="url(#filter62_d)"><circle cx="646.5" cy="447.5" r="3.75" fill="#1965E8"/></g><circle cx="720" cy="449" r="4" fill="#1965E8" fill-opacity=".21"/><g filter="url(#filter63_d)"><circle cx="720" cy="449" r="2" fill="#1965E8"/></g><circle cx="716" cy="518" r="4" fill="#1965E8" fill-opacity=".21"/><g filter="url(#filter64_d)"><circle cx="716" cy="518" r="2" fill="#1965E8"/></g><circle cx="814" cy="433" r="5" fill="#1965E8" fill-opacity=".21"/><g filter="url(#filter65_d)"><circle cx="814" cy="433" r="2.5" fill="#1965E8"/></g><circle cx="883" cy="308" r="5" fill="#1965E8" fill-opacity=".21"/><g filter="url(#filter66_d)"><circle cx="883" cy="308" r="2.5" fill="#1965E8"/></g><circle cx="923.5" cy="218.5" r="7.5" fill="#1965E8" fill-opacity=".21"/><g filter="url(#filter67_d)"><circle cx="923.5" cy="218.5" r="3.75" fill="#1965E8"/></g><circle cx="940.5" cy="121.5" r="9.5" fill="#1965E8" fill-opacity=".21"/><g filter="url(#filter68_d)"><circle cx="940.5" cy="121.5" r="4.75" fill="#1965E8"/></g><circle cx="1010" cy="260" r="6" fill="#1965E8" fill-opacity=".21"/><g filter="url(#filter69_d)"><circle cx="1010" cy="260" r="3" fill="#1965E8"/></g><circle cx="787" cy="310" r="9" fill="#1965E8" fill-opacity=".21"/><g filter="url(#filter70_d)"><circle cx="787" cy="310" r="4.5" fill="#1965E8"/></g><circle cx="945" cy="517" r="5" fill="#1965E8" fill-opacity=".21"/><g filter="url(#filter71_d)"><circle cx="945" cy="517" r="2.5" fill="#1965E8"/></g><circle cx="900.5" cy="483.5" r="3.5" fill="#1965E8" fill-opacity=".21"/><g filter="url(#filter72_d)"><circle cx="900.5" cy="483.5" r="1.75" fill="#1965E8"/></g><circle cx="483" cy="305" r="5" fill="#1965E8" fill-opacity=".21"/><g filter="url(#filter73_d)"><circle cx="483" cy="305" r="2.5" fill="#1965E8"/></g><circle cx="602" cy="292" r="8" fill="#1965E8" fill-opacity=".21"/><g filter="url(#filter74_d)"><circle cx="602" cy="292" r="4" fill="#1965E8"/></g><defs><filter id="filter0_d" x="902.5" y="441.5" width="31" height="31" filterUnits="userSpaceOnUse" color-interpolation-filters="sRGB"><feFlood flood-opacity="0" result="BackgroundImageFix"/><feColorMatrix in="SourceAlpha" values="0 0 0 0 0 0 0 0 0 0 0 0 0 0 0 0 0 0 127 0" result="hardAlpha"/><feOffset dy="1"/><feGaussianBlur stdDeviation="6.5"/><feColorMatrix values="0 0 0 0 0 0 0 0 0 0.466667 0 0 0 0 1 0 0 0 1 0"/><feBlend in2="BackgroundImageFix" result="effect1_dropShadow"/><feBlend in="SourceGraphic" in2="effect1_dropShadow" result="shape"/></filter><filter id="filter1_f" x="115.699" y="102.852" width="141.449" height="141.217" filterUnits="userSpaceOnUse" color-interpolation-filters="sRGB"><feFlood flood-opacity="0" result="BackgroundImageFix"/><feBlend in="SourceGraphic" in2="BackgroundImageFix" result="shape"/><feGaussianBlur stdDeviation="26.574" result="effect1_foregroundBlur"/></filter><filter id="filter2_dd" x=".556" y=".162" width="287.618" height="287.618" filterUnits="userSpaceOnUse" color-interpolation-filters="sRGB"><feFlood flood-opacity="0" result="BackgroundImageFix"/><feColorMatrix in="SourceAlpha" values="0 0 0 0 0 0 0 0 0 0 0 0 0 0 0 0 0 0 127 0" result="hardAlpha"/><feOffset dx="17.716" dy="17.716"/><feGaussianBlur stdDeviation="35.432"/><feColorMatrix values="0 0 0 0 0 0 0 0 0 0 0 0 0 0 0 0 0 0 0.6 0"/><feBlend in2="BackgroundImageFix" result="effect1_dropShadow"/><feColorMatrix in="SourceAlpha" values="0 0 0 0 0 0 0 0 0 0 0 0 0 0 0 0 0 0 127 0" result="hardAlpha"/><feOffset dx="-53.148" dy="-53.148"/><feGaussianBlur stdDeviation="53.148"/><feColorMatrix values="0 0 0 0 0.1 0 0 0 0 0.09875 0 0 0 0 0.09875 0 0 0 0.4 0"/><feBlend in2="effect1_dropShadow" result="effect2_dropShadow"/><feBlend in="SourceGraphic" in2="effect2_dropShadow" result="shape"/></filter><filter id="filter3_d" x="153.823" y="157.83" width="51.654" height="51.649" filterUnits="userSpaceOnUse" color-interpolation-filters="sRGB"><feFlood flood-opacity="0" result="BackgroundImageFix"/><feColorMatrix in="SourceAlpha" values="0 0 0 0 0 0 0 0 0 0 0 0 0 0 0 0 0 0 127 0" result="hardAlpha"/><feOffset dy="4"/><feGaussianBlur stdDeviation="10"/><feColorMatrix values="0 0 0 0 0 0 0 0 0 0 0 0 0 0 0 0 0 0 0.7 0"/><feBlend in2="BackgroundImageFix" result="effect1_dropShadow"/><feBlend in="SourceGraphic" in2="effect1_dropShadow" result="shape"/></filter><filter id="filter4_d" x="186" y="252" width="30" height="30" filterUnits="userSpaceOnUse" color-interpolation-filters="sRGB"><feFlood flood-opacity="0" result="BackgroundImageFix"/><feColorMatrix in="SourceAlpha" values="0 0 0 0 0 0 0 0 0 0 0 0 0 0 0 0 0 0 127 0" result="hardAlpha"/><feOffset dy="1"/><feGaussianBlur stdDeviation="6.5"/><feColorMatrix values="0 0 0 0 0 0 0 0 0 0.466667 0 0 0 0 1 0 0 0 1 0"/><feBlend in2="BackgroundImageFix" result="effect1_dropShadow"/><feBlend in="SourceGraphic" in2="effect1_dropShadow" result="shape"/></filter><filter id="filter5_d" x="158.5" y="249.5" width="29" height="29" filterUnits="userSpaceOnUse" color-interpolation-filters="sRGB"><feFlood flood-opacity="0" result="BackgroundImageFix"/><feColorMatrix in="SourceAlpha" values="0 0 0 0 0 0 0 0 0 0 0 0 0 0 0 0 0 0 127 0" result="hardAlpha"/><feOffset dy="1"/><feGaussianBlur stdDeviation="6.5"/><feColorMatrix values="0 0 0 0 0 0 0 0 0 0.466667 0 0 0 0 1 0 0 0 1 0"/><feBlend in2="BackgroundImageFix" result="effect1_dropShadow"/><feBlend in="SourceGraphic" in2="effect1_dropShadow" result="shape"/></filter><filter id="filter6_d" x="166.5" y="267.5" width="29" height="29" filterUnits="userSpaceOnUse" color-interpolation-filters="sRGB"><feFlood flood-opacity="0" result="BackgroundImageFix"/><feColorMatrix in="SourceAlpha" values="0 0 0 0 0 0 0 0 0 0 0 0 0 0 0 0 0 0 127 0" result="hardAlpha"/><feOffset dy="1"/><feGaussianBlur stdDeviation="6.5"/><feColorMatrix values="0 0 0 0 0 0 0 0 0 0.466667 0 0 0 0 1 0 0 0 1 0"/><feBlend in2="BackgroundImageFix" result="effect1_dropShadow"/><feBlend in="SourceGraphic" in2="effect1_dropShadow" result="shape"/></filter><filter id="filter7_d" x="149" y="268" width="28" height="28" filterUnits="userSpaceOnUse" color-interpolation-filters="sRGB"><feFlood flood-opacity="0" result="BackgroundImageFix"/><feColorMatrix in="SourceAlpha" values="0 0 0 0 0 0 0 0 0 0 0 0 0 0 0 0 0 0 127 0" result="hardAlpha"/><feOffset dy="1"/><feGaussianBlur stdDeviation="6.5"/><feColorMatrix values="0 0 0 0 0 0 0 0 0 0.466667 0 0 0 0 1 0 0 0 1 0"/><feBlend in2="BackgroundImageFix" result="effect1_dropShadow"/><feBlend in="SourceGraphic" in2="effect1_dropShadow" result="shape"/></filter><filter id="filter8_d" x="161.25" y="287.25" width="28.5" height="28.5" filterUnits="userSpaceOnUse" color-interpolation-filters="sRGB"><feFlood flood-opacity="0" result="BackgroundImageFix"/><feColorMatrix in="SourceAlpha" values="0 0 0 0 0 0 0 0 0 0 0 0 0 0 0 0 0 0 127 0" result="hardAlpha"/><feOffset dy="1"/><feGaussianBlur stdDeviation="6.5"/><feColorMatrix values="0 0 0 0 0 0 0 0 0 0.466667 0 0 0 0 1 0 0 0 1 0"/><feBlend in2="BackgroundImageFix" result="effect1_dropShadow"/><feBlend in="SourceGraphic" in2="effect1_dropShadow" result="shape"/></filter><filter id="filter9_d" x="176.25" y="302.25" width="28.5" height="28.5" filterUnits="userSpaceOnUse" color-interpolation-filters="sRGB"><feFlood flood-opacity="0" result="BackgroundImageFix"/><feColorMatrix in="SourceAlpha" values="0 0 0 0 0 0 0 0 0 0 0 0 0 0 0 0 0 0 127 0" result="hardAlpha"/><feOffset dy="1"/><feGaussianBlur stdDeviation="6.5"/><feColorMatrix values="0 0 0 0 0 0 0 0 0 0.466667 0 0 0 0 1 0 0 0 1 0"/><feBlend in2="BackgroundImageFix" result="effect1_dropShadow"/><feBlend in="SourceGraphic" in2="effect1_dropShadow" result="shape"/></filter><filter id="filter10_d" x="187.25" y="278.25" width="28.5" height="28.5" filterUnits="userSpaceOnUse" color-interpolation-filters="sRGB"><feFlood flood-opacity="0" result="BackgroundImageFix"/><feColorMatrix in="SourceAlpha" values="0 0 0 0 0 0 0 0 0 0 0 0 0 0 0 0 0 0 127 0" result="hardAlpha"/><feOffset dy="1"/><feGaussianBlur stdDeviation="6.5"/><feColorMatrix values="0 0 0 0 0 0 0 0 0 0.466667 0 0 0 0 1 0 0 0 1 0"/><feBlend in2="BackgroundImageFix" result="effect1_dropShadow"/><feBlend in="SourceGraphic" in2="effect1_dropShadow" result="shape"/></filter><filter id="filter11_d" x="203.75" y="296.75" width="27.5" height="27.5" filterUnits="userSpaceOnUse" color-interpolation-filters="sRGB"><feFlood flood-opacity="0" result="BackgroundImageFix"/><feColorMatrix in="SourceAlpha" values="0 0 0 0 0 0 0 0 0 0 0 0 0 0 0 0 0 0 127 0" result="hardAlpha"/><feOffset dy="1"/><feGaussianBlur stdDeviation="6.5"/><feColorMatrix values="0 0 0 0 0 0 0 0 0 0.466667 0 0 0 0 1 0 0 0 1 0"/><feBlend in2="BackgroundImageFix" result="effect1_dropShadow"/><feBlend in="SourceGraphic" in2="effect1_dropShadow" result="shape"/></filter><filter id="filter12_d" x="223.75" y="324.75" width="27.5" height="27.5" filterUnits="userSpaceOnUse" color-interpolation-filters="sRGB"><feFlood flood-opacity="0" result="BackgroundImageFix"/><feColorMatrix in="SourceAlpha" values="0 0 0 0 0 0 0 0 0 0 0 0 0 0 0 0 0 0 127 0" result="hardAlpha"/><feOffset dy="1"/><feGaussianBlur stdDeviation="6.5"/><feColorMatrix values="0 0 0 0 0 0 0 0 0 0.466667 0 0 0 0 1 0 0 0 1 0"/><feBlend in2="BackgroundImageFix" result="effect1_dropShadow"/><feBlend in="SourceGraphic" in2="effect1_dropShadow" result="shape"/></filter><filter id="filter13_d" x="234.25" y="348.25" width="28.5" height="28.5" filterUnits="userSpaceOnUse" color-interpolation-filters="sRGB"><feFlood flood-opacity="0" result="BackgroundImageFix"/><feColorMatrix in="SourceAlpha" values="0 0 0 0 0 0 0 0 0 0 0 0 0 0 0 0 0 0 127 0" result="hardAlpha"/><feOffset dy="1"/><feGaussianBlur stdDeviation="6.5"/><feColorMatrix values="0 0 0 0 0 0 0 0 0 0.466667 0 0 0 0 1 0 0 0 1 0"/><feBlend in2="BackgroundImageFix" result="effect1_dropShadow"/><feBlend in="SourceGraphic" in2="effect1_dropShadow" result="shape"/></filter><filter id="filter14_d" x="247" y="381" width="30" height="30" filterUnits="userSpaceOnUse" color-interpolation-filters="sRGB"><feFlood flood-opacity="0" result="BackgroundImageFix"/><feColorMatrix in="SourceAlpha" values="0 0 0 0 0 0 0 0 0 0 0 0 0 0 0 0 0 0 127 0" result="hardAlpha"/><feOffset dy="1"/><feGaussianBlur stdDeviation="6.5"/><feColorMatrix values="0 0 0 0 0 0 0 0 0 0.466667 0 0 0 0 1 0 0 0 1 0"/><feBlend in2="BackgroundImageFix" result="effect1_dropShadow"/><feBlend in="SourceGraphic" in2="effect1_dropShadow" result="shape"/></filter><filter id="filter15_d" x="276" y="359" width="30" height="30" filterUnits="userSpaceOnUse" color-interpolation-filters="sRGB"><feFlood flood-opacity="0" result="BackgroundImageFix"/><feColorMatrix in="SourceAlpha" values="0 0 0 0 0 0 0 0 0 0 0 0 0 0 0 0 0 0 127 0" result="hardAlpha"/><feOffset dy="1"/><feGaussianBlur stdDeviation="6.5"/><feColorMatrix values="0 0 0 0 0 0 0 0 0 0.466667 0 0 0 0 1 0 0 0 1 0"/><feBlend in2="BackgroundImageFix" result="effect1_dropShadow"/><feBlend in="SourceGraphic" in2="effect1_dropShadow" result="shape"/></filter><filter id="filter16_d" x="311" y="379" width="28" height="28" filterUnits="userSpaceOnUse" color-interpolation-filters="sRGB"><feFlood flood-opacity="0" result="BackgroundImageFix"/><feColorMatrix in="SourceAlpha" values="0 0 0 0 0 0 0 0 0 0 0 0 0 0 0 0 0 0 127 0" result="hardAlpha"/><feOffset dy="1"/><feGaussianBlur stdDeviation="6.5"/><feColorMatrix values="0 0 0 0 0 0 0 0 0 0.466667 0 0 0 0 1 0 0 0 1 0"/><feBlend in2="BackgroundImageFix" result="effect1_dropShadow"/><feBlend in="SourceGraphic" in2="effect1_dropShadow" result="shape"/></filter><filter id="filter17_d" x="341.25" y="384.25" width="28.5" height="28.5" filterUnits="userSpaceOnUse" color-interpolation-filters="sRGB"><feFlood flood-opacity="0" result="BackgroundImageFix"/><feColorMatrix in="SourceAlpha" values="0 0 0 0 0 0 0 0 0 0 0 0 0 0 0 0 0 0 127 0" result="hardAlpha"/><feOffset dy="1"/><feGaussianBlur stdDeviation="6.5"/><feColorMatrix values="0 0 0 0 0 0 0 0 0 0.466667 0 0 0 0 1 0 0 0 1 0"/><feBlend in2="BackgroundImageFix" result="effect1_dropShadow"/><feBlend in="SourceGraphic" in2="effect1_dropShadow" result="shape"/></filter><filter id="filter18_d" x="376.25" y="369.25" width="28.5" height="28.5" filterUnits="userSpaceOnUse" color-interpolation-filters="sRGB"><feFlood flood-opacity="0" result="BackgroundImageFix"/><feColorMatrix in="SourceAlpha" values="0 0 0 0 0 0 0 0 0 0 0 0 0 0 0 0 0 0 127 0" result="hardAlpha"/><feOffset dy="1"/><feGaussianBlur stdDeviation="6.5"/><feColorMatrix values="0 0 0 0 0 0 0 0 0 0.466667 0 0 0 0 1 0 0 0 1 0"/><feBlend in2="BackgroundImageFix" result="effect1_dropShadow"/><feBlend in="SourceGraphic" in2="effect1_dropShadow" result="shape"/></filter><filter id="filter19_d" x="254.25" y="324.25" width="28.5" height="28.5" filterUnits="userSpaceOnUse" color-interpolation-filters="sRGB"><feFlood flood-opacity="0" result="BackgroundImageFix"/><feColorMatrix in="SourceAlpha" values="0 0 0 0 0 0 0 0 0 0 0 0 0 0 0 0 0 0 127 0" result="hardAlpha"/><feOffset dy="1"/><feGaussianBlur stdDeviation="6.5"/><feColorMatrix values="0 0 0 0 0 0 0 0 0 0.466667 0 0 0 0 1 0 0 0 1 0"/><feBlend in2="BackgroundImageFix" result="effect1_dropShadow"/><feBlend in="SourceGraphic" in2="effect1_dropShadow" result="shape"/></filter><filter id="filter20_d" x="202.25" y="318.25" width="28.5" height="28.5" filterUnits="userSpaceOnUse" color-interpolation-filters="sRGB"><feFlood flood-opacity="0" result="BackgroundImageFix"/><feColorMatrix in="SourceAlpha" values="0 0 0 0 0 0 0 0 0 0 0 0 0 0 0 0 0 0 127 0" result="hardAlpha"/><feOffset dy="1"/><feGaussianBlur stdDeviation="6.5"/><feColorMatrix values="0 0 0 0 0 0 0 0 0 0.466667 0 0 0 0 1 0 0 0 1 0"/><feBlend in2="BackgroundImageFix" result="effect1_dropShadow"/><feBlend in="SourceGraphic" in2="effect1_dropShadow" result="shape"/></filter><filter id="filter21_d" x="197" y="344" width="30" height="30" filterUnits="userSpaceOnUse" color-interpolation-filters="sRGB"><feFlood flood-opacity="0" result="BackgroundImageFix"/><feColorMatrix in="SourceAlpha" values="0 0 0 0 0 0 0 0 0 0 0 0 0 0 0 0 0 0 127 0" result="hardAlpha"/><feOffset dy="1"/><feGaussianBlur stdDeviation="6.5"/><feColorMatrix values="0 0 0 0 0 0 0 0 0 0.466667 0 0 0 0 1 0 0 0 1 0"/><feBlend in2="BackgroundImageFix" result="effect1_dropShadow"/><feBlend in="SourceGraphic" in2="effect1_dropShadow" result="shape"/></filter><filter id="filter22_d" x="161" y="348" width="30" height="30" filterUnits="userSpaceOnUse" color-interpolation-filters="sRGB"><feFlood flood-opacity="0" result="BackgroundImageFix"/><feColorMatrix in="SourceAlpha" values="0 0 0 0 0 0 0 0 0 0 0 0 0 0 0 0 0 0 127 0" result="hardAlpha"/><feOffset dy="1"/><feGaussianBlur stdDeviation="6.5"/><feColorMatrix values="0 0 0 0 0 0 0 0 0 0.466667 0 0 0 0 1 0 0 0 1 0"/><feBlend in2="BackgroundImageFix" result="effect1_dropShadow"/><feBlend in="SourceGraphic" in2="effect1_dropShadow" result="shape"/></filter><filter id="filter23_d" x="121" y="344" width="30" height="30" filterUnits="userSpaceOnUse" color-interpolation-filters="sRGB"><feFlood flood-opacity="0" result="BackgroundImageFix"/><feColorMatrix in="SourceAlpha" values="0 0 0 0 0 0 0 0 0 0 0 0 0 0 0 0 0 0 127 0" result="hardAlpha"/><feOffset dy="1"/><feGaussianBlur stdDeviation="6.5"/><feColorMatrix values="0 0 0 0 0 0 0 0 0 0.466667 0 0 0 0 1 0 0 0 1 0"/><feBlend in2="BackgroundImageFix" result="effect1_dropShadow"/><feBlend in="SourceGraphic" in2="effect1_dropShadow" result="shape"/></filter><filter id="filter24_d" x="150.5" y="309.5" width="29" height="29" filterUnits="userSpaceOnUse" color-interpolation-filters="sRGB"><feFlood flood-opacity="0" result="BackgroundImageFix"/><feColorMatrix in="SourceAlpha" values="0 0 0 0 0 0 0 0 0 0 0 0 0 0 0 0 0 0 127 0" result="hardAlpha"/><feOffset dy="1"/><feGaussianBlur stdDeviation="6.5"/><feColorMatrix values="0 0 0 0 0 0 0 0 0 0.466667 0 0 0 0 1 0 0 0 1 0"/><feBlend in2="BackgroundImageFix" result="effect1_dropShadow"/><feBlend in="SourceGraphic" in2="effect1_dropShadow" result="shape"/></filter><filter id="filter25_d" x="137.5" y="387.5" width="29" height="29" filterUnits="userSpaceOnUse" color-interpolation-filters="sRGB"><feFlood flood-opacity="0" result="BackgroundImageFix"/><feColorMatrix in="SourceAlpha" values="0 0 0 0 0 0 0 0 0 0 0 0 0 0 0 0 0 0 127 0" result="hardAlpha"/><feOffset dy="1"/><feGaussianBlur stdDeviation="6.5"/><feColorMatrix values="0 0 0 0 0 0 0 0 0 0.466667 0 0 0 0 1 0 0 0 1 0"/><feBlend in2="BackgroundImageFix" result="effect1_dropShadow"/><feBlend in="SourceGraphic" in2="effect1_dropShadow" result="shape"/></filter><filter id="filter26_d" x="106.5" y="377.5" width="29" height="29" filterUnits="userSpaceOnUse" color-interpolation-filters="sRGB"><feFlood flood-opacity="0" result="BackgroundImageFix"/><feColorMatrix in="SourceAlpha" values="0 0 0 0 0 0 0 0 0 0 0 0 0 0 0 0 0 0 127 0" result="hardAlpha"/><feOffset dy="1"/><feGaussianBlur stdDeviation="6.5"/><feColorMatrix values="0 0 0 0 0 0 0 0 0 0.466667 0 0 0 0 1 0 0 0 1 0"/><feBlend in2="BackgroundImageFix" result="effect1_dropShadow"/><feBlend in="SourceGraphic" in2="effect1_dropShadow" result="shape"/></filter><filter id="filter27_d" x="113.75" y="419.75" width="27.5" height="27.5" filterUnits="userSpaceOnUse" color-interpolation-filters="sRGB"><feFlood flood-opacity="0" result="BackgroundImageFix"/><feColorMatrix in="SourceAlpha" values="0 0 0 0 0 0 0 0 0 0 0 0 0 0 0 0 0 0 127 0" result="hardAlpha"/><feOffset dy="1"/><feGaussianBlur stdDeviation="6.5"/><feColorMatrix values="0 0 0 0 0 0 0 0 0 0.466667 0 0 0 0 1 0 0 0 1 0"/><feBlend in2="BackgroundImageFix" result="effect1_dropShadow"/><feBlend in="SourceGraphic" in2="effect1_dropShadow" result="shape"/></filter><filter id="filter28_d" x="102.75" y="413.75" width="27.5" height="27.5" filterUnits="userSpaceOnUse" color-interpolation-filters="sRGB"><feFlood flood-opacity="0" result="BackgroundImageFix"/><feColorMatrix in="SourceAlpha" values="0 0 0 0 0 0 0 0 0 0 0 0 0 0 0 0 0 0 127 0" result="hardAlpha"/><feOffset dy="1"/><feGaussianBlur stdDeviation="6.5"/><feColorMatrix values="0 0 0 0 0 0 0 0 0 0.466667 0 0 0 0 1 0 0 0 1 0"/><feBlend in2="BackgroundImageFix" result="effect1_dropShadow"/><feBlend in="SourceGraphic" in2="effect1_dropShadow" result="shape"/></filter><filter id="filter29_d" x="94.75" y="399.75" width="27.5" height="27.5" filterUnits="userSpaceOnUse" color-interpolation-filters="sRGB"><feFlood flood-opacity="0" result="BackgroundImageFix"/><feColorMatrix in="SourceAlpha" values="0 0 0 0 0 0 0 0 0 0 0 0 0 0 0 0 0 0 127 0" result="hardAlpha"/><feOffset dy="1"/><feGaussianBlur stdDeviation="6.5"/><feColorMatrix values="0 0 0 0 0 0 0 0 0 0.466667 0 0 0 0 1 0 0 0 1 0"/><feBlend in2="BackgroundImageFix" result="effect1_dropShadow"/><feBlend in="SourceGraphic" in2="effect1_dropShadow" result="shape"/></filter><filter id="filter30_d" x="87.75" y="386.75" width="27.5" height="27.5" filterUnits="userSpaceOnUse" color-interpolation-filters="sRGB"><feFlood flood-opacity="0" result="BackgroundImageFix"/><feColorMatrix in="SourceAlpha" values="0 0 0 0 0 0 0 0 0 0 0 0 0 0 0 0 0 0 127 0" result="hardAlpha"/><feOffset dy="1"/><feGaussianBlur stdDeviation="6.5"/><feColorMatrix values="0 0 0 0 0 0 0 0 0 0.466667 0 0 0 0 1 0 0 0 1 0"/><feBlend in2="BackgroundImageFix" result="effect1_dropShadow"/><feBlend in="SourceGraphic" in2="effect1_dropShadow" result="shape"/></filter><filter id="filter31_d" x="92.25" y="350.25" width="28.5" height="28.5" filterUnits="userSpaceOnUse" color-interpolation-filters="sRGB"><feFlood flood-opacity="0" result="BackgroundImageFix"/><feColorMatrix in="SourceAlpha" values="0 0 0 0 0 0 0 0 0 0 0 0 0 0 0 0 0 0 127 0" result="hardAlpha"/><feOffset dy="1"/><feGaussianBlur stdDeviation="6.5"/><feColorMatrix values="0 0 0 0 0 0 0 0 0 0.466667 0 0 0 0 1 0 0 0 1 0"/><feBlend in2="BackgroundImageFix" result="effect1_dropShadow"/><feBlend in="SourceGraphic" in2="effect1_dropShadow" result="shape"/></filter><filter id="filter32_d" x="55.25" y="308.25" width="28.5" height="28.5" filterUnits="userSpaceOnUse" color-interpolation-filters="sRGB"><feFlood flood-opacity="0" result="BackgroundImageFix"/><feColorMatrix in="SourceAlpha" values="0 0 0 0 0 0 0 0 0 0 0 0 0 0 0 0 0 0 127 0" result="hardAlpha"/><feOffset dy="1"/><feGaussianBlur stdDeviation="6.5"/><feColorMatrix values="0 0 0 0 0 0 0 0 0 0.466667 0 0 0 0 1 0 0 0 1 0"/><feBlend in2="BackgroundImageFix" result="effect1_dropShadow"/><feBlend in="SourceGraphic" in2="effect1_dropShadow" result="shape"/></filter><filter id="filter33_d" x="114.25" y="443.25" width="28.5" height="28.5" filterUnits="userSpaceOnUse" color-interpolation-filters="sRGB"><feFlood flood-opacity="0" result="BackgroundImageFix"/><feColorMatrix in="SourceAlpha" values="0 0 0 0 0 0 0 0 0 0 0 0 0 0 0 0 0 0 127 0" result="hardAlpha"/><feOffset dy="1"/><feGaussianBlur stdDeviation="6.5"/><feColorMatrix values="0 0 0 0 0 0 0 0 0 0.466667 0 0 0 0 1 0 0 0 1 0"/><feBlend in2="BackgroundImageFix" result="effect1_dropShadow"/><feBlend in="SourceGraphic" in2="effect1_dropShadow" result="shape"/></filter><filter id="filter34_d" x="157" y="403" width="28" height="28" filterUnits="userSpaceOnUse" color-interpolation-filters="sRGB"><feFlood flood-opacity="0" result="BackgroundImageFix"/><feColorMatrix in="SourceAlpha" values="0 0 0 0 0 0 0 0 0 0 0 0 0 0 0 0 0 0 127 0" result="hardAlpha"/><feOffset dy="1"/><feGaussianBlur stdDeviation="6.5"/><feColorMatrix values="0 0 0 0 0 0 0 0 0 0.466667 0 0 0 0 1 0 0 0 1 0"/><feBlend in2="BackgroundImageFix" result="effect1_dropShadow"/><feBlend in="SourceGraphic" in2="effect1_dropShadow" result="shape"/></filter><filter id="filter35_d" x="133" y="295" width="28" height="28" filterUnits="userSpaceOnUse" color-interpolation-filters="sRGB"><feFlood flood-opacity="0" result="BackgroundImageFix"/><feColorMatrix in="SourceAlpha" values="0 0 0 0 0 0 0 0 0 0 0 0 0 0 0 0 0 0 127 0" result="hardAlpha"/><feOffset dy="1"/><feGaussianBlur stdDeviation="6.5"/><feColorMatrix values="0 0 0 0 0 0 0 0 0 0.466667 0 0 0 0 1 0 0 0 1 0"/><feBlend in2="BackgroundImageFix" result="effect1_dropShadow"/><feBlend in="SourceGraphic" in2="effect1_dropShadow" result="shape"/></filter><filter id="filter36_d" x="134" y="274" width="28" height="28" filterUnits="userSpaceOnUse" color-interpolation-filters="sRGB"><feFlood flood-opacity="0" result="BackgroundImageFix"/><feColorMatrix in="SourceAlpha" values="0 0 0 0 0 0 0 0 0 0 0 0 0 0 0 0 0 0 127 0" result="hardAlpha"/><feOffset dy="1"/><feGaussianBlur stdDeviation="6.5"/><feColorMatrix values="0 0 0 0 0 0 0 0 0 0.466667 0 0 0 0 1 0 0 0 1 0"/><feBlend in2="BackgroundImageFix" result="effect1_dropShadow"/><feBlend in="SourceGraphic" in2="effect1_dropShadow" result="shape"/></filter><filter id="filter37_d" x="136" y="249" width="28" height="28" filterUnits="userSpaceOnUse" color-interpolation-filters="sRGB"><feFlood flood-opacity="0" result="BackgroundImageFix"/><feColorMatrix in="SourceAlpha" values="0 0 0 0 0 0 0 0 0 0 0 0 0 0 0 0 0 0 127 0" result="hardAlpha"/><feOffset dy="1"/><feGaussianBlur stdDeviation="6.5"/><feColorMatrix values="0 0 0 0 0 0 0 0 0 0.466667 0 0 0 0 1 0 0 0 1 0"/><feBlend in2="BackgroundImageFix" result="effect1_dropShadow"/><feBlend in="SourceGraphic" in2="effect1_dropShadow" result="shape"/></filter><filter id="filter38_d" x="154.25" y="228.25" width="28.5" height="28.5" filterUnits="userSpaceOnUse" color-interpolation-filters="sRGB"><feFlood flood-opacity="0" result="BackgroundImageFix"/><feColorMatrix in="SourceAlpha" values="0 0 0 0 0 0 0 0 0 0 0 0 0 0 0 0 0 0 127 0" result="hardAlpha"/><feOffset dy="1"/><feGaussianBlur stdDeviation="6.5"/><feColorMatrix values="0 0 0 0 0 0 0 0 0 0.466667 0 0 0 0 1 0 0 0 1 0"/><feBlend in2="BackgroundImageFix" result="effect1_dropShadow"/><feBlend in="SourceGraphic" in2="effect1_dropShadow" result="shape"/></filter><filter id="filter39_d" x="186.25" y="223.25" width="28.5" height="28.5" filterUnits="userSpaceOnUse" color-interpolation-filters="sRGB"><feFlood flood-opacity="0" result="BackgroundImageFix"/><feColorMatrix in="SourceAlpha" values="0 0 0 0 0 0 0 0 0 0 0 0 0 0 0 0 0 0 127 0" result="hardAlpha"/><feOffset dy="1"/><feGaussianBlur stdDeviation="6.5"/><feColorMatrix values="0 0 0 0 0 0 0 0 0 0.466667 0 0 0 0 1 0 0 0 1 0"/><feBlend in2="BackgroundImageFix" result="effect1_dropShadow"/><feBlend in="SourceGraphic" in2="effect1_dropShadow" result="shape"/></filter><filter id="filter40_d" x="199.25" y="203.25" width="28.5" height="28.5" filterUnits="userSpaceOnUse" color-interpolation-filters="sRGB"><feFlood flood-opacity="0" result="BackgroundImageFix"/><feColorMatrix in="SourceAlpha" values="0 0 0 0 0 0 0 0 0 0 0 0 0 0 0 0 0 0 127 0" result="hardAlpha"/><feOffset dy="1"/><feGaussianBlur stdDeviation="6.5"/><feColorMatrix values="0 0 0 0 0 0 0 0 0 0.466667 0 0 0 0 1 0 0 0 1 0"/><feBlend in2="BackgroundImageFix" result="effect1_dropShadow"/><feBlend in="SourceGraphic" in2="effect1_dropShadow" result="shape"/></filter><filter id="filter41_d" x="216.25" y="192.25" width="28.5" height="28.5" filterUnits="userSpaceOnUse" color-interpolation-filters="sRGB"><feFlood flood-opacity="0" result="BackgroundImageFix"/><feColorMatrix in="SourceAlpha" values="0 0 0 0 0 0 0 0 0 0 0 0 0 0 0 0 0 0 127 0" result="hardAlpha"/><feOffset dy="1"/><feGaussianBlur stdDeviation="6.5"/><feColorMatrix values="0 0 0 0 0 0 0 0 0 0.466667 0 0 0 0 1 0 0 0 1 0"/><feBlend in2="BackgroundImageFix" result="effect1_dropShadow"/><feBlend in="SourceGraphic" in2="effect1_dropShadow" result="shape"/></filter><filter id="filter42_d" x="254" y="158" width="30" height="30" filterUnits="userSpaceOnUse" color-interpolation-filters="sRGB"><feFlood flood-opacity="0" result="BackgroundImageFix"/><feColorMatrix in="SourceAlpha" values="0 0 0 0 0 0 0 0 0 0 0 0 0 0 0 0 0 0 127 0" result="hardAlpha"/><feOffset dy="1"/><feGaussianBlur stdDeviation="6.5"/><feColorMatrix values="0 0 0 0 0 0 0 0 0 0.466667 0 0 0 0 1 0 0 0 1 0"/><feBlend in2="BackgroundImageFix" result="effect1_dropShadow"/><feBlend in="SourceGraphic" in2="effect1_dropShadow" result="shape"/></filter><filter id="filter43_d" x="205" y="268" width="30" height="30" filterUnits="userSpaceOnUse" color-interpolation-filters="sRGB"><feFlood flood-opacity="0" result="BackgroundImageFix"/><feColorMatrix in="SourceAlpha" values="0 0 0 0 0 0 0 0 0 0 0 0 0 0 0 0 0 0 127 0" result="hardAlpha"/><feOffset dy="1"/><feGaussianBlur stdDeviation="6.5"/><feColorMatrix values="0 0 0 0 0 0 0 0 0 0.466667 0 0 0 0 1 0 0 0 1 0"/><feBlend in2="BackgroundImageFix" result="effect1_dropShadow"/><feBlend in="SourceGraphic" in2="effect1_dropShadow" result="shape"/></filter><filter id="filter44_d" x="216" y="239" width="30" height="30" filterUnits="userSpaceOnUse" color-interpolation-filters="sRGB"><feFlood flood-opacity="0" result="BackgroundImageFix"/><feColorMatrix in="SourceAlpha" values="0 0 0 0 0 0 0 0 0 0 0 0 0 0 0 0 0 0 127 0" result="hardAlpha"/><feOffset dy="1"/><feGaussianBlur stdDeviation="6.5"/><feColorMatrix values="0 0 0 0 0 0 0 0 0 0.466667 0 0 0 0 1 0 0 0 1 0"/><feBlend in2="BackgroundImageFix" result="effect1_dropShadow"/><feBlend in="SourceGraphic" in2="effect1_dropShadow" result="shape"/></filter><filter id="filter45_d" x="225" y="284" width="30" height="30" filterUnits="userSpaceOnUse" color-interpolation-filters="sRGB"><feFlood flood-opacity="0" result="BackgroundImageFix"/><feColorMatrix in="SourceAlpha" values="0 0 0 0 0 0 0 0 0 0 0 0 0 0 0 0 0 0 127 0" result="hardAlpha"/><feOffset dy="1"/><feGaussianBlur stdDeviation="6.5"/><feColorMatrix values="0 0 0 0 0 0 0 0 0 0.466667 0 0 0 0 1 0 0 0 1 0"/><feBlend in2="BackgroundImageFix" result="effect1_dropShadow"/><feBlend in="SourceGraphic" in2="effect1_dropShadow" result="shape"/></filter><filter id="filter46_d" x="221.25" y="263.25" width="28.5" height="28.5" filterUnits="userSpaceOnUse" color-interpolation-filters="sRGB"><feFlood flood-opacity="0" result="BackgroundImageFix"/><feColorMatrix in="SourceAlpha" values="0 0 0 0 0 0 0 0 0 0 0 0 0 0 0 0 0 0 127 0" result="hardAlpha"/><feOffset dy="1"/><feGaussianBlur stdDeviation="6.5"/><feColorMatrix values="0 0 0 0 0 0 0 0 0 0.466667 0 0 0 0 1 0 0 0 1 0"/><feBlend in2="BackgroundImageFix" result="effect1_dropShadow"/><feBlend in="SourceGraphic" in2="effect1_dropShadow" result="shape"/></filter><filter id="filter47_d" x="241.75" y="258.75" width="29.5" height="29.5" filterUnits="userSpaceOnUse" color-interpolation-filters="sRGB"><feFlood flood-opacity="0" result="BackgroundImageFix"/><feColorMatrix in="SourceAlpha" values="0 0 0 0 0 0 0 0 0 0 0 0 0 0 0 0 0 0 127 0" result="hardAlpha"/><feOffset dy="1"/><feGaussianBlur stdDeviation="6.5"/><feColorMatrix values="0 0 0 0 0 0 0 0 0 0.466667 0 0 0 0 1 0 0 0 1 0"/><feBlend in2="BackgroundImageFix" result="effect1_dropShadow"/><feBlend in="SourceGraphic" in2="effect1_dropShadow" result="shape"/></filter><filter id="filter48_d" x="241.5" y="230.5" width="29" height="29" filterUnits="userSpaceOnUse" color-interpolation-filters="sRGB"><feFlood flood-opacity="0" result="BackgroundImageFix"/><feColorMatrix in="SourceAlpha" values="0 0 0 0 0 0 0 0 0 0 0 0 0 0 0 0 0 0 127 0" result="hardAlpha"/><feOffset dy="1"/><feGaussianBlur stdDeviation="6.5"/><feColorMatrix values="0 0 0 0 0 0 0 0 0 0.466667 0 0 0 0 1 0 0 0 1 0"/><feBlend in2="BackgroundImageFix" result="effect1_dropShadow"/><feBlend in="SourceGraphic" in2="effect1_dropShadow" result="shape"/></filter><filter id="filter49_d" x="280.5" y="206.5" width="31" height="31" filterUnits="userSpaceOnUse" color-interpolation-filters="sRGB"><feFlood flood-opacity="0" result="BackgroundImageFix"/><feColorMatrix in="SourceAlpha" values="0 0 0 0 0 0 0 0 0 0 0 0 0 0 0 0 0 0 127 0" result="hardAlpha"/><feOffset dy="1"/><feGaussianBlur stdDeviation="6.5"/><feColorMatrix values="0 0 0 0 0 0 0 0 0 0.466667 0 0 0 0 1 0 0 0 1 0"/><feBlend in2="BackgroundImageFix" result="effect1_dropShadow"/><feBlend in="SourceGraphic" in2="effect1_dropShadow" result="shape"/></filter><filter id="filter50_d" x="337.5" y="247.5" width="31" height="31" filterUnits="userSpaceOnUse" color-interpolation-filters="sRGB"><feFlood flood-opacity="0" result="BackgroundImageFix"/><feColorMatrix in="SourceAlpha" values="0 0 0 0 0 0 0 0 0 0 0 0 0 0 0 0 0 0 127 0" result="hardAlpha"/><feOffset dy="1"/><feGaussianBlur stdDeviation="6.5"/><feColorMatrix values="0 0 0 0 0 0 0 0 0 0.466667 0 0 0 0 1 0 0 0 1 0"/><feBlend in2="BackgroundImageFix" result="effect1_dropShadow"/><feBlend in="SourceGraphic" in2="effect1_dropShadow" result="shape"/></filter><filter id="filter51_d" x="312.5" y="309.5" width="31" height="31" filterUnits="userSpaceOnUse" color-interpolation-filters="sRGB"><feFlood flood-opacity="0" result="BackgroundImageFix"/><feColorMatrix in="SourceAlpha" values="0 0 0 0 0 0 0 0 0 0 0 0 0 0 0 0 0 0 127 0" result="hardAlpha"/><feOffset dy="1"/><feGaussianBlur stdDeviation="6.5"/><feColorMatrix values="0 0 0 0 0 0 0 0 0 0.466667 0 0 0 0 1 0 0 0 1 0"/><feBlend in2="BackgroundImageFix" result="effect1_dropShadow"/><feBlend in="SourceGraphic" in2="effect1_dropShadow" result="shape"/></filter><filter id="filter52_d" x="339.5" y="347.5" width="31" height="31" filterUnits="userSpaceOnUse" color-interpolation-filters="sRGB"><feFlood flood-opacity="0" result="BackgroundImageFix"/><feColorMatrix in="SourceAlpha" values="0 0 0 0 0 0 0 0 0 0 0 0 0 0 0 0 0 0 127 0" result="hardAlpha"/><feOffset dy="1"/><feGaussianBlur stdDeviation="6.5"/><feColorMatrix values="0 0 0 0 0 0 0 0 0 0.466667 0 0 0 0 1 0 0 0 1 0"/><feBlend in2="BackgroundImageFix" result="effect1_dropShadow"/><feBlend in="SourceGraphic" in2="effect1_dropShadow" result="shape"/></filter><filter id="filter53_d" x="403.5" y="314.5" width="31" height="31" filterUnits="userSpaceOnUse" color-interpolation-filters="sRGB"><feFlood flood-opacity="0" result="BackgroundImageFix"/><feColorMatrix in="SourceAlpha" values="0 0 0 0 0 0 0 0 0 0 0 0 0 0 0 0 0 0 127 0" result="hardAlpha"/><feOffset dy="1"/><feGaussianBlur stdDeviation="6.5"/><feColorMatrix values="0 0 0 0 0 0 0 0 0 0.466667 0 0 0 0 1 0 0 0 1 0"/><feBlend in2="BackgroundImageFix" result="effect1_dropShadow"/><feBlend in="SourceGraphic" in2="effect1_dropShadow" result="shape"/></filter><filter id="filter54_d" x="474.5" y="386.5" width="31" height="31" filterUnits="userSpaceOnUse" color-interpolation-filters="sRGB"><feFlood flood-opacity="0" result="BackgroundImageFix"/><feColorMatrix in="SourceAlpha" values="0 0 0 0 0 0 0 0 0 0 0 0 0 0 0 0 0 0 127 0" result="hardAlpha"/><feOffset dy="1"/><feGaussianBlur stdDeviation="6.5"/><feColorMatrix values="0 0 0 0 0 0 0 0 0 0.466667 0 0 0 0 1 0 0 0 1 0"/><feBlend in2="BackgroundImageFix" result="effect1_dropShadow"/><feBlend in="SourceGraphic" in2="effect1_dropShadow" result="shape"/></filter><filter id="filter55_d" x="442.5" y="422.5" width="31" height="31" filterUnits="userSpaceOnUse" color-interpolation-filters="sRGB"><feFlood flood-opacity="0" result="BackgroundImageFix"/><feColorMatrix in="SourceAlpha" values="0 0 0 0 0 0 0 0 0 0 0 0 0 0 0 0 0 0 127 0" result="hardAlpha"/><feOffset dy="1"/><feGaussianBlur stdDeviation="6.5"/><feColorMatrix values="0 0 0 0 0 0 0 0 0 0.466667 0 0 0 0 1 0 0 0 1 0"/><feBlend in2="BackgroundImageFix" result="effect1_dropShadow"/><feBlend in="SourceGraphic" in2="effect1_dropShadow" result="shape"/></filter><filter id="filter56_d" x="405.5" y="403.5" width="31" height="31" filterUnits="userSpaceOnUse" color-interpolation-filters="sRGB"><feFlood flood-opacity="0" result="BackgroundImageFix"/><feColorMatrix in="SourceAlpha" values="0 0 0 0 0 0 0 0 0 0 0 0 0 0 0 0 0 0 127 0" result="hardAlpha"/><feOffset dy="1"/><feGaussianBlur stdDeviation="6.5"/><feColorMatrix values="0 0 0 0 0 0 0 0 0 0.466667 0 0 0 0 1 0 0 0 1 0"/><feBlend in2="BackgroundImageFix" result="effect1_dropShadow"/><feBlend in="SourceGraphic" in2="effect1_dropShadow" result="shape"/></filter><filter id="filter57_d" x="457.5" y="472.5" width="31" height="31" filterUnits="userSpaceOnUse" color-interpolation-filters="sRGB"><feFlood flood-opacity="0" result="BackgroundImageFix"/><feColorMatrix in="SourceAlpha" values="0 0 0 0 0 0 0 0 0 0 0 0 0 0 0 0 0 0 127 0" result="hardAlpha"/><feOffset dy="1"/><feGaussianBlur stdDeviation="6.5"/><feColorMatrix values="0 0 0 0 0 0 0 0 0 0.466667 0 0 0 0 1 0 0 0 1 0"/><feBlend in2="BackgroundImageFix" result="effect1_dropShadow"/><feBlend in="SourceGraphic" in2="effect1_dropShadow" result="shape"/></filter><filter id="filter58_d" x="501.25" y="440.75" width="29.5" height="29.5" filterUnits="userSpaceOnUse" color-interpolation-filters="sRGB"><feFlood flood-opacity="0" result="BackgroundImageFix"/><feColorMatrix in="SourceAlpha" values="0 0 0 0 0 0 0 0 0 0 0 0 0 0 0 0 0 0 127 0" result="hardAlpha"/><feOffset dy="1"/><feGaussianBlur stdDeviation="6.5"/><feColorMatrix values="0 0 0 0 0 0 0 0 0 0.466667 0 0 0 0 1 0 0 0 1 0"/><feBlend in2="BackgroundImageFix" result="effect1_dropShadow"/><feBlend in="SourceGraphic" in2="effect1_dropShadow" result="shape"/></filter><filter id="filter59_d" x="527.25" y="468.25" width="28.5" height="28.5" filterUnits="userSpaceOnUse" color-interpolation-filters="sRGB"><feFlood flood-opacity="0" result="BackgroundImageFix"/><feColorMatrix in="SourceAlpha" values="0 0 0 0 0 0 0 0 0 0 0 0 0 0 0 0 0 0 127 0" result="hardAlpha"/><feOffset dy="1"/><feGaussianBlur stdDeviation="6.5"/><feColorMatrix values="0 0 0 0 0 0 0 0 0 0.466667 0 0 0 0 1 0 0 0 1 0"/><feBlend in2="BackgroundImageFix" result="effect1_dropShadow"/><feBlend in="SourceGraphic" in2="effect1_dropShadow" result="shape"/></filter><filter id="filter60_d" x="494.75" y="501.75" width="29.5" height="29.5" filterUnits="userSpaceOnUse" color-interpolation-filters="sRGB"><feFlood flood-opacity="0" result="BackgroundImageFix"/><feColorMatrix in="SourceAlpha" values="0 0 0 0 0 0 0 0 0 0 0 0 0 0 0 0 0 0 127 0" result="hardAlpha"/><feOffset dy="1"/><feGaussianBlur stdDeviation="6.5"/><feColorMatrix values="0 0 0 0 0 0 0 0 0 0.466667 0 0 0 0 1 0 0 0 1 0"/><feBlend in2="BackgroundImageFix" result="effect1_dropShadow"/><feBlend in="SourceGraphic" in2="effect1_dropShadow" result="shape"/></filter><filter id="filter61_d" x="569.75" y="502.75" width="29.5" height="29.5" filterUnits="userSpaceOnUse" color-interpolation-filters="sRGB"><feFlood flood-opacity="0" result="BackgroundImageFix"/><feColorMatrix in="SourceAlpha" values="0 0 0 0 0 0 0 0 0 0 0 0 0 0 0 0 0 0 127 0" result="hardAlpha"/><feOffset dy="1"/><feGaussianBlur stdDeviation="6.5"/><feColorMatrix values="0 0 0 0 0 0 0 0 0 0.466667 0 0 0 0 1 0 0 0 1 0"/><feBlend in2="BackgroundImageFix" result="effect1_dropShadow"/><feBlend in="SourceGraphic" in2="effect1_dropShadow" result="shape"/></filter><filter id="filter62_d" x="629.75" y="431.75" width="33.5" height="33.5" filterUnits="userSpaceOnUse" color-interpolation-filters="sRGB"><feFlood flood-opacity="0" result="BackgroundImageFix"/><feColorMatrix in="SourceAlpha" values="0 0 0 0 0 0 0 0 0 0 0 0 0 0 0 0 0 0 127 0" result="hardAlpha"/><feOffset dy="1"/><feGaussianBlur stdDeviation="6.5"/><feColorMatrix values="0 0 0 0 0 0 0 0 0 0.466667 0 0 0 0 1 0 0 0 1 0"/><feBlend in2="BackgroundImageFix" result="effect1_dropShadow"/><feBlend in="SourceGraphic" in2="effect1_dropShadow" result="shape"/></filter><filter id="filter63_d" x="705" y="435" width="30" height="30" filterUnits="userSpaceOnUse" color-interpolation-filters="sRGB"><feFlood flood-opacity="0" result="BackgroundImageFix"/><feColorMatrix in="SourceAlpha" values="0 0 0 0 0 0 0 0 0 0 0 0 0 0 0 0 0 0 127 0" result="hardAlpha"/><feOffset dy="1"/><feGaussianBlur stdDeviation="6.5"/><feColorMatrix values="0 0 0 0 0 0 0 0 0 0.466667 0 0 0 0 1 0 0 0 1 0"/><feBlend in2="BackgroundImageFix" result="effect1_dropShadow"/><feBlend in="SourceGraphic" in2="effect1_dropShadow" result="shape"/></filter><filter id="filter64_d" x="701" y="504" width="30" height="30" filterUnits="userSpaceOnUse" color-interpolation-filters="sRGB"><feFlood flood-opacity="0" result="BackgroundImageFix"/><feColorMatrix in="SourceAlpha" values="0 0 0 0 0 0 0 0 0 0 0 0 0 0 0 0 0 0 127 0" result="hardAlpha"/><feOffset dy="1"/><feGaussianBlur stdDeviation="6.5"/><feColorMatrix values="0 0 0 0 0 0 0 0 0 0.466667 0 0 0 0 1 0 0 0 1 0"/><feBlend in2="BackgroundImageFix" result="effect1_dropShadow"/><feBlend in="SourceGraphic" in2="effect1_dropShadow" result="shape"/></filter><filter id="filter65_d" x="798.5" y="418.5" width="31" height="31" filterUnits="userSpaceOnUse" color-interpolation-filters="sRGB"><feFlood flood-opacity="0" result="BackgroundImageFix"/><feColorMatrix in="SourceAlpha" values="0 0 0 0 0 0 0 0 0 0 0 0 0 0 0 0 0 0 127 0" result="hardAlpha"/><feOffset dy="1"/><feGaussianBlur stdDeviation="6.5"/><feColorMatrix values="0 0 0 0 0 0 0 0 0 0.466667 0 0 0 0 1 0 0 0 1 0"/><feBlend in2="BackgroundImageFix" result="effect1_dropShadow"/><feBlend in="SourceGraphic" in2="effect1_dropShadow" result="shape"/></filter><filter id="filter66_d" x="867.5" y="293.5" width="31" height="31" filterUnits="userSpaceOnUse" color-interpolation-filters="sRGB"><feFlood flood-opacity="0" result="BackgroundImageFix"/><feColorMatrix in="SourceAlpha" values="0 0 0 0 0 0 0 0 0 0 0 0 0 0 0 0 0 0 127 0" result="hardAlpha"/><feOffset dy="1"/><feGaussianBlur stdDeviation="6.5"/><feColorMatrix values="0 0 0 0 0 0 0 0 0 0.466667 0 0 0 0 1 0 0 0 1 0"/><feBlend in2="BackgroundImageFix" result="effect1_dropShadow"/><feBlend in="SourceGraphic" in2="effect1_dropShadow" result="shape"/></filter><filter id="filter67_d" x="906.75" y="202.75" width="33.5" height="33.5" filterUnits="userSpaceOnUse" color-interpolation-filters="sRGB"><feFlood flood-opacity="0" result="BackgroundImageFix"/><feColorMatrix in="SourceAlpha" values="0 0 0 0 0 0 0 0 0 0 0 0 0 0 0 0 0 0 127 0" result="hardAlpha"/><feOffset dy="1"/><feGaussianBlur stdDeviation="6.5"/><feColorMatrix values="0 0 0 0 0 0 0 0 0 0.466667 0 0 0 0 1 0 0 0 1 0"/><feBlend in2="BackgroundImageFix" result="effect1_dropShadow"/><feBlend in="SourceGraphic" in2="effect1_dropShadow" result="shape"/></filter><filter id="filter68_d" x="922.75" y="104.75" width="35.5" height="35.5" filterUnits="userSpaceOnUse" color-interpolation-filters="sRGB"><feFlood flood-opacity="0" result="BackgroundImageFix"/><feColorMatrix in="SourceAlpha" values="0 0 0 0 0 0 0 0 0 0 0 0 0 0 0 0 0 0 127 0" result="hardAlpha"/><feOffset dy="1"/><feGaussianBlur stdDeviation="6.5"/><feColorMatrix values="0 0 0 0 0 0 0 0 0 0.466667 0 0 0 0 1 0 0 0 1 0"/><feBlend in2="BackgroundImageFix" result="effect1_dropShadow"/><feBlend in="SourceGraphic" in2="effect1_dropShadow" result="shape"/></filter><filter id="filter69_d" x="994" y="245" width="32" height="32" filterUnits="userSpaceOnUse" color-interpolation-filters="sRGB"><feFlood flood-opacity="0" result="BackgroundImageFix"/><feColorMatrix in="SourceAlpha" values="0 0 0 0 0 0 0 0 0 0 0 0 0 0 0 0 0 0 127 0" result="hardAlpha"/><feOffset dy="1"/><feGaussianBlur stdDeviation="6.5"/><feColorMatrix values="0 0 0 0 0 0 0 0 0 0.466667 0 0 0 0 1 0 0 0 1 0"/><feBlend in2="BackgroundImageFix" result="effect1_dropShadow"/><feBlend in="SourceGraphic" in2="effect1_dropShadow" result="shape"/></filter><filter id="filter70_d" x="769.5" y="293.5" width="35" height="35" filterUnits="userSpaceOnUse" color-interpolation-filters="sRGB"><feFlood flood-opacity="0" result="BackgroundImageFix"/><feColorMatrix in="SourceAlpha" values="0 0 0 0 0 0 0 0 0 0 0 0 0 0 0 0 0 0 127 0" result="hardAlpha"/><feOffset dy="1"/><feGaussianBlur stdDeviation="6.5"/><feColorMatrix values="0 0 0 0 0 0 0 0 0 0.466667 0 0 0 0 1 0 0 0 1 0"/><feBlend in2="BackgroundImageFix" result="effect1_dropShadow"/><feBlend in="SourceGraphic" in2="effect1_dropShadow" result="shape"/></filter><filter id="filter71_d" x="929.5" y="502.5" width="31" height="31" filterUnits="userSpaceOnUse" color-interpolation-filters="sRGB"><feFlood flood-opacity="0" result="BackgroundImageFix"/><feColorMatrix in="SourceAlpha" values="0 0 0 0 0 0 0 0 0 0 0 0 0 0 0 0 0 0 127 0" result="hardAlpha"/><feOffset dy="1"/><feGaussianBlur stdDeviation="6.5"/><feColorMatrix values="0 0 0 0 0 0 0 0 0 0.466667 0 0 0 0 1 0 0 0 1 0"/><feBlend in2="BackgroundImageFix" result="effect1_dropShadow"/><feBlend in="SourceGraphic" in2="effect1_dropShadow" result="shape"/></filter><filter id="filter72_d" x="885.75" y="469.75" width="29.5" height="29.5" filterUnits="userSpaceOnUse" color-interpolation-filters="sRGB"><feFlood flood-opacity="0" result="BackgroundImageFix"/><feColorMatrix in="SourceAlpha" values="0 0 0 0 0 0 0 0 0 0 0 0 0 0 0 0 0 0 127 0" result="hardAlpha"/><feOffset dy="1"/><feGaussianBlur stdDeviation="6.5"/><feColorMatrix values="0 0 0 0 0 0 0 0 0 0.466667 0 0 0 0 1 0 0 0 1 0"/><feBlend in2="BackgroundImageFix" result="effect1_dropShadow"/><feBlend in="SourceGraphic" in2="effect1_dropShadow" result="shape"/></filter><filter id="filter73_d" x="467.5" y="290.5" width="31" height="31" filterUnits="userSpaceOnUse" color-interpolation-filters="sRGB"><feFlood flood-opacity="0" result="BackgroundImageFix"/><feColorMatrix in="SourceAlpha" values="0 0 0 0 0 0 0 0 0 0 0 0 0 0 0 0 0 0 127 0" result="hardAlpha"/><feOffset dy="1"/><feGaussianBlur stdDeviation="6.5"/><feColorMatrix values="0 0 0 0 0 0 0 0 0 0.466667 0 0 0 0 1 0 0 0 1 0"/><feBlend in2="BackgroundImageFix" result="effect1_dropShadow"/><feBlend in="SourceGraphic" in2="effect1_dropShadow" result="shape"/></filter><filter id="filter74_d" x="585" y="276" width="34" height="34" filterUnits="userSpaceOnUse" color-interpolation-filters="sRGB"><feFlood flood-opacity="0" result="BackgroundImageFix"/><feColorMatrix in="SourceAlpha" values="0 0 0 0 0 0 0 0 0 0 0 0 0 0 0 0 0 0 127 0" result="hardAlpha"/><feOffset dy="1"/><feGaussianBlur stdDeviation="6.5"/><feColorMatrix values="0 0 0 0 0 0 0 0 0 0.466667 0 0 0 0 1 0 0 0 1 0"/><feBlend in2="BackgroundImageFix" result="effect1_dropShadow"/><feBlend in="SourceGraphic" in2="effect1_dropShadow" result="shape"/></filter><linearGradient id="paint1_linear" x1="156.838" y1="153.55" x2="212.016" y2="174.661" gradientUnits="userSpaceOnUse"><stop stop-color="#FECF03"/><stop offset="1" stop-color="#5E4D01"/></linearGradient><linearGradient id="paint2_linear" x1="200.144" y1="200.131" x2="160.928" y2="155.09" gradientUnits="userSpaceOnUse"><stop/><stop offset="1" stop-color="#242424"/></linearGradient><linearGradient id="paint3_linear" x1="156.838" y1="153.55" x2="212.017" y2="174.661" gradientUnits="userSpaceOnUse"><stop/><stop offset="1" stop-color="#1B1B1B"/></linearGradient><radialGradient id="paint0_radial" cx="0" cy="0" r="1" gradientUnits="userSpaceOnUse" gradientTransform="matrix(0 17.4603 -17.5767 0 186.423 173.46)"><stop stop-color="#FECF03"/><stop offset="1" stop-color="#232323"/></radialGradient></defs></svg>