<svg width="593" height="638" fill="none" xmlns="http://www.w3.org/2000/svg"><path opacity=".5" d="M315.305 195.845c-51.878-25.3-94.765-1.655-102.353 52.943-1.319 9.444 7.258 21.921 17.733 27.022l169.239 82.586c10.475 5.101 19.052.965 17.733-9.789-7.588-61.836-50.558-127.463-102.352-152.762z" fill="url(#paint0_linear)"/><path opacity=".5" d="M373.12 124.978c0 37.708-26.062 55.494-58.228 39.776-32.165-15.717-58.227-58.94-58.227-96.648s26.062-55.493 58.227-39.776c32.166 15.717 58.228 58.94 58.228 96.648z" fill="url(#paint1_linear)"/><path opacity=".07" d="M348.624 173.234c-51.877-25.3-94.764-1.655-102.352 52.943-1.319 9.444 7.258 21.921 17.732 27.023l169.24 82.585c10.475 5.101 19.052.965 17.733-9.789-7.588-61.836-50.475-127.463-102.353-152.762z" fill="url(#paint2_linear)"/><path opacity=".07" d="M406.44 102.368c0 37.707-26.062 55.493-58.227 39.776-32.166-15.718-58.228-58.94-58.228-96.649 0-37.708 26.062-55.493 58.228-39.776 32.165 15.718 58.227 58.94 58.227 96.649z" fill="url(#paint3_linear)"/><path opacity=".2" d="M518.525 386.177l-146.56-70.729v63.835l146.56 70.728v-63.834z" fill="url(#paint4_linear)"/><path d="M401.738 351.226c0 5.239-3.711 7.721-8.33 5.515-4.618-2.206-8.33-8.272-8.33-13.511 0-5.24 3.712-7.721 8.33-5.515 4.619 2.206 8.33 8.272 8.33 13.511z" fill="#1965E8"/><path opacity=".15" d="M409.491 348.951l44.042 21.301v7.652l-44.124-21.301.082-7.652zm.001 15.373l93.857 45.291v7.79l-93.857-45.291v-7.79z" fill="#fff"/><path opacity=".2" d="M220.787 312.415L74.228 241.756v63.834l146.559 70.729v-63.904z" fill="url(#paint5_linear)"/><path d="M104.001 277.465c0 5.239-3.711 7.72-8.33 5.514-4.618-2.206-8.33-8.272-8.33-13.511 0-5.239 3.712-7.721 8.33-5.515 4.619 2.206 8.33 8.272 8.33 13.512z" fill="#fff"/><path opacity=".15" d="M111.507 275.534l26.557 12.823v7.789l-26.557-12.822v-7.79zm.248 15.373l93.857 45.291v7.79l-93.857-45.291v-7.79z" fill="#fff"/><path opacity=".3" d="M315.222 383.005l277.696 134.012L593 638 339.8 515.845l-24.495 6.687-.083-139.527z" fill="url(#paint6_linear)"/><path d="M371.635 450.77c0 9.996-7.011 14.614-15.753 10.409-8.743-4.205-15.753-15.717-15.753-25.644 0-9.996 7.01-14.614 15.753-10.409 8.66 4.205 15.753 15.717 15.753 25.644z" fill="#1965E8"/><path opacity=".15" d="M386.646 446.909l60.867 29.367v10.616l-60.867-29.366v-10.617zm0 21.301l181.776 87.687v10.616l-181.776-87.686V468.21zm0 21.301l142.105 68.592v10.616l-142.105-68.591v-10.617z" fill="#fff"/><path opacity=".3" d="M277.695 417.749L0 283.807l.082 120.982 253.201 122.155 24.495 30.332-.083-139.527z" fill="url(#paint7_linear)"/><path d="M221.282 431.055c0 9.995 7.093 21.439 15.753 25.644 8.742 4.205 15.753-.483 15.753-10.478 0-9.996-7.093-21.44-15.753-25.645-8.66-4.136-15.753.552-15.753 10.479z" fill="#fff"/><path opacity=".15" d="M206.272 412.786l-60.867-29.367v10.616l60.867 29.367v-10.616zm.082 21.233L24.578 346.332v10.616l181.693 87.687.083-10.616zm0 21.301L64.248 386.729v10.616l142.106 68.591V455.32z" fill="#fff"/><path opacity=".2" d="M115.631 493.097c4.948 2.344 8.907 8.134 8.907 12.96v21.025l16.66 7.997c4.949 2.344 8.907 8.134 8.907 12.891 0 4.756-3.958 6.687-8.907 4.343l-16.66-8.066v21.026c0 4.756-3.959 6.687-8.907 4.343-4.949-2.344-8.908-8.135-8.908-12.891v-21.026l-16.66-7.996c-4.948-2.344-8.907-8.135-8.907-12.891 0-4.757 3.959-6.687 8.907-4.343l16.66 7.996V497.44c-.082-4.826 3.959-6.756 8.908-4.343z" fill="url(#paint8_linear)"/><path opacity=".2" d="M473.988 223.763l22.928 37.639c3.134 5.171 2.639 10.341-1.155 11.582-3.794 1.241-9.402-1.999-12.536-7.17l-.247-.482v41.775c0 4.757-3.959 6.687-8.908 4.343-4.948-2.413-8.907-8.134-8.907-12.891v-41.775l-.248.207c-3.134 2.137-8.825-.069-12.536-4.964-3.794-4.894-4.289-10.547-1.155-12.684l22.764-15.58z" fill="url(#paint9_linear)"/><path opacity=".2" d="M277.696 291.052l-35.3-17.027v-9.927l35.3 17.027c2.886 1.379 7.092 4.206 10.639 8.548 3.876 4.619 6.598 10.479 6.598 16.821 0 7.031-2.144 11.03-6.186 12.133-3.794 1.034-8.33-.759-11.051-2.068l-14.516-7.032-.083-.069c-1.237-.62-3.216-1.241-4.783-.827-1.32.345-2.722 1.379-2.722 5.308s1.485 6.273 2.639 7.721c1.485 1.792 3.464 3.033 4.701 3.584l.165.069 44.372 21.439v9.927l-44.124-21.301c-3.052-1.31-7.423-4.136-11.217-8.548-4.124-4.895-6.928-11.03-6.928-17.854 0-6.825 2.804-10.272 6.846-11.237 3.794-.896 8.165.414 11.216 1.93l14.351 6.963c2.062 1.034 3.629 1.447 4.701 1.172.825-.207 2.31-1.172 2.31-6.205 0-3.309-1.238-5.446-2.475-6.824-1.402-1.862-3.216-3.171-4.453-3.723z" fill="#fff"/><path d="M248.911 271.888c0 8.893-6.268 13.098-13.938 9.444-7.67-3.722-13.938-13.925-13.938-22.886 0-8.893 6.268-13.098 13.938-9.445 7.67 3.723 13.938 13.994 13.938 22.887z" fill="#fff"/><path d="M325.614 360.126c0 8.893-6.268 13.098-13.938 9.444-7.671-3.722-13.939-13.925-13.939-22.886 0-8.893 6.268-13.098 13.939-9.445 7.67 3.723 13.938 13.994 13.938 22.887z" fill="#1965E8"/><circle cx="145.5" cy="69.5" r="4" stroke="#D7D7D7" stroke-width="3"/><defs><linearGradient id="paint0_linear" x1="529.309" y1="154.588" x2="346.082" y2="314.498" gradientUnits="userSpaceOnUse"><stop stop-color="#fff"/><stop offset="1" stop-color="#fff" stop-opacity="0"/></linearGradient><linearGradient id="paint1_linear" x1="421.943" y1="31.284" x2="238.717" y2="191.194" gradientUnits="userSpaceOnUse"><stop stop-color="#fff"/><stop offset="1" stop-color="#fff" stop-opacity="0"/></linearGradient><linearGradient id="paint2_linear" x1="562.643" y1="131.969" x2="379.416" y2="291.879" gradientUnits="userSpaceOnUse"><stop stop-color="#fff"/><stop offset="1" stop-color="#fff" stop-opacity="0"/></linearGradient><linearGradient id="paint3_linear" x1="455.278" y1="8.665" x2="272.051" y2="168.575" gradientUnits="userSpaceOnUse"><stop stop-color="#fff"/><stop offset="1" stop-color="#fff" stop-opacity="0"/></linearGradient><linearGradient id="paint4_linear" x1="461.762" y1="358.799" x2="436.785" y2="410.572" gradientUnits="userSpaceOnUse"><stop stop-color="#fff"/><stop offset="1" stop-color="#fff" stop-opacity="0"/></linearGradient><linearGradient id="paint5_linear" x1="164.026" y1="285.047" x2="139.049" y2="336.82" gradientUnits="userSpaceOnUse"><stop stop-color="#fff"/><stop offset="1" stop-color="#fff" stop-opacity="0"/></linearGradient><linearGradient id="paint6_linear" x1="434.499" y1="386.944" x2="459.697" y2="631.458" gradientUnits="userSpaceOnUse"><stop stop-color="#fff"/><stop offset="1" stop-color="#fff" stop-opacity="0"/></linearGradient><linearGradient id="paint7_linear" x1="217.142" y1="369.302" x2="93.939" y2="484.714" gradientUnits="userSpaceOnUse"><stop stop-color="#fff"/><stop offset="1" stop-color="#fff" stop-opacity="0"/></linearGradient><linearGradient id="paint8_linear" x1="132.831" y1="519.951" x2="95.783" y2="554.932" gradientUnits="userSpaceOnUse"><stop stop-color="#fff"/><stop offset="1" stop-color="#fff" stop-opacity="0"/></linearGradient><linearGradient id="paint9_linear" x1="490.286" y1="261.733" x2="452.335" y2="287.044" gradientUnits="userSpaceOnUse"><stop stop-color="#fff"/><stop offset="1" stop-color="#fff" stop-opacity="0"/></linearGradient></defs></svg>