<svg width="557" height="188" fill="none" xmlns="http://www.w3.org/2000/svg"><path d="M89.05 138.26c1.633 1.773 3.407 3.033 5.32 3.78 1.913.747 3.92 1.12 6.02 1.12 2.007 0 3.85-.397 5.53-1.19 1.68-.793 3.127-2.053 4.34-3.78 1.26-1.773 2.24-4.06 2.94-6.86.7-2.8 1.05-6.207 1.05-10.22 0-3.827-.28-7.047-.84-9.66-.56-2.613-1.353-4.713-2.38-6.3-.98-1.633-2.17-2.8-3.57-3.5-1.4-.7-2.963-1.05-4.69-1.05-3.173 0-5.787.583-7.84 1.75s-4.013 2.87-5.88 5.11v30.8zm-1.33-43.89c2.847-3.033 6.067-5.507 9.66-7.42 3.64-1.96 7.957-2.94 12.95-2.94 3.78 0 7.28.84 10.5 2.52 3.22 1.68 5.997 4.107 8.33 7.28s4.153 7.07 5.46 11.69c1.353 4.573 2.03 9.777 2.03 15.61 0 5.46-.77 10.5-2.31 15.12-1.493 4.62-3.617 8.633-6.37 12.04-2.707 3.407-5.973 6.067-9.8 7.98-3.78 1.913-7.98 2.87-12.6 2.87-3.78 0-6.953-.537-9.52-1.61a25.837 25.837 0 01-7-4.34v27.86h-21.7V85.41h13.44c2.707 0 4.48 1.213 5.32 3.64l1.61 5.32zm105.307 18.62a18.24 18.24 0 00-.7-5.04c-.42-1.633-1.143-3.08-2.17-4.34-.98-1.307-2.286-2.357-3.92-3.15-1.633-.793-3.616-1.19-5.95-1.19-4.106 0-7.326 1.19-9.66 3.57-2.333 2.333-3.873 5.717-4.62 10.15h27.02zm-27.3 12.6c.7 6.067 2.544 10.477 5.53 13.23 2.987 2.707 6.837 4.06 11.55 4.06 2.52 0 4.69-.303 6.51-.91 1.82-.607 3.43-1.283 4.83-2.03 1.447-.747 2.754-1.423 3.92-2.03a8.352 8.352 0 013.78-.91c1.727 0 3.034.63 3.92 1.89l6.3 7.77c-2.24 2.567-4.666 4.667-7.28 6.3a38.825 38.825 0 01-7.98 3.78 42.22 42.22 0 01-8.19 1.82c-2.706.373-5.296.56-7.77.56-5.086 0-9.87-.817-14.35-2.45-4.433-1.68-8.33-4.153-11.69-7.42-3.313-3.267-5.95-7.327-7.91-12.18-1.913-4.853-2.87-10.5-2.87-16.94 0-4.853.817-9.45 2.45-13.79 1.68-4.34 4.06-8.143 7.14-11.41 3.127-3.267 6.884-5.857 11.27-7.77 4.434-1.913 9.427-2.87 14.98-2.87 4.807 0 9.194.747 13.16 2.24 4.014 1.493 7.444 3.663 10.29 6.51 2.894 2.847 5.134 6.347 6.72 10.5 1.634 4.107 2.45 8.773 2.45 14 0 1.633-.07 2.963-.21 3.99-.14 1.027-.396 1.843-.77 2.45a2.911 2.911 0 01-1.54 1.26c-.606.233-1.4.35-2.38.35h-41.86zm91.079-41.3c5.507 0 10.523.863 15.05 2.59 4.527 1.727 8.4 4.2 11.62 7.42 3.267 3.22 5.787 7.14 7.56 11.76 1.82 4.573 2.73 9.73 2.73 15.47 0 5.787-.91 11.013-2.73 15.68-1.773 4.62-4.293 8.563-7.56 11.83-3.22 3.22-7.093 5.717-11.62 7.49-4.527 1.727-9.543 2.59-15.05 2.59-5.553 0-10.617-.863-15.19-2.59-4.527-1.773-8.447-4.27-11.76-7.49-3.267-3.267-5.81-7.21-7.63-11.83-1.773-4.667-2.66-9.893-2.66-15.68 0-5.74.887-10.897 2.66-15.47 1.82-4.62 4.363-8.54 7.63-11.76 3.313-3.22 7.233-5.693 11.76-7.42 4.573-1.727 9.637-2.59 15.19-2.59zm0 58.73c4.993 0 8.657-1.75 10.99-5.25 2.38-3.547 3.57-8.913 3.57-16.1 0-7.187-1.19-12.53-3.57-16.03-2.333-3.5-5.997-5.25-10.99-5.25-5.133 0-8.89 1.75-11.27 5.25-2.38 3.5-3.57 8.843-3.57 16.03 0 7.187 1.19 12.553 3.57 16.1 2.38 3.5 6.137 5.25 11.27 5.25zm69.588-4.76c1.633 1.773 3.406 3.033 5.32 3.78 1.913.747 3.92 1.12 6.02 1.12 2.006 0 3.85-.397 5.53-1.19 1.68-.793 3.126-2.053 4.34-3.78 1.26-1.773 2.24-4.06 2.94-6.86.7-2.8 1.05-6.207 1.05-10.22 0-3.827-.28-7.047-.84-9.66-.56-2.613-1.354-4.713-2.38-6.3-.98-1.633-2.17-2.8-3.57-3.5-1.4-.7-2.964-1.05-4.69-1.05-3.174 0-5.787.583-7.84 1.75-2.054 1.167-4.014 2.87-5.88 5.11v30.8zm-1.33-43.89c2.846-3.033 6.066-5.507 9.66-7.42 3.64-1.96 7.956-2.94 12.95-2.94 3.78 0 7.28.84 10.5 2.52 3.22 1.68 5.996 4.107 8.33 7.28 2.333 3.173 4.153 7.07 5.46 11.69 1.353 4.573 2.03 9.777 2.03 15.61 0 5.46-.77 10.5-2.31 15.12-1.494 4.62-3.617 8.633-6.37 12.04-2.707 3.407-5.974 6.067-9.8 7.98-3.78 1.913-7.98 2.87-12.6 2.87-3.78 0-6.954-.537-9.52-1.61a25.833 25.833 0 01-7-4.34v27.86h-21.7V85.41h13.44c2.706 0 4.48 1.213 5.32 3.64l1.61 5.32zm81.857-41.16V158h-21.7V53.21h21.7zm59.817 59.78a18.24 18.24 0 00-.7-5.04c-.42-1.633-1.143-3.08-2.17-4.34-.98-1.307-2.286-2.357-3.92-3.15-1.633-.793-3.616-1.19-5.95-1.19-4.106 0-7.326 1.19-9.66 3.57-2.333 2.333-3.873 5.717-4.62 10.15h27.02zm-27.3 12.6c.7 6.067 2.544 10.477 5.53 13.23 2.987 2.707 6.837 4.06 11.55 4.06 2.52 0 4.69-.303 6.51-.91 1.82-.607 3.43-1.283 4.83-2.03 1.447-.747 2.754-1.423 3.92-2.03a8.352 8.352 0 013.78-.91c1.727 0 3.034.63 3.92 1.89l6.3 7.77c-2.24 2.567-4.666 4.667-7.28 6.3a38.825 38.825 0 01-7.98 3.78 42.22 42.22 0 01-8.19 1.82c-2.706.373-5.296.56-7.77.56-5.086 0-9.87-.817-14.35-2.45-4.433-1.68-8.33-4.153-11.69-7.42-3.313-3.267-5.95-7.327-7.91-12.18-1.913-4.853-2.87-10.5-2.87-16.94 0-4.853.817-9.45 2.45-13.79 1.68-4.34 4.06-8.143 7.14-11.41 3.127-3.267 6.884-5.857 11.27-7.77 4.434-1.913 9.427-2.87 14.98-2.87 4.807 0 9.194.747 13.16 2.24 4.014 1.493 7.444 3.663 10.29 6.51 2.894 2.847 5.134 6.347 6.72 10.5 1.634 4.107 2.45 8.773 2.45 14 0 1.633-.07 2.963-.21 3.99-.14 1.027-.396 1.843-.77 2.45a2.911 2.911 0 01-1.54 1.26c-.606.233-1.4.35-2.38.35h-41.86z" fill="#FFD200"/><path fill-rule="evenodd" clip-rule="evenodd" d="M0 103.11h23.8V1.12H0v101.99zm132.517-13.987V1.12h-20.86v53.97c0 1.633.046 3.383.14 5.25.093 1.82.256 3.71.49 5.67L63.777 4.76c-.654-.793-1.237-1.423-1.75-1.89a5.61 5.61 0 00-1.61-1.05 5.956 5.956 0 00-1.89-.56c-.7-.093-1.564-.14-2.59-.14h-12.46v101.99h20.86V48.44c0-1.493-.047-3.08-.14-4.76a70.998 70.998 0 00-.35-5.32l35.139 44.448a36.85 36.85 0 011.524-.858c3.64-1.96 7.957-2.94 12.95-2.94 3.78 0 7.28.84 10.5 2.52 3.22 1.68 5.997 4.107 8.33 7.28.076.103.152.208.227.313zm-17.343 12.93c-.308-.7-.646-1.335-1.014-1.903-.98-1.633-2.17-2.8-3.57-3.5a9.489 9.489 0 00-1.002-.431l2.349 2.971c1.079 1.286 2.158 2.241 3.237 2.863zm91.241-77.693c.793-.56 1.54-1.4 2.24-2.52l5.88-10.99c-1.82-1.68-3.897-3.173-6.23-4.48a41.512 41.512 0 00-7.42-3.43c-2.66-.98-5.484-1.703-8.47-2.17a52.826 52.826 0 00-9.1-.77c-5.6 0-10.57.863-14.91 2.59-4.34 1.68-8.004 3.943-10.99 6.79-2.987 2.847-5.25 6.09-6.79 9.73-1.54 3.64-2.31 7.373-2.31 11.2 0 4.76.653 8.773 1.96 12.04 1.306 3.22 3.01 5.927 5.11 8.12a27.819 27.819 0 007.28 5.25 67.47 67.47 0 008.33 3.36 264.24 264.24 0 008.33 2.45c2.706.747 5.11 1.61 7.21 2.59 2.146.98 3.873 2.217 5.18 3.71 1.306 1.493 1.96 3.43 1.96 5.81 0 2.694-.512 4.916-1.537 6.666 1.385.329 2.724.737 4.019 1.224 4.014 1.493 7.444 3.663 10.29 6.51a26.935 26.935 0 012.753 3.168 31.255 31.255 0 004.285-7.558c1.633-4.107 2.45-8.517 2.45-13.23 0-4.247-.654-7.863-1.96-10.85-1.307-3.033-3.034-5.6-5.18-7.7-2.1-2.1-4.527-3.827-7.28-5.18a68.449 68.449 0 00-8.33-3.5 134.806 134.806 0 00-8.4-2.73c-2.707-.84-5.134-1.75-7.28-2.73-2.1-.98-3.804-2.147-5.11-3.5-1.307-1.353-1.96-3.057-1.96-5.11 0-3.22 1.073-5.763 3.22-7.63 2.193-1.913 5.506-2.87 9.94-2.87 2.566 0 4.853.35 6.86 1.05 2.006.653 3.78 1.4 5.32 2.24 1.586.84 2.986 1.61 4.2 2.31 1.26.653 2.426.98 3.5.98 1.213 0 2.193-.28 2.94-.84zm-11.398 77.221l-.152.059c-4.527 1.727-9.684 2.59-15.47 2.59-2.959 0-5.978-.284-9.058-.852.836-2.248 1.976-4.094 3.42-5.538 2.334-2.38 5.554-3.57 9.66-3.57 2.334 0 4.317.397 5.95 1.19 1.634.793 2.94 1.843 3.92 3.15a11 11 0 011.73 2.971zm-43.124-5.075a56.87 56.87 0 01-.428-.256c-2.707-1.633-5.064-3.453-7.07-5.46l7-11.06a6.754 6.754 0 012.17-1.96 5.747 5.747 0 013.01-.84c1.4 0 2.8.443 4.2 1.33a911.61 911.61 0 004.83 2.94 34.67 34.67 0 002.055 1.118c-4.234 1.897-7.871 4.434-10.913 7.612a34.093 34.093 0 00-4.854 6.576zm95.422 6.604h6.309v-6.566c-2.041.871-3.694 2.237-4.958 4.096a15.29 15.29 0 00-1.351 2.47zm-17.491-10.175a31.607 31.607 0 013.162-3.635c3.313-3.22 7.233-5.693 11.76-7.42 2.779-1.049 5.738-1.78 8.878-2.191V1.12h-23.8v91.815zm62.069 3.288a58.417 58.417 0 008.498 4.087 57.247 57.247 0 007.433 2.242V82.81a27.655 27.655 0 01-7.643-5.67c-2.707-2.893-4.807-6.44-6.3-10.64-1.494-4.2-2.24-9.007-2.24-14.42 0-4.9.676-9.333 2.03-13.3 1.353-4.013 3.266-7.443 5.74-10.29 2.52-2.847 5.553-5.04 9.1-6.58 3.546-1.587 7.536-2.38 11.97-2.38 2.38 0 4.526.117 6.44.35 1.913.233 3.733.607 5.46 1.12a29.228 29.228 0 015.04 2.03c1.68.793 3.453 1.75 5.32 2.87 1.96 1.213 3.78 1.633 5.46 1.26 1.726-.373 3.126-1.377 4.2-3.01l6.86-10.43c-2.054-1.96-4.387-3.78-7-5.46-2.614-1.68-5.507-3.127-8.68-4.34-3.127-1.213-6.557-2.17-10.29-2.87-3.734-.7-7.724-1.05-11.97-1.05-8.214 0-15.657 1.283-22.33 3.85-6.627 2.567-12.297 6.16-17.01 10.78-4.667 4.62-8.26 10.127-10.78 16.52-2.52 6.347-3.78 13.323-3.78 20.93 0 7.467 1.33 14.397 3.99 20.79a49.182 49.182 0 005.463 9.79c3.725 1.664 6.969 3.877 9.732 6.64a31.42 31.42 0 015.287 6.923zm35.213-10.448l1.088 3.595a37.497 37.497 0 016.305-5.398c-1.357.474-2.74.88-4.148 1.218a27.746 27.746 0 01-3.245.585zm10.035-3.435c.236-.133.473-.263.713-.39 3.64-1.96 7.956-2.94 12.95-2.94 2.732 0 5.317.439 7.757 1.316V50.26h-36.26v13.02c0 1.213.42 2.217 1.26 3.01.84.793 2.006 1.19 3.5 1.19h10.08v14.86zm38.636 20.77a43.612 43.612 0 00-.683-2.61 48.985 48.985 0 00-.621-2.025V1.12h23.8v42.63h41.44V1.12h23.8v78.715a41.13 41.13 0 00-6.805-.545c-5.553 0-10.547.957-14.98 2.87-.687.3-1.359.616-2.015.95V59.99h-29.662V48.21h-21.7v54.9h-12.574zm87.736-7.429v7.429H444.15c.826-2.127 1.932-3.884 3.318-5.27 2.334-2.38 5.553-3.57 9.66-3.57 2.333 0 4.317.397 5.95 1.19.148.072.292.145.435.221zm-113.309 2.707a7.846 7.846 0 00-2.27-1.738c-1.4-.7-2.964-1.05-4.69-1.05-3.174 0-5.787.583-7.84 1.75-2.054 1.167-4.014 2.87-5.88 5.11v1.498a63.707 63.707 0 0012.307-2.318 51.865 51.865 0 008.373-3.252zM527.891 19.88h28.7V1.12h-81.06v18.76h28.7v83.23h23.66V19.88z" fill="#fff"/></svg>