<svg width="554" height="73" fill="none" xmlns="http://www.w3.org/2000/svg"><path fill-rule="evenodd" clip-rule="evenodd" d="M50.985 71.2a11.312 11.312 0 00-1.516-2.14c-2.16-2.44-5.08-3.66-8.76-3.66-.104 0-.207 0-.31.002V47.2c-1.533 1.267-3.633 2.233-6.3 2.9-2.666.667-5.466 1-8.4 1-8.466 0-14.766-2.067-18.9-6.2C2.667 40.7.6 34.3.6 25.7v-22c0-.733.234-1.333.7-1.8.534-.467 1.134-.7 1.8-.7h13c.734 0 1.334.233 1.8.7.467.467.7 1.067.7 1.8v21.2c0 3.4.834 5.867 2.5 7.4 1.667 1.533 4.434 2.3 8.3 2.3 2.734 0 5.234-.467 7.5-1.4 2.334-1 3.5-2.567 3.5-4.7V3.7c0-.733.234-1.333.7-1.8.534-.467 1.134-.7 1.8-.7h12.9c.734 0 1.334.233 1.8.7.534.467.8 1.067.8 1.8v65c0 .733-.266 1.333-.8 1.8-.466.467-1.066.7-1.8.7h-4.814zm38.037-.7c.533.467 1.133.7 1.8.7h1.442v-3.76c0-.4.14-.74.42-1.02.28-.28.62-.42 1.02-.42h4.98c.44 0 .78.14 1.02.42.28.24.42.58.42 1.02v3.76h3.897c.734 0 1.334-.233 1.8-.7.467-.533.7-1.133.7-1.8V16.9h17.8c.734 0 1.334-.233 1.8-.7.467-.467.7-1.067.7-1.8V3.7c0-.733-.233-1.333-.7-1.8-.466-.467-1.066-.7-1.8-.7h-53.8c-.666 0-1.266.233-1.8.7-.466.467-.7 1.067-.7 1.8v10.7c0 .667.234 1.267.7 1.8.534.467 1.134.7 1.8.7h17.8v51.8c0 .667.234 1.267.7 1.8zm84.497.88a11.318 11.318 0 00-1.642-2.32c-2.2-2.44-5.14-3.66-8.82-3.66-4.08 0-7.32 1.44-9.72 4.32V56.04c0-.44-.14-.78-.42-1.02-.24-.28-.58-.42-1.02-.42h-5.34c-.4 0-.74.14-1.02.42-.28.24-.42.58-.42 1.02v11.33a25.014 25.014 0 01-2.807-2.07c-5.4-4.6-8.267-11.367-8.6-20.3-.067-1.933-.1-4.8-.1-8.6 0-3.867.033-6.767.1-8.7.333-8.8 3.233-15.567 8.7-20.3 5.533-4.8 12.9-7.2 22.1-7.2 9.2 0 16.566 2.4 22.1 7.2 5.533 4.733 8.433 11.5 8.7 20.3.133 3.867.2 6.767.2 8.7 0 1.867-.067 4.733-.2 8.6-.15 4.008-.809 7.58-1.979 10.715a1.17 1.17 0 00-.391-.695c-.24-.28-.58-.42-1.02-.42h-4.86c-.4 0-.74.14-1.02.42-.28.24-.42.58-.42 1.02V66h-4.74c-.4 0-.74.14-1.02.42-.28.28-.42.62-.42 1.02v2.208a33.098 33.098 0 01-5.921 1.732zm-10.832.79c-.724-.233-1.541-.35-2.45-.35-.445 0-.872.03-1.279.088 1.204.132 2.447.22 3.729.262zM173.21 54.5c-2.134 2.2-5.034 3.3-8.7 3.3-3.667 0-6.567-1.1-8.7-3.3-2.134-2.2-3.3-5.567-3.5-10.1-.067-1.933-.1-4.667-.1-8.2 0-3.6.033-6.333.1-8.2.2-4.533 1.366-7.9 3.5-10.1 2.2-2.2 5.1-3.3 8.7-3.3 3.6 0 6.5 1.1 8.7 3.3 2.2 2.2 3.366 5.567 3.5 10.1.133 3.733.2 6.467.2 8.2 0 1.6-.067 4.333-.2 8.2-.134 4.533-1.3 7.9-3.5 10.1zm71.28 16c.534.467 1.134.7 1.8.7h2.323c.463-.683.986-1.316 1.57-1.9 2.64-2.6 6.16-3.9 10.56-3.9.425 0 .84.012 1.247.035V16.9h17.8c.734 0 1.334-.233 1.8-.7.467-.467.7-1.067.7-1.8V3.7c0-.733-.233-1.333-.7-1.8-.466-.467-1.066-.7-1.8-.7h-53.8c-.666 0-1.266.233-1.8.7-.466.467-.7 1.067-.7 1.8v10.7c0 .667.234 1.267.7 1.8.534.467 1.134.7 1.8.7h17.8v51.8c0 .667.234 1.267.7 1.8zm16.339.36h-.086c-.825 0-1.578.113-2.258.34h1.005c.511 0 .957-.113 1.339-.34zm42.898-3.769c-2.203-1.127-4.868-1.691-7.995-1.691-4.393 0-7.874 1.113-10.443 3.338a2.21 2.21 0 01.09-.538l23.5-64.2c.2-.8.633-1.467 1.3-2 .666-.533 1.533-.8 2.6-.8h14.8c1.066 0 1.933.267 2.6.8.666.533 1.1 1.2 1.3 2l22.877 62.765v3.858c-.397.384-.889.577-1.477.577h-7.482a12.58 12.58 0 00-1.377-1.96c-1.93-2.287-4.609-3.552-8.04-3.796l-2.501-6.544h-26.7l-3.052 8.191zM320.179 18.1l9.3 26.4h-18.6l9.3-26.4zm102.803 48.928c-.147.894-.538 1.772-1.173 2.632-.345.467-.773.98-1.283 1.54h-13.865c-.934 0-1.634-.167-2.1-.5-.4-.333-.867-.8-1.4-1.4l-.404-.672c.068.008.139.012.212.012h5.1c.88 0 1.46-.46 1.74-1.38.8-3.88 3.16-5.82 7.08-5.82 1.098 0 2.094.195 2.99.584l3.103 5.004zm-7.655-12.345L403.061 34.9l18.6-30.4c.266-.533.4-.933.4-1.2 0-.6-.2-1.1-.6-1.5-.4-.4-.9-.6-1.5-.6h-14.5c-1.734 0-2.967.633-3.7 1.9l-14.7 24.8-6.1-.1V3.7c0-.733-.267-1.333-.8-1.8-.467-.467-1.067-.7-1.8-.7h-12.9c-.667 0-1.267.233-1.8.7-.467.467-.7 1.067-.7 1.8v65c0 .733.233 1.333.7 1.8.466.467 1.066.7 1.8.7h6.023c.463-.683.987-1.316 1.57-1.9 2.086-2.054 4.722-3.297 7.907-3.728V43.8h6.9l13.808 23.014c.139-2.056.793-3.987 1.96-5.794 1.24-1.92 3.04-3.46 5.4-4.62 1.853-.942 3.952-1.514 6.298-1.717zM435.962 65.3c5.4 4.6 12.8 6.9 22.2 6.9 9.4 0 16.8-2.3 22.2-6.9 5.4-4.6 8.267-11.367 8.6-20.3.133-3.867.2-6.733.2-8.6 0-1.933-.067-4.833-.2-8.7-.267-8.8-3.167-15.567-8.7-20.3-5.533-4.8-12.9-7.2-22.1-7.2-9.2 0-16.567 2.4-22.1 7.2-5.467 4.733-8.367 11.5-8.7 20.3-.067 1.933-.1 4.833-.1 8.7 0 3.8.033 6.667.1 8.6.333 8.933 3.2 15.7 8.6 20.3zm30.9-10.8c-2.133 2.2-5.033 3.3-8.7 3.3-3.667 0-6.567-1.1-8.7-3.3-2.133-2.2-3.3-5.567-3.5-10.1-.067-1.933-.1-4.667-.1-8.2 0-3.6.033-6.333.1-8.2.2-4.533 1.367-7.9 3.5-10.1 2.2-2.2 5.1-3.3 8.7-3.3 3.6 0 6.5 1.1 8.7 3.3 2.2 2.2 3.367 5.567 3.5 10.1.133 3.733.2 6.467.2 8.2 0 1.6-.067 4.333-.2 8.2-.133 4.533-1.3 7.9-3.5 10.1zm34.592 16c.533.467 1.133.7 1.8.7h47.5c.733 0 1.333-.233 1.8-.7.466-.533.7-1.133.7-1.8v-9.4c0-.733-.234-1.333-.7-1.8-.467-.467-1.067-.7-1.8-.7h-32.7V42.9h29.7c.733 0 1.333-.233 1.8-.7.466-.533.7-1.133.7-1.8v-8.7c0-.733-.234-1.333-.7-1.8-.467-.533-1.067-.8-1.8-.8h-29.7V15.6h31.899c.734 0 1.334-.233 1.801-.7.466-.533.699-1.133.699-1.8V3.7c0-.733-.233-1.333-.699-1.8-.467-.467-1.067-.7-1.801-.7h-46.699c-.667 0-1.267.233-1.8.7-.467.467-.7 1.067-.7 1.8v65c0 .667.233 1.267.7 1.8zM92.444 60.42c.28.28.62.42 1.02.42h5.46c.44 0 .8-.14 1.08-.42.28-.28.42-.62.42-1.02v-4.32c0-.4-.16-.74-.48-1.02-.28-.28-.62-.42-1.02-.42h-5.46c-.4 0-.74.14-1.02.42-.28.28-.42.62-.42 1.02v4.32c0 .4.14.74.42 1.02z" fill="#292A34"/></svg>