<svg width="64" height="64" fill="none" xmlns="http://www.w3.org/2000/svg"><path d="M30 3c14.241 0 21.362 0 25.93 4.23.286.265.562.54.827.825C61 12.608 61 19.707 61 33.905V44" stroke="url(#paint0_linear)" stroke-width="5.315" stroke-linecap="round"/><path d="M30.5 63c-6.587 0-11.483 0-15.288-.45-3.793-.449-6.435-1.337-8.544-3.068a15.504 15.504 0 01-2.15-2.15c-1.73-2.108-2.62-4.75-3.068-8.544C1 44.983 1 40.088 1 33.5c0-6.587 0-11.483.45-15.288.449-3.793 1.337-6.436 3.068-8.545a15.504 15.504 0 012.15-2.15c2.109-1.73 4.751-2.618 8.544-3.067C19.017 4 23.913 4 30.5 4s11.483 0 15.288.45c3.793.449 6.435 1.337 8.544 3.068a15.509 15.509 0 012.15 2.15c1.73 2.108 2.62 4.75 3.068 8.544.45 3.805.45 8.701.45 15.288s0 11.483-.45 15.288c-.449 3.793-1.337 6.436-3.068 8.545a15.509 15.509 0 01-2.15 2.15c-2.109 1.73-4.751 2.618-8.544 3.067-3.805.45-8.701.45-15.288.45z" fill="#40434E"/><path style="mix-blend-mode:soft-light" d="M30.5 63c-6.587 0-11.483 0-15.288-.45-3.793-.449-6.435-1.337-8.544-3.068a15.504 15.504 0 01-2.15-2.15c-1.73-2.108-2.62-4.75-3.068-8.544C1 44.983 1 40.088 1 33.5c0-6.587 0-11.483.45-15.288.449-3.793 1.337-6.436 3.068-8.545a15.504 15.504 0 012.15-2.15c2.109-1.73 4.751-2.618 8.544-3.067C19.017 4 23.913 4 30.5 4s11.483 0 15.288.45c3.793.449 6.435 1.337 8.544 3.068a15.509 15.509 0 012.15 2.15c1.73 2.108 2.62 4.75 3.068 8.544.45 3.805.45 8.701.45 15.288s0 11.483-.45 15.288c-.449 3.793-1.337 6.436-3.068 8.545a15.509 15.509 0 01-2.15 2.15c-2.109 1.73-4.751 2.618-8.544 3.067-3.805.45-8.701.45-15.288.45z" fill="url(#paint1_linear)" fill-opacity=".4"/><path d="M30.5 63c-6.587 0-11.483 0-15.288-.45-3.793-.449-6.435-1.337-8.544-3.068a15.504 15.504 0 01-2.15-2.15c-1.73-2.108-2.62-4.75-3.068-8.544C1 44.983 1 40.088 1 33.5c0-6.587 0-11.483.45-15.288.449-3.793 1.337-6.436 3.068-8.545a15.504 15.504 0 012.15-2.15c2.109-1.73 4.751-2.618 8.544-3.067C19.017 4 23.913 4 30.5 4s11.483 0 15.288.45c3.793.449 6.435 1.337 8.544 3.068a15.509 15.509 0 012.15 2.15c1.73 2.108 2.62 4.75 3.068 8.544.45 3.805.45 8.701.45 15.288s0 11.483-.45 15.288c-.449 3.793-1.337 6.436-3.068 8.545a15.509 15.509 0 01-2.15 2.15c-2.109 1.73-4.751 2.618-8.544 3.067-3.805.45-8.701.45-15.288.45z" stroke="url(#paint2_linear)"/><path d="M32.25 35.767c.234.235.552.367.884.367h.732c.332 0 .65-.132.884-.367l5.884-5.883L43.5 32.75v-7.5H36l2.866 2.866-5.366 5.367-3.75-3.75a1.25 1.25 0 00-.884-.367h-.732c-.332 0-.65.132-.884.367l-8.384 8.383 1.768 1.768 7.866-7.867 3.75 3.75z" fill="#fff"/><defs><linearGradient id="paint0_linear" x1="-3.273" y1="-6.075" x2="79.61" y2="25.732" gradientUnits="userSpaceOnUse"><stop stop-color="#1965E8"/><stop offset="1" stop-color="#0C234B"/></linearGradient><linearGradient id="paint1_linear" x1="61.333" y1="64.912" x2="1.907" y2="-3.343" gradientUnits="userSpaceOnUse"><stop/><stop offset="1" stop-color="#242424"/></linearGradient><linearGradient id="paint2_linear" x1="-4.292" y1="-5.676" x2="79.326" y2="26.314" gradientUnits="userSpaceOnUse"><stop/><stop offset="1" stop-color="#1B1B1B"/></linearGradient></defs></svg>