<svg width="591" height="586" fill="none" xmlns="http://www.w3.org/2000/svg"><g clip-path="url(#clip0)"><path d="M75.489 61.532c187.208-146.658 416.056 58.87 205.791 206.561-91.883 64.722 28.907 89.165-121.135 84.345-5.85-57.148-11.356-74.017 2.065-93.64 24.089-35.46 65.729-42.001 89.819-80.903 27.186-43.722-6.539-94.674-74.333-76.083-71.924 19.623-48.523 48.197-102.207-40.28zm60.909 384.892c2.409-70.575 111.844-66.444 109.435 3.786-2.065 70.231-111.499 67.133-109.435-3.786z" fill="#333746"/><path d="M192.151 354.504c-8.948 0-19.616-.344-32.004-.689h-1.377v-1.377c-1.032-10.328-2.065-19.279-3.097-27.197-4.13-35.804-5.85-50.951 5.506-67.476 11.7-17.214 27.875-27.886 43.361-38.214 16.862-11.016 34.069-22.722 46.458-42.345 12.044-19.279 12.044-41.312.344-57.148-14.11-18.935-41.296-25.132-72.612-16.525-18.583 5.164-30.628 10.672-39.231 14.803-24.434 11.361-24.778 10.328-54.373-38.902-3.098-5.164-6.539-10.672-9.98-16.869l-.689-1.377 1.033-1.033c64.697-50.952 142.815-64.722 208.2-36.837 47.835 20.312 79.151 58.526 83.624 102.937 5.506 50.607-24.433 101.214-83.968 143.215-39.919 28.23-38.887 48.197-38.199 61.624.344 6.197.689 11.705-3.441 15.492-6.194 5.508-19.616 7.918-49.555 7.918zm-30.628-4.131c49.899 1.721 70.547 0 76.742-6.197 2.753-3.098 2.753-7.23 2.409-13.082-.689-14.115-1.721-35.46 39.575-64.722 58.502-40.968 87.754-90.887 82.592-140.117-4.474-43.034-35.102-80.56-81.56-100.182C217.273-.78 141.563 12.302 77.899 61.533c3.441 5.507 6.538 10.671 9.291 15.491 28.563 47.853 28.563 47.853 50.244 37.525 8.947-4.131 21.336-9.983 39.919-15.147 33.037-8.951 61.6-2.41 76.398 17.557 12.733 17.214 12.733 40.624 0 61.28s-30.284 32.361-47.491 43.378c-15.83 10.672-30.972 20.656-42.328 37.181-10.668 15.492-8.947 28.918-4.818 65.066.688 8.263 1.721 16.869 2.409 26.509zm29.94 152.51h-2.065c-27.187-1.032-55.75-18.934-54.373-56.459.688-20.656 10.324-36.837 27.186-45.788 18.583-9.984 43.361-9.295 61.6 2.066 16.174 9.983 24.778 26.852 24.089 47.508-1.376 36.493-29.939 52.673-56.437 52.673zm-53.341-56.459c-1.032 35.115 25.81 52.328 51.276 53.017 25.466 1.033 53.684-14.115 54.717-49.575.688-19.279-7.227-34.771-22.713-44.41-17.206-10.673-40.263-11.361-58.158-2.066-15.486 8.607-24.434 23.755-25.122 43.034z" fill="#333746"/><path d="M192.148 369.996c-9.291 0-19.959-.344-32.348-.689l-15.142-.344-1.376-14.803c-1.033-10.328-2.065-19.279-3.098-27.197-4.473-37.526-6.538-56.46 7.915-77.805l.345-.344 2.753 2.065-.344.345c-13.766 20.312-11.701 38.558-7.227 75.394 1.032 7.918 2.065 16.869 3.097 27.197l1.376 12.05 12.045.344c60.223 2.066 79.495-.344 89.819-10.672 3.097-3.099 4.818-6.541 5.85-10.672l3.441.688c-1.032 4.82-3.441 8.951-6.882 12.394-9.292 8.606-23.745 12.049-60.224 12.049zm55.062-217.921l-3.441-.345c.344-1.721.344-3.442.344-4.819 0-5.164-1.032-9.984-3.441-14.115-5.851-10.673-17.895-17.214-33.725-17.558h-7.227l-.344-3.443a27.9 27.9 0 017.571 0c16.862.689 30.283 7.574 36.478 19.279 2.753 4.82 3.785 10.328 3.785 15.837a13.049 13.049 0 010 5.164zm-125.952-12.738h-1.032c-18.583-.689-26.154-13.771-49.555-52.329-3.097-5.164-6.195-10.672-9.98-16.87l-7.915-13.081L64.82 47.76C94.76 24.35 126.764 8.17 160.145-.093l.688 3.443c-33.036 8.262-64.696 24.099-94.292 47.165l-9.635 7.574L63.1 68.418c3.785 6.196 6.883 11.705 9.98 16.869 22.368 37.525 29.939 50.263 46.802 50.607 4.129 0 7.915-.688 12.733-2.41l1.032 3.099c-4.13 2.065-8.259 2.754-12.389 2.754zM337.03 242.273l-2.409-2.41c29.251-31.673 44.393-67.132 44.393-101.903 0-7.23-.688-14.46-2.064-21.689l3.441-.689c1.376 7.574 2.065 15.148 2.065 22.378 0 35.804-15.831 71.607-45.426 104.313zM189.053 518.376c-34.758-1.033-69.859-25.476-69.859-69.887v-2.754c.344-8.607 1.721-16.525 4.474-23.754l3.097 1.032c-2.753 6.886-4.13 14.804-4.13 22.722v2.754c0 42.001 33.381 65.067 66.074 66.444l.344 3.443zm65.385-35.116l-3.097-1.721c5.162-8.951 7.915-19.623 8.259-31.328v-2.755c0-14.115-3.785-26.508-10.668-37.181l2.753-2.065c7.571 11.016 11.356 24.099 11.356 38.902v2.754c-.344 12.738-3.097 23.755-8.603 33.394z" fill="#333746"/><path d="M279.559 160.681c145.912-114.297 323.485 45.788 160.022 160.773-71.236 50.263 22.368 69.542-94.293 65.411-4.473-44.41-8.947-57.492 1.721-72.64 18.927-27.542 51.276-32.706 69.859-63.001 20.992-34.083-5.162-73.674-57.814-59.214-56.094 15.492-37.855 37.869-79.495-31.329zm47.49 299.513c1.721-55.083 86.721-51.64 85.001 2.754-1.721 54.739-87.066 52.329-85.001-2.754z" fill="#1965E8"/><path d="M370.065 389.275c-6.883 0-15.142 0-24.778-.344h-1.376v-1.377c-.689-7.918-1.721-15.148-2.409-21.345-3.442-28.23-4.474-39.591 4.129-52.673 9.292-13.426 21.681-21.689 33.725-29.951 13.077-8.607 26.498-17.558 35.79-33.05 9.292-14.803 9.292-32.017.344-44.066-11.012-14.459-32.004-19.279-56.093-12.738-14.454 3.787-23.746 8.262-30.628 11.705-19.272 8.951-19.96 7.574-43.017-30.64-2.409-3.787-4.818-8.262-7.915-13.082l-.688-1.377 1.032-1.033c50.588-39.591 111.155-50.263 162.431-28.918 37.166 15.836 61.6 45.787 65.385 80.558 4.13 39.247-18.927 79.182-65.385 111.887-30.972 21.689-29.94 37.526-29.596 47.854.345 4.819.345 9.295-2.753 12.393-4.129 4.131-14.797 6.197-38.198 6.197zm-23.057-4.131c38.543 1.377 54.373 0 58.847-4.82 2.064-2.066 2.064-5.508 1.72-9.639-.688-11.017-1.376-27.886 30.972-50.608 45.426-32.017 68.138-70.575 64.009-108.444-3.442-33.394-27.187-62.313-63.321-77.805-49.555-21-108.401-10.672-157.612 27.542 2.409 4.131 4.817 8.262 7.226 11.705 22.025 36.837 22.025 36.837 38.543 29.263 6.883-3.099 16.519-7.574 30.972-11.705 25.81-6.886 48.179-1.722 59.879 13.77 9.98 13.427 9.98 31.673 0 47.853-9.98 16.181-23.745 25.132-36.822 34.083-12.389 8.262-24.089 15.836-33.037 28.918-8.259 12.05-6.882 22.378-3.785 50.264.688 5.852 1.376 12.393 2.409 19.623zm22.712 119.461c-8.947 0-17.895-2.41-25.466-6.886-12.733-7.918-19.615-21.344-18.927-37.525 1.032-29.263 24.433-42 45.425-41.312 22.025.689 44.049 16.181 43.017 44.411-.688 16.18-8.259 28.918-21.336 36.148-6.883 3.442-14.798 5.164-22.713 5.164zm-40.952-44.411c-.344 14.804 5.506 27.197 17.207 34.427 13.077 8.262 30.972 8.607 44.737 1.377 12.045-6.541 19.272-18.246 19.616-33.05 1.032-27.197-19.96-39.935-39.576-40.623-19.615-.689-41.296 11.016-41.984 37.869z" fill="#1965E8"/><path d="M370.408 404.767c-7.227 0-15.831-.344-25.466-.344l-15.142-.344-1.377-14.804c-.688-7.574-1.72-14.459-2.409-20.312v-.688c-3.441-30.296-5.162-45.444 6.883-63.345 4.13-5.853 8.948-11.361 14.798-16.525l2.409 2.41c-5.506 5.164-10.324 10.328-14.11 15.836-11.356 16.525-9.635 31.328-6.194 60.935v.689c.688 5.852 1.376 12.738 2.409 20.656l1.376 12.049 12.045.344c48.523 1.722 63.32-.344 71.924-9.295 6.882-6.885 6.538-15.492 6.194-21.344 0-2.066-.344-4.476 0-7.23l3.441.344c-.344 2.41 0 4.476 0 6.541.345 6.197.689 15.837-7.226 24.099-8.26 7.23-19.96 10.328-49.555 10.328zm39.232-172.134l-3.441-.688c.344-1.722.344-3.099.344-4.82 0-3.443-.688-6.541-2.409-9.295-3.441-6.541-11.012-10.673-20.648-11.705l.344-3.443c11.013 1.033 19.272 5.853 23.401 13.426 1.721 3.443 2.753 6.886 2.753 11.017.345 1.721 0 3.787-.344 5.508zm-94.637-7.229h-1.032c-16.519-.689-23.401-12.05-41.64-42.69-2.409-3.786-4.818-8.262-7.915-13.082L256.5 156.55l12.045-9.295c29.94-23.41 63.665-37.87 97.734-42.001l.344 3.443c-33.381 3.787-66.418 17.902-96.013 40.968l-9.636 7.574 6.195 10.328c2.753 4.819 5.506 8.951 7.915 13.082 17.55 29.607 24.089 40.624 38.887 40.968 6.882.344 12.732-2.41 19.615-5.853 2.753-1.377 5.506-2.754 8.948-4.131l1.376 3.098c-3.441 1.377-6.194 2.755-8.603 3.787-6.883 4.132-13.077 6.886-20.304 6.886zm178.604 69.198l-2.753-2.066c18.239-23.066 27.53-47.509 27.53-71.952 0-5.853-.688-12.049-1.72-17.902l3.441-.688c1.033 6.196 1.721 12.393 1.721 18.59.344 25.476-9.292 50.263-28.219 74.018z" fill="#1965E8"/><path d="M367.313 520.097c-28.563-1.033-57.814-21.345-57.814-58.181v-2.41c1.376-39.591 33.036-57.149 61.599-56.46 21.681.688 41.296 12.049 50.932 29.263l-3.097 1.721c-8.948-16.181-27.531-26.853-47.835-27.541-26.842-.689-56.782 15.492-57.814 53.017v2.41c0 34.771 27.531 53.705 54.373 54.738l-.344 3.443z" fill="#1965E8"/><path d="M85.765 394.488c0 3.006-2.473 5.73-5.727 5.73-3.003 0-5.727-2.472-5.727-5.73 0-3.005 2.472-5.729 5.727-5.729 3.3 0 5.727 2.426 5.727 5.729z" stroke="#1965E8" stroke-width="3"/><path d="M270.178 560.032c0 6.225-5.045 11.271-11.266 11.271-6.22 0-11.265-5.046-11.265-11.271 0-6.226 5.045-11.271 11.265-11.271 6.221 0 11.266 5.045 11.266 11.271z" stroke="#333746" stroke-width="5"/><path d="M479.441 372.75c0 5.674-4.597 10.271-10.265 10.271s-10.265-4.597-10.265-10.271c0-5.673 4.597-10.271 10.265-10.271s10.265 4.598 10.265 10.271z" stroke="#333746" stroke-width="7"/><path d="M467.109 469.489c0 2.066-1.72 3.787-3.785 3.787-2.065 0-3.785-1.721-3.785-3.787 0-2.065 1.72-3.787 3.785-3.787 2.065 0 3.785 1.722 3.785 3.787z" fill="#0087EB"/><path d="M454.5 22a5.5 5.5 0 100-11 5.5 5.5 0 000 11z" fill="#1965E8"/></g><defs><clipPath id="clip0"><path fill="#fff" d="M0 0h591v586H0z"/></clipPath></defs></svg>