<svg width="156" height="158" fill="none" xmlns="http://www.w3.org/2000/svg"><path d="M121.944 18.19c27.047 22.343 32.666 47.954 14.895 69.513-22.343 27.047-54.878 9.408-71.08 29.007L34.53 90.97c22.997-27.832 45.993-13.85 57.884-28.224 4.442-5.357 3.92-10.06-1.699-14.634-6.925-5.75-13.98-3.659-22.213 6.402L36.36 27.99c24.826-30.183 56.447-33.842 85.585-9.8zM44.852 148.069c-9.407 11.368-23.78 12.805-35.148 3.398-11.237-9.277-12.544-23.52-3.136-35.018 9.277-11.237 23.52-12.544 34.757-3.267 11.498 9.408 12.804 23.65 3.527 34.887z" fill="#292A34"/><path d="M129.653 17.406C156.7 39.75 162.319 65.36 144.548 86.92c-22.343 27.047-54.878 9.408-71.08 29.007l-31.229-25.74c22.997-27.832 45.994-13.85 57.884-28.224 4.442-5.357 3.92-10.06-1.699-14.634-6.925-5.75-13.98-3.659-22.213 6.402L44.068 27.206c24.826-30.183 56.447-33.842 85.585-9.8zm-77.092 129.88c-9.407 11.367-23.78 12.805-35.148 3.397-11.237-9.277-12.544-23.52-3.136-35.018 9.277-11.237 23.52-12.544 34.756-3.267 11.499 9.408 12.806 23.65 3.528 34.888z" stroke="#fff" stroke-opacity=".05" stroke-width="2" stroke-miterlimit="10"/></svg>