<svg width="232" height="344" fill="none" xmlns="http://www.w3.org/2000/svg"><path d="M113.677 12.453c66.769 0 105.968 30.837 105.968 83.886 0 66.769-69.121 80.097-69.121 128.573h-76.96c0-68.598 50.697-76.046 50.697-111.456 0-13.328-6.403-19.338-20.253-19.338-16.986 0-24.826 11.498-24.826 36.324H0C0 56.225 41.812 12.453 113.677 12.453zm44.295 283.801c0 28.093-19.338 47.431-47.431 47.431-27.57 0-47.039-19.338-47.039-47.431 0-27.701 19.339-47.039 47.039-47.039 28.093 0 47.431 19.338 47.431 47.039z" fill="#1965E8"/><path opacity=".3" d="M123.999 2c66.769 0 105.968 30.837 105.968 83.886 0 66.769-69.121 80.097-69.121 128.573h-76.83c0-68.599 50.697-76.046 50.697-111.456 0-13.328-6.402-19.338-20.252-19.338-16.987 0-24.826 11.498-24.826 36.324H10.451C10.322 45.772 52.135 2 124 2zm44.295 283.801c0 28.093-19.338 47.431-47.431 47.431-27.57 0-47.039-19.338-47.039-47.431 0-27.701 19.338-47.039 47.039-47.039 28.093 0 47.431 19.338 47.431 47.039z" stroke="#fff" stroke-width="3" stroke-miterlimit="10"/></svg>