<svg width="656" height="658" fill="none" xmlns="http://www.w3.org/2000/svg"><path d="M303.415 399.641c-13.64 17.059-28.787 35.783-39.414 48.874-11.816-35.544 3.966-85.212 21.571-122.344 4.282 23.089 10.151 47.526 17.843 73.47z" fill="#fff"/><path d="M386.526 268.093c17.526 16.821 33.228 48.24 21.412 97.352-10.627-.873-25.694-2.063-39.335-3.333 7.772-34.91 13.641-66.091 17.923-94.019z" fill="#1965E8"/><path opacity=".2" d="M348.857 443.041c97.94-376.553 17.368-408.528-13.085-421.38-30.453 48.08-111.025 173.121-12.927 436.375l26.012-14.995z" fill="url(#paint0_linear)"/><path opacity=".1" d="M319.99 421.38C418.01 44.907 337.437 12.933 306.905 0c-30.452 48.08-111.025 173.122-12.926 436.376l26.011-14.996z" fill="url(#paint1_linear)"/><path opacity=".15" d="M322.845 458.036C224.747 194.782 305.319 69.741 335.772 21.66v428.918l-12.927 7.458z" fill="url(#paint2_linear)"/><path opacity=".1" d="M306.509 154.239c0 22.93 13.481 33.72 30.135 24.12 16.654-9.6 30.136-36.021 30.136-58.951s-13.482-33.72-30.136-24.12c-16.654 9.601-30.135 36.022-30.135 58.951z" fill="#fff"/><path opacity=".3" d="M233.311 283.486L18.557 407.496l-.08 111.95L214.2 406.385l18.954 6.189.158-129.088z" fill="url(#paint3_linear)"/><path d="M81.048 427.173v-30.388L0 443.596v30.388l81.048-46.811z" fill="#fff"/><path opacity=".1" d="M178.037 342.595l-47.027 27.214v9.838l47.027-27.134v-9.918zm-.001 19.676l-84.934 49.033v9.839l84.934-49.033v-9.839z" fill="#fff"/><path opacity=".15" d="M178.037 381.948L68.201 445.421v9.838l109.836-63.473v-9.838z" fill="#fff"/><path d="M189.615 346.165c0 9.204 5.472 13.568 12.213 9.68 6.74-3.888 12.212-14.519 12.212-23.723 0-9.204-5.472-13.567-12.212-9.68-6.741 3.888-12.213 14.52-12.213 23.723z" fill="#fff"/><path opacity=".3" d="M418.485 125.359L633.16 1.429l-.079 111.949L437.359 226.36l-18.953 28.087.079-129.088z" fill="url(#paint4_linear)"/><path d="M656 45.066V14.678l-81.048 46.811v30.388L656 45.066z" fill="#1965E8"/><path opacity=".15" d="M473.681 120.757l47.027-27.135v9.839l-47.027 27.134v-9.838zm-.079 19.677l90.644-52.365v9.838l-90.644 52.365v-9.838zm0 19.676l109.835-63.472v9.838l-109.835 63.473v-9.839z" fill="#fff"/><path d="M462.023 137.657c0 9.203-5.472 19.835-12.213 23.723-6.741 3.887-12.213-.476-12.213-9.68 0-9.203 5.472-19.835 12.213-23.723 6.82-3.808 12.292.476 12.213 9.68z" fill="#1965E8"/><path opacity=".2" d="M447.035 244.847l128.234-74.025v66.805l-128.234 74.025v-66.805z" fill="url(#paint5_linear)"/><path opacity=".15" d="M542.437 205.811L498.503 231.2v8.013l43.934-25.389v-8.013zm-.079 16.106l-82.159 47.446v8.093l82.159-47.446v-8.093z" fill="#fff"/><path opacity=".04" d="M322.5 593.5c-8.617 18.918-6.137 50.782-20.485 59.051-25.933 14.95-46.973-1.921-47.015-37.669 0-35.748 21.04-76.883 46.973-91.834 8.534-4.928 16.523-6.39 23.424-4.886 3.64-5.93 5.396-13.448 6.944-20.046 1.799-7.601 3.304-14.074 7.069-15.702 4.308-1.88 6.233 2.881 8.951 9.48 1.59 3.883 3.472 8.477 6.233 12.695 2.97-3.132 6.107-5.721 9.411-7.6 13.846-7.977 25.39-1.086 28.109 15.368 1.882-1.42 3.765-2.715 5.689-3.842C420.014 495.736 438 510.227 438 540.964c0 30.694-17.986 65.941-40.155 78.72-21.542 12.404-39.152-.918-40.156-29.776-4.057 7.517-9.453 13.823-15.435 17.248C330 616 323.964 593.041 322.5 593.5z" fill="url(#paint6_linear)"/><path d="M549.178 208.191c0 5.474 3.251 8.093 7.296 5.792 4.044-2.301 7.296-8.648 7.296-14.202 0-5.475-3.252-8.093-7.296-5.792-4.045 2.38-7.296 8.727-7.296 14.202z" fill="#1965E8"/><path opacity=".2" d="M66.139 295.307l128.234-74.025v66.805L66.139 362.192v-66.885z" fill="url(#paint7_linear)"/><path opacity=".15" d="M161.541 256.351l-43.934 25.389v8.014l43.934-25.389v-8.014zm0 16.106l-82.158 47.446v8.093l82.158-47.446v-8.093z" fill="#fff"/><path d="M168.282 258.732c0 5.474 3.252 8.092 7.296 5.791 4.045-2.3 7.296-8.648 7.296-14.202 0-5.474-3.251-8.092-7.296-5.791-4.044 2.3-7.296 8.727-7.296 14.202z" fill="#fff"/><circle cx="145.5" cy="69.5" r="4" stroke="#D7D7D7" stroke-width="3"/><defs><linearGradient id="paint0_linear" x1="221.472" y1="35.011" x2="468.163" y2="462.204" gradientUnits="userSpaceOnUse"><stop stop-color="#fff"/><stop offset="1" stop-color="#fff" stop-opacity="0"/></linearGradient><linearGradient id="paint1_linear" x1="192.613" y1="13.357" x2="439.304" y2="440.55" gradientUnits="userSpaceOnUse"><stop stop-color="#fff"/><stop offset="1" stop-color="#fff" stop-opacity="0"/></linearGradient><linearGradient id="paint2_linear" x1="267.443" y1="128.185" x2="457.88" y2="471.64" gradientUnits="userSpaceOnUse"><stop stop-color="#fff" stop-opacity="0"/><stop offset="1" stop-color="#fff"/></linearGradient><linearGradient id="paint3_linear" x1="141.045" y1="287.111" x2="113.263" y2="512.33" gradientUnits="userSpaceOnUse"><stop stop-color="#fff"/><stop offset="1" stop-color="#fff" stop-opacity="0"/></linearGradient><linearGradient id="paint4_linear" x1="465.274" y1="80.532" x2="576.166" y2="167.316" gradientUnits="userSpaceOnUse"><stop stop-color="#fff"/><stop offset="1" stop-color="#fff" stop-opacity="0"/></linearGradient><linearGradient id="paint5_linear" x1="496.676" y1="216.146" x2="525.615" y2="266.259" gradientUnits="userSpaceOnUse"><stop stop-color="#fff"/><stop offset="1" stop-color="#fff" stop-opacity="0"/></linearGradient><linearGradient id="paint6_linear" x1="346.5" y1="482" x2="371" y2="632.5" gradientUnits="userSpaceOnUse"><stop stop-color="#fff"/><stop offset="1" stop-color="#fff" stop-opacity="0"/></linearGradient><linearGradient id="paint7_linear" x1="115.81" y1="266.668" x2="144.75" y2="316.782" gradientUnits="userSpaceOnUse"><stop stop-color="#fff"/><stop offset="1" stop-color="#fff" stop-opacity="0"/></linearGradient></defs></svg>