<svg width="575" height="529" fill="none" xmlns="http://www.w3.org/2000/svg"><path d="M407.538 485.141H145.264a23.516 23.516 0 01-23.488-23.494V360.845a42.654 42.654 0 01-1.696 1.823v98.979a25.214 25.214 0 0025.184 25.19h263.012c-.255-.56-.5-1.128-.738-1.696zM121.776 112.549a23.513 23.513 0 0123.488-23.493h87.388a62.803 62.803 0 01-.458-1.697h-86.93a25.212 25.212 0 00-25.184 25.19v154.533a48.543 48.543 0 011.696 1.824V112.549zm352.164 19.813l-54.798-43.4a7.408 7.408 0 00-4.597-1.603h-48.767a39.004 39.004 0 01-.449 1.697h49.216a5.763 5.763 0 013.545 1.23l54.798 43.408a4.364 4.364 0 011.663 3.443v252.604c.568.017 1.137.06 1.696.102V137.137a6.06 6.06 0 00-2.307-4.775z" fill="#3F3D56"/><path d="M473.216 134.603H429a12.16 12.16 0 01-4.657-.927 12.159 12.159 0 01-6.587-6.586 12.157 12.157 0 01-.927-4.657V89.78a.761.761 0 011.233-.596l55.627 44.062a.763.763 0 01.246.846.759.759 0 01-.719.511z" fill="#333746"/><path d="M473.216 135.451H429a13.037 13.037 0 01-13.019-13.018V89.78a1.606 1.606 0 01.909-1.448 1.608 1.608 0 011.699.187l55.626 44.062a1.612 1.612 0 01.521 1.79 1.61 1.61 0 01-1.52 1.08zm-55.538-45.49v32.472A11.331 11.331 0 00429 133.754h43.965l-55.287-43.793z" fill="#3F3D56"/><path d="M385.445 190.885H255.369a6.085 6.085 0 110-12.169h130.076a6.085 6.085 0 110 12.169zm25.103 20.536H255.369a6.087 6.087 0 01-4.303-10.387 6.09 6.09 0 014.303-1.783h155.179a6.086 6.086 0 014.303 10.388 6.085 6.085 0 01-4.303 1.782zm-25.103 71.494H255.369a6.085 6.085 0 010-12.169h130.076a6.085 6.085 0 110 12.169zm25.103 20.536H255.369a6.087 6.087 0 01-4.303-10.387 6.09 6.09 0 014.303-1.783h155.179a6.086 6.086 0 014.303 10.388 6.085 6.085 0 01-4.303 1.782zm-25.103 71.494H255.369a6.096 6.096 0 01-4.303-1.782 6.09 6.09 0 01-1.782-4.303 6.077 6.077 0 011.782-4.302 6.095 6.095 0 014.303-1.782h130.076a6.085 6.085 0 110 12.169zm25.103 20.535H255.369a6.077 6.077 0 01-4.303-1.782 6.09 6.09 0 01-1.782-4.302 6.082 6.082 0 016.085-6.085h155.179a6.077 6.077 0 014.303 1.782 6.09 6.09 0 011.782 4.303 6.077 6.077 0 01-1.782 4.302 6.084 6.084 0 01-4.303 1.782z" fill="#333746"/><path d="M201.203 216.574c11.879 0 21.509-9.628 21.509-21.505 0-11.878-9.63-21.506-21.509-21.506s-21.509 9.628-21.509 21.506c0 11.877 9.63 21.505 21.509 21.505z" fill="#1965E8"/><path d="M199.072 203.272a2.23 2.23 0 01-1.343-.446l-.024-.018-5.054-3.866a2.242 2.242 0 01-.419-3.151 2.27 2.27 0 01.659-.579 2.27 2.27 0 01.831-.282 2.252 2.252 0 011.662.447l3.274 2.51 7.737-10.092a2.25 2.25 0 012.362-.803c.285.076.552.208.786.387l.001.001-.048.067.049-.067a2.25 2.25 0 01.415 3.148l-9.1 11.866a2.244 2.244 0 01-1.786.876l-.002.002z" fill="#fff"/><path d="M201.203 308.604c11.879 0 21.509-9.628 21.509-21.506 0-11.877-9.63-21.505-21.509-21.505s-21.509 9.628-21.509 21.505c0 11.878 9.63 21.506 21.509 21.506z" fill="#333746"/><path d="M199.071 295.302a2.23 2.23 0 01-1.342-.446l-.024-.018-5.055-3.866a2.25 2.25 0 01-.416-3.149 2.246 2.246 0 013.15-.416l3.274 2.51 7.737-10.092a2.25 2.25 0 012.362-.803c.285.076.552.208.786.387l.001.001-.048.066.049-.066a2.247 2.247 0 01.415 3.148l-9.1 11.865a2.245 2.245 0 01-1.787.876l-.002.003z" fill="#fff"/><path d="M201.203 400.634c11.879 0 21.509-9.629 21.509-21.506s-9.63-21.506-21.509-21.506-21.509 9.629-21.509 21.506 9.63 21.506 21.509 21.506z" fill="#333746"/><path d="M199.072 387.332a2.236 2.236 0 01-1.343-.446l-.024-.018-5.054-3.866a2.258 2.258 0 01-.863-1.489 2.25 2.25 0 01.444-1.663 2.234 2.234 0 012.366-.802c.285.076.552.209.786.389l3.274 2.51 7.737-10.092a2.235 2.235 0 011.488-.86 2.241 2.241 0 011.66.444h.001l-.048.067.049-.067a2.25 2.25 0 01.415 3.149l-9.1 11.865a2.236 2.236 0 01-1.786.876l-.002.003z" fill="#fff"/><path d="M503.61 521.038a71.515 71.515 0 01-3.704 1.801 66.015 66.015 0 01-3.484 1.456c-.431.164-.869.329-1.308.493a70.097 70.097 0 01-10.648 2.936 64.82 64.82 0 01-5.45.83 70.283 70.283 0 01-7.924.446 70.37 70.37 0 01-13.122-1.229 59.098 59.098 0 01-3.336-.712 69.545 69.545 0 01-15.401-5.684c-.438-.219-.877-.454-1.315-.681a46.354 46.354 0 01-1.918-1.081c.305-.422.634-.837.97-1.244a41.525 41.525 0 0161.754-3.21 42.509 42.509 0 014.886 5.879z" fill="#1965E8"/><path d="M472.655 486.649c18.988 0 34.38-15.391 34.38-34.376s-15.392-34.376-34.38-34.376c-18.988 0-34.38 15.391-34.38 34.376s15.392 34.376 34.38 34.376z" fill="#2F2E41"/><path d="M481.799 486.697c12.4-6.777 16.957-22.323 10.179-34.721-6.779-12.399-22.326-16.956-34.726-10.178-12.401 6.778-16.958 22.323-10.179 34.722 6.778 12.398 22.326 16.955 34.726 10.177z" fill="#FFB8B8"/><path d="M496.413 448.155a34.813 34.813 0 01-19.889 6.146 21.335 21.335 0 008.453 3.477 70.186 70.186 0 01-28.665.161 18.579 18.579 0 01-6.001-2.061 7.592 7.592 0 01-3.704-4.953c-.629-3.592 2.171-6.856 5.08-9.055a37.48 37.48 0 0131.489-6.292c3.517.909 7.041 2.445 9.326 5.27 2.284 2.824 2.961 7.179.784 10.087l3.127-2.78z" fill="#2F2E41"/><path d="M476.248 388.265a55.036 55.036 0 00-1.697-.101 70.475 70.475 0 00-61.943 31.068 70.451 70.451 0 00-6.766 65.909c.229.568.467 1.136.721 1.696a70.976 70.976 0 0027.857 31.857l.45.263c.381.229.754.449 1.128.653.636.381 1.272.738 1.917 1.085.441.229.882.458 1.315.679a69.327 69.327 0 0015.404 5.682c1.103.272 2.206.509 3.334.713a70.455 70.455 0 0016.448 1.153 68.402 68.402 0 004.597-.364 67.1 67.1 0 005.454-.831c3.62-.7 7.18-1.681 10.646-2.935.441-.17.882-.331 1.307-.501a59.53 59.53 0 003.486-1.45 71.143 71.143 0 0032.709-29.965 70.434 70.434 0 00.471-67.862 70.451 70.451 0 00-56.838-36.749zm62.534 83.204a68.488 68.488 0 01-7.533 20.627 69.019 69.019 0 01-28.561 27.649 65.955 65.955 0 01-3.656 1.765 64.033 64.033 0 01-3.138 1.306c-.442.169-.9.348-1.349.5a66.91 66.91 0 01-9.187 2.629 65.025 65.025 0 01-7.007 1.103c-1.45.161-2.918.271-4.402.322-.95.043-1.9.068-2.859.068a68.222 68.222 0 01-12.698-1.187 65.762 65.762 0 01-7.541-1.849 68.782 68.782 0 01-10.951-4.436c-.407-.212-.815-.424-1.213-.645a41.324 41.324 0 01-1.714-.95c-.424-.237-.848-.491-1.264-.737a40.401 40.401 0 01-.729-.441 69.362 69.362 0 01-26.703-30.356 68.873 68.873 0 015.457-66.462 68.902 68.902 0 0157.356-30.727c1.162 0 2.316.025 3.461.093.568.017 1.137.06 1.697.102a68.982 68.982 0 0127.63 8.124 68.945 68.945 0 0134.904 73.502z" fill="#3F3D56"/><path d="M455.245 418.372c-.37-3.89-5.135-6.284-8.862-5.109-3.726 1.175-6.173 4.926-6.912 8.763a12.564 12.564 0 001.695 9.49c1.884 2.71 5.345 4.402 8.574 3.714 3.685-.786 6.239-4.384 6.969-8.08.731-3.696.005-7.507-.719-11.205l-.745 2.427zm52.445 5.556c-.37-3.889-5.135-6.284-8.861-5.109-3.727 1.175-6.173 4.927-6.913 8.763a12.564 12.564 0 001.695 9.49c1.884 2.711 5.345 4.402 8.574 3.714 3.686-.785 6.239-4.384 6.97-8.08.73-3.696.005-7.507-.72-11.205l-.745 2.427z" fill="#2F2E41"/><path d="M336.573 129.127a69.743 69.743 0 01-73.326 1.166 42.408 42.408 0 017.36-9.903 41.846 41.846 0 0134.882-11.994 41.838 41.838 0 0130.818 20.269c.086.149.18.305.266.462z" fill="#75A1ED"/><path d="M296.848 91.69c19.114 0 34.609-15.493 34.609-34.604 0-19.112-15.495-34.605-34.609-34.605-19.114 0-34.608 15.493-34.608 34.605 0 19.111 15.494 34.604 34.608 34.604z" fill="#2F2E41"/><path d="M319.208 81.493c6.823-12.48 2.236-28.13-10.247-34.952-12.483-6.823-28.133-2.236-34.957 10.245-6.824 12.481-2.236 28.13 10.246 34.953 12.483 6.822 28.134 2.236 34.958-10.246z" fill="#FFB8B8"/><path d="M272.933 52.94a35.034 35.034 0 0020.021 6.187 21.469 21.469 0 01-8.509 3.5 70.649 70.649 0 0028.855.162 18.68 18.68 0 006.041-2.075 7.646 7.646 0 003.728-4.985c.634-3.617-2.185-6.902-5.113-9.116a37.723 37.723 0 00-31.698-6.333c-3.541.915-7.088 2.461-9.388 5.304-2.3 2.843-2.981 7.227-.79 10.155l-3.147-2.8z" fill="#2F2E41"/><path d="M298.97 0a70.559 70.559 0 00-49.807 20.658 70.54 70.54 0 00-20.667 49.798 69.803 69.803 0 002.087 16.903 70.38 70.38 0 0025.639 39.12 70.397 70.397 0 0042.748 14.441 70.503 70.503 0 0042.757-14.447 70.486 70.486 0 0025.231-37.417 62.99 62.99 0 00.432-1.697 70.49 70.49 0 00-12.953-60.324A70.514 70.514 0 00298.97 0zm66.808 87.36a37.622 37.622 0 01-.449 1.696 68.922 68.922 0 01-40.823 45.386 68.946 68.946 0 01-60.858-4.819 69.393 69.393 0 01-31.454-42.264 68.253 68.253 0 01-2.129-16.903 68.888 68.888 0 0148.574-65.748 68.907 68.907 0 0177.189 26.923 68.887 68.887 0 019.95 55.728z" fill="#3F3D56"/><path d="M108.077 373.508a69.749 69.749 0 01-73.324 1.17 10.8 10.8 0 01.382-.679 41.866 41.866 0 0172.543-1.161c.051.067.093.144.136.212.085.144.178.305.263.458z" fill="#FFD200"/><path d="M102.962 301.466a34.605 34.605 0 01-41.36 33.939 34.611 34.611 0 01-27.192-27.188 34.601 34.601 0 0114.716-35.524 34.615 34.615 0 0119.227-5.832 34.47 34.47 0 0113.27 2.59 34.435 34.435 0 0121.339 32.015z" fill="#2F2E41"/><path d="M95.472 322.966a26.629 26.629 0 01-1.366 2.91 25.76 25.76 0 01-34.957 10.245 25.764 25.764 0 01-12.376-15.354 25.75 25.75 0 018.566-27.317 25.757 25.757 0 0128.52-2.527 25.766 25.766 0 0111.613 32.043z" fill="#FFB8B8"/><path d="M121.776 266.607a40.394 40.394 0 00-1.697-1.747 70.432 70.432 0 00-104.907 6.451 70.411 70.411 0 0018.326 103.482 70.435 70.435 0 0075.003-.624 70.938 70.938 0 0011.578-9.27 53.533 53.533 0 001.697-1.739 70.394 70.394 0 000-96.553zm-1.697 96.061a69.097 69.097 0 01-12.401 10.169c-.009.009-.017.009-.025.017a68.97 68.97 0 01-72.502 1.154c-.008 0-.008-.009-.017-.009A68.89 68.89 0 012.65 327.226a68.878 68.878 0 0136.362-73.704 68.894 68.894 0 0156.89-2.692 68.888 68.888 0 0124.178 16.252 48.486 48.486 0 011.697 1.823 68.858 68.858 0 010 91.94 42.045 42.045 0 01-1.697 1.823z" fill="#3F3D56"/><path d="M96.403 272.729a18.226 18.226 0 00-16.804-8.94c-3.519.264-6.867 1.56-10.155 2.843l-16.714 6.519c-4.325 1.687-9.062 3.753-10.94 7.999-1.741 3.94-.441 8.491.874 12.594l6.254 19.501c.857-4.38 1.727-8.804 3.544-12.882 1.816-4.077 4.69-7.837 8.661-9.874 4.342-2.227 9.46-2.181 14.333-1.947 6.903.332 14.408 1.211 19.313 6.079a20.052 20.052 0 015.09 9.939 59.808 59.808 0 011.067 11.251 93.229 93.229 0 007.124-15.271 37.762 37.762 0 002.647-12.361c.038-4.234-1.161-8.603-3.985-11.758-2.824-3.156-7.425-4.859-11.472-3.61" fill="#2F2E41"/><path d="M43.696 179.674l-1.696-.02c.02-1.696.069-3.418.145-5.116l1.695.076c-.076 1.68-.124 3.382-.144 5.06zm.889-14.746l-1.687-.184c.355-3.242.819-6.512 1.38-9.719l1.67.293a151.433 151.433 0 00-1.363 9.61zm3.344-19.114l-1.649-.399c.768-3.167 1.65-6.351 2.62-9.461l1.62.505a150.63 150.63 0 00-2.591 9.355zm5.787-18.533l-1.583-.61a152.18 152.18 0 013.826-9.05l1.54.71a150.895 150.895 0 00-3.783 8.95zm8.137-17.635l-1.492-.809a153.407 153.407 0 014.96-8.48l1.435.903a151.268 151.268 0 00-4.903 8.386zm10.335-16.438l-1.375-.993a153.936 153.936 0 016.002-7.773l1.309 1.08a152.16 152.16 0 00-5.936 7.686zm12.35-14.977l-1.236-1.16a154.505 154.505 0 016.943-6.942l1.16 1.237a152.925 152.925 0 00-6.866 6.865zm14.158-13.276l-1.079-1.31a153.75 153.75 0 017.77-5.997l.994 1.375a152.293 152.293 0 00-7.685 5.932zm15.732-11.358l-.903-1.436a153.17 153.17 0 018.472-4.953l.809 1.491a151.47 151.47 0 00-8.378 4.898zm17.051-9.244l-.711-1.54a152.99 152.99 0 019.035-3.82l.61 1.583a150.72 150.72 0 00-8.934 3.777zm18.09-6.968l-.506-1.62c3.11-.971 6.293-1.854 9.462-2.623l.4 1.648c-3.133.76-6.281 1.634-9.356 2.595zm18.859-4.58l-.293-1.67a153.25 153.25 0 019.72-1.382l.184 1.686c-3.207.351-6.44.811-9.611 1.367zm19.357-2.117l-.077-1.695c1.7-.076 3.421-.125 5.117-.145l.021 1.696c-1.678.02-3.381.069-5.061.144z" fill="#fff"/><path d="M49.962 174.222l-1.213-1.189-5.848 5.981-5.539-6.269-1.271 1.125 6.748 7.634 7.123-7.282zm137.43-137.413l-1.188-1.212 5.981-5.847-6.27-5.539 1.126-1.271 7.634 6.747-7.283 7.122zm253.81 10.651a247.83 247.83 0 00-4.513-2.317l.76-1.516c1.525.763 3.04 1.54 4.543 2.332l-.79 1.5zm115.282 313.074l-1.569-.643a252.02 252.02 0 003.648-9.442l1.595.578a250.735 250.735 0 01-3.674 9.507zm6.956-19.156l-1.617-.513a247.531 247.531 0 002.865-9.71l1.636.447a249.17 249.17 0 01-2.884 9.776zm5.364-19.663l-1.653-.379a246.455 246.455 0 002.056-9.912l1.668.31a248.515 248.515 0 01-2.071 9.981zm3.729-20.039l-1.68-.241c.478-3.327.893-6.708 1.233-10.05l1.688.172a249.41 249.41 0 01-1.241 10.119zm2.063-20.28l-1.693-.102c.202-3.353.337-6.756.401-10.117l1.696.032c-.064 3.384-.2 6.811-.404 10.187zm.388-20.382l-1.696.037a241.208 241.208 0 00-.431-10.117l1.693-.107a250.38 250.38 0 01.434 10.187zm-2.972-20.165a248.768 248.768 0 00-1.257-10.044l1.679-.245a250.16 250.16 0 011.265 10.113l-1.687.176zm-2.923-20.03a249.646 249.646 0 00-2.072-9.909l1.653-.382c.76 3.299 1.462 6.656 2.086 9.978l-1.667.313zm-4.547-19.728a249.756 249.756 0 00-2.872-9.71l1.617-.514a250.939 250.939 0 012.892 9.777l-1.637.447zm-6.137-19.296a250.514 250.514 0 00-3.652-9.446l1.569-.644a252.265 252.265 0 013.678 9.511l-1.595.579zm-7.687-18.737a249.983 249.983 0 00-4.41-9.12l1.512-.769a250.901 250.901 0 014.44 9.181l-1.542.708zm-9.188-18.052a249.697 249.697 0 00-5.14-8.731l1.444-.89a250.586 250.586 0 015.175 8.79l-1.479.831zm-10.634-17.244a249.125 249.125 0 00-5.838-8.282l1.366-1.005a250.488 250.488 0 015.879 8.339l-1.407.948zm-12.013-16.318a248.108 248.108 0 00-6.501-7.776l1.279-1.114a246.713 246.713 0 016.546 7.829l-1.324 1.061zm-13.318-15.278a246.886 246.886 0 00-7.121-7.215l1.182-1.216c2.427 2.36 4.84 4.804 7.171 7.265l-1.232 1.166zm-14.536-14.132a245.045 245.045 0 00-7.696-6.605l1.079-1.31a247.74 247.74 0 017.748 6.651l-1.131 1.264zM475.37 69.146a246.218 246.218 0 00-8.201-5.94l.967-1.394a249.058 249.058 0 018.258 5.981l-1.024 1.353zm-16.639-11.539a249.353 249.353 0 00-8.659-5.25l.85-1.469a250.256 250.256 0 018.718 5.287l-.909 1.432zm91.518 316.912l-1.528-.737a250.989 250.989 0 002.159-4.59l1.542.705a247.882 247.882 0 01-2.173 4.622z" fill="#fff"/><path d="M438.814 53.173l1.6-.564-2.788-7.885 8.07-2.205-.449-1.637-9.828 2.687 3.395 9.604zm106.684 312.953l1.612-.531 2.61 7.947 7.737-3.183.644 1.571-9.424 3.874-3.179-9.678z" fill="#fff"/></svg>